<!DOCTYPE svg PUBLIC "-//W3C//DTD SVG 20010904//EN" "http://www.w3.org/TR/2001/REC-SVG-20010904/DTD/svg10.dtd">
<svg version="1.0" xmlns="http://www.w3.org/2000/svg" width="240px" height="240px" viewBox="0 0 2400 2400" preserveAspectRatio="xMidYMid meet">
<g id="layer1" fill="#666666" stroke="none">
 <path d="M695 1791 c-11 -5 -36 -25 -55 -46 l-35 -36 -3 -495 c-3 -547 -4 -536 61 -585 l32 -24 505 0 505 0 32 24 c65 49 64 38 61 585 l-3 496 -43 42 -42 43 -498 2 c-273 1 -506 -2 -517 -6z m943 -418 l2 -263 -37 0 -38 0 0 98 c-1 86 -4 103 -28 150 -39 75 -96 134 -169 173 -60 33 -68 34 -168 34 -96 0 -110 -2 -158 -28 -76 -40 -134 -97 -173 -169 -32 -59 -34 -69 -34 -160 l0 -98 -37 0 -38 0 0 258 c0 142 3 262 7 265 3 4 200 6 437 5 l431 -3 3 -262z m-307 12 c123 -86 123 -284 0 -370 -37 -26 -53 -30 -119 -33 -66 -3 -83 0 -122 21 -25 13 -58 43 -75 66 -28 40 -30 49 -30 131 0 82 2 91 30 131 17 23 50 53 75 66 39 21 56 24 122 21 66 -3 82 -7 119 -33z m293 -448 c14 -10 16 -26 14 -92 l-3 -80 -80 -3 c-94 -3 -105 5 -105 82 0 66 8 94 29 99 36 10 128 6 145 -6z"/>
 </g>
<g id="layer2" fill="#ffffff" stroke="none">
 <path d="M952 2384 c-107 -16 -165 -36 -287 -95 -281 -136 -513 -400 -616 -698 -63 -182 -65 -584 -3 -775 30 -93 113 -250 178 -337 150 -198 359 -352 585 -430 185 -64 597 -64 782 0 226 78 435 232 585 430 65 87 148 244 178 337 60 187 60 581 0 768 -30 93 -113 250 -178 337 -150 198 -359 352 -585 430 -134 46 -450 63 -639 33z m790 -642 l33 -32 0 -510 0 -510 -33 -32 -32 -33 -510 0 -510 0 -32 33 -33 32 0 509 0 509 25 27 c14 15 34 31 45 36 11 4 244 7 517 6 l498 -2 32 -33z"/>
 <path d="M756 1642 c-15 -17 -16 -48 -14 -283 l3 -264 53 0 54 0 1 105 c2 99 4 109 36 168 39 71 78 110 154 150 47 24 62 27 157 27 100 0 108 -1 168 -34 71 -39 110 -79 149 -154 25 -46 28 -64 29 -157 l2 -105 54 0 53 0 3 264 c2 235 1 266 -14 283 -16 17 -42 18 -444 18 -402 0 -428 -1 -444 -18z"/>
 <path d="M1092 1419 c-50 -25 -107 -88 -123 -136 -6 -19 -9 -66 -7 -103 4 -81 35 -135 107 -185 40 -28 49 -30 131 -30 82 0 91 2 131 30 150 105 150 305 0 410 -37 26 -53 30 -119 33 -63 2 -85 -1 -120 -19z"/>
 <path d="M1472 960 c-32 -13 -44 -55 -40 -129 5 -82 17 -91 118 -91 101 0 110 9 110 111 0 102 -9 112 -96 116 -38 2 -79 -2 -92 -7z"/>
 </g>

</svg>