<!DOCTYPE svg PUBLIC "-//W3C//DTD SVG 20010904//EN" "http://www.w3.org/TR/2001/REC-SVG-20010904/DTD/svg10.dtd">
<svg version="1.0" xmlns="http://www.w3.org/2000/svg" width="240px" height="240px" viewBox="0 0 2400 2400" preserveAspectRatio="xMidYMid meet">
<g id="layer1" fill="#818181" stroke="none">
 <path d="M997 2108 c-243 -386 -335 -543 -422 -718 -137 -274 -175 -398 -182 -590 -6 -162 8 -235 68 -356 104 -212 329 -389 544 -429 103 -19 287 -19 390 0 215 40 440 217 544 429 60 121 74 194 68 356 -7 192 -45 316 -182 590 -133 267 -593 1010 -625 1010 -13 0 -71 -85 -203 -292z m308 -1045 c183 -62 236 -323 95 -463 -107 -108 -293 -108 -400 0 -76 75 -101 195 -63 305 21 62 93 136 154 158 59 21 154 21 214 0z"/>
 </g>

</svg>