<!DOCTYPE svg PUBLIC "-//W3C//DTD SVG 20010904//EN" "http://www.w3.org/TR/2001/REC-SVG-20010904/DTD/svg10.dtd">
<svg version="1.0" xmlns="http://www.w3.org/2000/svg" width="240px" height="240px" viewBox="0 0 2400 2400" preserveAspectRatio="xMidYMid meet">
<g id="layer1" fill="#818181" stroke="none">
 <path d="M0 2248 c1 -335 43 -384 411 -477 348 -88 439 -144 439 -272 0 -34 -18 -81 -79 -209 -132 -275 -181 -456 -181 -667 0 -210 50 -346 174 -469 116 -115 225 -154 431 -154 215 0 323 38 440 154 132 131 182 278 172 511 -8 203 -72 416 -202 676 -79 157 -71 236 33 306 68 46 133 69 351 124 368 93 410 142 411 477 l0 152 -1200 0 -1200 0 0 -152z"/>
 </g>

</svg>