<!DOCTYPE svg PUBLIC "-//W3C//DTD SVG 20010904//EN" "http://www.w3.org/TR/2001/REC-SVG-20010904/DTD/svg10.dtd">
<svg version="1.0" xmlns="http://www.w3.org/2000/svg" width="240px" height="240px" viewBox="0 0 2400 2400" preserveAspectRatio="xMidYMid meet">
<g id="layer1" fill="#666666" stroke="none">
 <path d="M1053 1591 c-67 -23 -122 -62 -183 -128 -108 -118 -284 -426 -278 -486 l3 -32 119 -3 c76 -2 123 1 132 9 7 6 36 57 64 114 29 56 67 120 87 141 31 35 36 37 45 21 5 -10 12 -51 15 -90 6 -87 -11 -146 -47 -164 -32 -16 -32 -31 3 -56 22 -17 46 -22 121 -25 105 -5 160 8 178 41 7 14 9 59 5 139 -5 75 -3 127 4 145 l11 28 38 -43 c21 -23 62 -91 92 -150 l54 -107 133 -3 c90 -2 138 1 147 9 36 29 11 84 -112 250 -35 48 -64 95 -64 105 0 11 30 49 66 84 85 84 124 136 124 170 0 46 -14 50 -159 50 l-134 0 -76 -75 c-96 -96 -121 -98 -121 -6 0 20 -7 47 -16 59 -14 20 -23 22 -107 22 -62 -1 -109 -7 -144 -19z"/>
 </g>
<g id="layer2" fill="#cccccc" stroke="none">
 <path d="M952 2384 c-107 -16 -165 -36 -287 -95 -281 -136 -513 -400 -616 -698 -63 -182 -65 -584 -3 -775 30 -93 113 -250 178 -337 150 -198 359 -352 585 -430 185 -64 597 -64 782 0 226 78 435 232 585 430 65 87 148 244 178 337 60 187 60 581 0 768 -30 93 -113 250 -178 337 -150 198 -359 352 -585 430 -134 46 -450 63 -639 33z m342 -810 c3 -9 6 -32 6 -53 0 -43 23 -81 50 -81 10 0 52 34 93 75 l74 75 136 0 137 0 0 -28 c0 -36 -37 -87 -124 -172 -36 -35 -66 -73 -66 -84 0 -10 29 -57 64 -105 93 -125 126 -181 126 -213 l0 -28 -132 0 -133 1 -48 99 c-47 97 -116 190 -142 190 -33 0 -40 -31 -40 -174 0 -139 0 -140 -25 -154 -31 -16 -215 -12 -248 6 l-22 13 30 25 c38 33 54 91 47 176 -10 122 -42 139 -106 59 -21 -28 -60 -93 -85 -145 l-47 -96 -115 0 -114 0 0 25 c0 32 98 223 172 335 138 209 230 269 414 270 75 0 93 -3 98 -16z"/>
 </g>

</svg>