<!DOCTYPE svg PUBLIC "-//W3C//DTD SVG 20010904//EN" "http://www.w3.org/TR/2001/REC-SVG-20010904/DTD/svg10.dtd">
<svg version="1.0" xmlns="http://www.w3.org/2000/svg" width="240px" height="240px" viewBox="0 0 2400 2400" preserveAspectRatio="xMidYMid meet">
<g id="layer1" fill="#666666" stroke="none">
 <path d="M669 1787 c-18 -12 -44 -38 -56 -56 l-23 -34 0 -497 0 -497 23 -34 c12 -18 38 -44 56 -56 l34 -23 497 0 497 0 34 23 c18 12 44 38 56 56 l23 34 0 497 0 497 -23 34 c-12 18 -38 44 -56 56 l-34 23 -497 0 -497 0 -34 -23z m959 -159 c9 -9 12 -82 12 -265 l0 -253 -35 0 -35 0 6 58 c22 209 -164 412 -376 412 -212 0 -398 -203 -376 -412 l6 -58 -35 0 -35 0 0 253 c0 183 3 256 12 265 17 17 839 17 856 0z m-354 -220 c23 -7 59 -30 81 -53 86 -86 86 -224 0 -310 -86 -86 -224 -86 -310 0 -87 86 -86 224 0 310 60 61 141 79 229 53z m364 -546 c4 -98 -1 -104 -97 -100 l-76 3 -3 74 c-2 41 -1 80 2 88 4 11 25 13 88 11 l83 -3 3 -73z"/>
 </g>
<g id="layer2" fill="#cccccc" stroke="none">
 <path d="M952 2384 c-107 -16 -165 -36 -287 -95 -281 -136 -513 -400 -616 -698 -63 -182 -65 -584 -3 -775 30 -93 113 -250 178 -337 150 -198 359 -352 585 -430 185 -64 597 -64 782 0 226 78 435 232 585 430 65 87 148 244 178 337 60 187 60 581 0 768 -30 93 -113 250 -178 337 -150 198 -359 352 -585 430 -134 46 -450 63 -639 33z m775 -614 c64 -39 63 -28 63 -572 0 -471 -1 -494 -20 -525 -39 -64 -28 -63 -570 -63 -542 0 -531 -1 -570 63 -19 31 -20 54 -20 525 0 544 -1 533 63 572 31 19 54 20 527 20 473 0 496 -1 527 -20z"/>
 <path d="M760 1640 c-20 -20 -20 -31 -18 -283 l3 -262 50 0 50 0 -3 67 c-7 137 51 263 151 332 129 86 285 86 414 0 100 -69 158 -195 151 -332 l-3 -67 50 0 50 0 3 262 c2 252 2 263 -18 283 -19 19 -32 20 -440 20 -408 0 -421 -1 -440 -20z"/>
 <path d="M1120 1427 c-49 -16 -133 -102 -148 -153 -28 -94 -8 -169 63 -239 101 -102 229 -102 330 0 102 101 102 229 0 330 -70 71 -152 91 -245 62z"/>
 <path d="M1457 942 c-25 -28 -24 -163 1 -185 29 -26 155 -24 182 3 28 28 29 158 2 183 -28 25 -163 24 -185 -1z"/>
 </g>

</svg>