<!DOCTYPE svg PUBLIC "-//W3C//DTD SVG 20010904//EN" "http://www.w3.org/TR/2001/REC-SVG-20010904/DTD/svg10.dtd">
<svg version="1.0" xmlns="http://www.w3.org/2000/svg" width="160px" height="240px" viewBox="0 0 1600 2400" preserveAspectRatio="xMidYMid meet">
<g id="layer1" fill="#818181" stroke="none">
 <path d="M1064 2381 c-119 -34 -245 -123 -400 -283 -174 -180 -325 -403 -450 -663 -155 -325 -214 -557 -214 -850 0 -297 65 -417 283 -525 56 -28 118 -53 137 -56 l36 -6 173 337 c95 185 170 343 167 351 -3 8 -52 36 -108 63 -139 65 -143 71 -142 185 0 75 6 107 32 183 61 179 173 373 274 474 49 49 115 88 148 89 8 0 66 -25 129 -55 62 -30 117 -55 121 -55 8 0 87 149 274 513 42 82 76 159 76 173 0 20 -14 31 -88 68 -48 24 -112 51 -141 60 -73 22 -227 20 -307 -3z"/>
 </g>

</svg>