<!DOCTYPE svg PUBLIC "-//W3C//DTD SVG 20010904//EN" "http://www.w3.org/TR/2001/REC-SVG-20010904/DTD/svg10.dtd">
<svg version="1.0" xmlns="http://www.w3.org/2000/svg" width="1294px" height="1600px" viewBox="0 0 12940 16000" preserveAspectRatio="xMidYMid meet">
<g id="layer1" fill="#818181" stroke="none">
 <path d="M1590 15993 c-63 -2 -223 -7 -355 -12 -230 -9 -244 -11 -335 -41 -113 -38 -241 -97 -317 -148 -31 -20 -63 -41 -72 -47 -9 -5 -41 -30 -71 -55 -228 -186 -386 -452 -410 -690 -23 -229 -30 -1948 -30 -7000 0 -5043 7 -6748 30 -6980 34 -344 318 -712 680 -883 109 -51 244 -94 335 -106 194 -26 695 -31 2980 -31 2662 0 2858 4 3115 66 103 25 246 86 298 128 45 37 362 351 362 359 0 5 13 25 30 45 41 52 81 127 171 322 12 25 25 53 30 62 12 24 12 14012 0 14036 -5 9 -18 37 -29 62 -19 41 -80 166 -106 215 -43 82 -130 190 -246 307 -74 76 -141 138 -147 138 -7 0 -13 4 -13 9 0 8 -58 49 -125 88 -41 25 -164 83 -175 83 -6 0 -37 9 -70 20 -65 22 -193 35 -505 50 -184 9 -4669 12 -5025 3z m5148 -821 c15 -10 54 -31 87 -46 33 -15 71 -34 85 -42 14 -8 44 -24 67 -35 70 -34 128 -93 151 -151 52 -135 62 -286 69 -1065 l6 -673 -3203 0 -3203 0 7 613 c10 930 17 1018 92 1139 94 153 279 243 547 267 51 5 1257 9 2680 10 2488 1 2590 0 2615 -17z m462 -7717 l0 -4855 -3200 0 -3200 0 0 4855 0 4855 3200 0 3200 0 0 -4855z m0 -5849 c0 -242 -26 -414 -78 -512 -23 -44 -90 -110 -138 -134 -16 -8 -43 -25 -60 -37 -17 -13 -35 -23 -39 -23 -12 0 -116 -51 -147 -72 -25 -17 -132 -18 -2731 -18 l-2705 0 -143 73 c-271 137 -319 217 -344 572 -8 105 -16 214 -19 243 l-5 52 3205 0 3204 0 0 -144z"/>
 <path d="M3834 14946 c-71 -12 -219 -79 -286 -128 -135 -101 -259 -273 -289 -398 -4 -19 -15 -62 -23 -95 -17 -65 -20 -215 -7 -280 25 -118 51 -186 117 -307 27 -51 163 -184 236 -233 123 -83 149 -89 403 -89 238 -1 309 9 377 51 21 13 40 23 44 23 13 0 161 132 204 182 61 72 88 112 124 188 l30 65 0 255 1 255 -29 60 c-111 231 -341 405 -592 449 -102 18 -208 19 -310 2z"/>
 <path d="M3150 1540 c-69 -5 -139 -11 -156 -15 -37 -6 -121 -85 -132 -124 -4 -14 -7 -71 -7 -126 0 -82 4 -106 20 -134 30 -50 65 -72 136 -83 96 -15 1772 -22 1932 -8 70 6 134 13 143 17 8 3 27 29 41 57 23 44 27 66 31 168 4 114 4 119 -20 150 -39 52 -106 79 -217 90 -124 12 -1607 19 -1771 8z"/>
 <path d="M10072 12631 c-56 -19 -72 -31 -168 -126 -99 -98 -109 -117 -109 -210 0 -70 4 -86 29 -130 66 -113 407 -471 582 -611 52 -41 99 -87 105 -102 12 -31 80 -114 163 -197 33 -33 83 -87 111 -120 106 -128 135 -164 135 -169 0 -14 151 -233 215 -313 49 -60 68 -91 99 -163 17 -38 28 -57 63 -107 13 -17 23 -34 23 -37 0 -2 19 -33 42 -68 48 -71 48 -71 101 -161 20 -36 37 -75 37 -86 0 -19 9 -42 67 -171 42 -95 59 -133 88 -200 31 -72 42 -96 80 -185 41 -93 63 -164 71 -230 7 -58 35 -144 108 -330 19 -49 35 -99 36 -111 0 -11 9 -60 20 -110 11 -49 20 -106 20 -126 0 -20 7 -70 16 -110 27 -128 43 -305 55 -619 18 -448 -7 -997 -56 -1227 -8 -40 -15 -88 -15 -105 0 -18 -9 -66 -20 -107 -11 -41 -20 -88 -20 -105 0 -16 -19 -73 -41 -125 -23 -52 -44 -111 -49 -130 -4 -19 -17 -64 -29 -99 -11 -35 -21 -70 -21 -78 0 -40 -59 -228 -100 -318 -15 -33 -42 -94 -60 -135 -56 -129 -176 -377 -239 -495 -75 -139 -175 -320 -191 -345 -5 -8 -19 -31 -29 -51 -11 -19 -27 -41 -35 -48 -9 -8 -16 -18 -16 -23 0 -5 -19 -33 -43 -61 -48 -58 -124 -173 -173 -262 -21 -37 -85 -115 -140 -169 -23 -23 -72 -77 -109 -121 -99 -118 -264 -291 -492 -520 -112 -111 -203 -205 -203 -207 0 -3 -16 -22 -35 -43 -62 -65 -85 -123 -85 -213 0 -243 173 -382 475 -382 100 0 185 19 227 50 15 11 30 20 34 20 11 0 137 102 203 164 226 216 482 482 650 676 46 52 97 111 115 130 100 107 266 325 266 347 0 17 36 71 133 198 48 64 87 119 87 124 0 5 7 14 15 21 20 16 75 116 75 136 0 9 21 41 48 71 72 83 92 115 92 145 0 16 4 36 10 46 5 9 27 53 48 97 45 93 74 143 97 167 21 21 65 103 65 121 0 8 9 36 21 61 11 26 26 68 34 94 16 57 31 100 60 172 13 30 33 80 45 110 12 30 29 69 38 85 62 119 105 237 122 332 4 27 15 84 24 128 30 156 57 372 66 540 6 93 15 249 20 345 6 96 10 405 10 685 0 281 -4 589 -10 685 -5 96 -14 252 -20 345 -9 178 -37 393 -70 555 -11 52 -20 102 -20 110 0 44 -74 245 -161 436 -11 22 -19 43 -19 47 0 3 -11 31 -25 61 -14 30 -25 61 -25 68 0 8 -9 33 -20 56 -11 22 -20 49 -20 58 0 32 -93 236 -117 255 -23 19 -49 79 -57 128 -8 52 -22 81 -39 81 -7 0 -17 9 -22 19 -6 11 -31 57 -56 103 -26 46 -68 124 -94 173 -27 50 -58 106 -71 125 -45 67 -87 125 -115 157 -39 45 -93 131 -106 170 -13 35 -143 211 -232 312 -31 35 -85 98 -120 140 -74 89 -191 217 -313 345 -47 50 -96 103 -107 117 -11 15 -101 102 -198 194 -252 238 -260 245 -266 245 -3 0 -17 10 -30 23 -35 32 -122 73 -192 91 -85 23 -274 21 -343 -3z"/>
 <path d="M8821 10935 c-40 -14 -93 -39 -116 -55 -39 -27 -115 -118 -115 -139 0 -5 -12 -34 -26 -66 -37 -79 -31 -174 16 -257 17 -32 36 -58 41 -58 5 0 9 -7 9 -15 0 -9 101 -116 224 -238 123 -122 238 -242 255 -267 18 -25 42 -61 56 -80 30 -45 133 -178 206 -266 32 -38 76 -105 98 -149 23 -44 45 -87 50 -95 5 -8 25 -47 45 -87 19 -40 40 -80 45 -90 17 -31 97 -206 120 -263 22 -53 53 -122 92 -205 19 -42 39 -128 39 -171 0 -14 11 -50 25 -80 56 -121 70 -297 70 -839 -1 -503 -15 -673 -64 -783 -16 -37 -35 -96 -42 -132 -6 -36 -21 -85 -31 -110 -34 -78 -69 -154 -79 -170 -5 -8 -12 -23 -16 -34 -3 -10 -17 -39 -30 -64 -13 -25 -37 -83 -54 -130 -16 -47 -35 -93 -42 -101 -20 -23 -67 -111 -67 -125 0 -19 -61 -129 -94 -171 -18 -22 -43 -58 -57 -80 -13 -22 -28 -47 -34 -56 -5 -9 -19 -32 -29 -50 -58 -104 -338 -420 -476 -538 -209 -179 -287 -321 -260 -472 39 -213 204 -329 471 -329 117 0 199 20 264 64 111 76 413 391 676 706 69 83 179 230 179 239 0 4 11 18 25 31 14 13 25 27 25 32 0 4 20 37 45 74 25 36 45 67 45 70 0 3 8 17 18 32 102 150 222 383 268 522 19 57 50 127 69 155 45 69 88 191 125 355 38 171 52 247 59 316 26 246 84 617 110 704 15 48 14 113 -4 184 -44 185 -57 249 -65 321 -5 44 -14 116 -19 160 -6 44 -15 125 -21 180 -10 101 -37 229 -67 319 -9 27 -24 86 -34 130 -27 126 -40 157 -265 621 -52 108 -170 323 -212 389 -15 23 -63 88 -107 145 -44 58 -87 122 -95 143 -24 60 -226 279 -549 595 -263 258 -321 291 -516 299 -99 4 -117 2 -184 -21z"/>
 </g>

</svg>