<svg width="130" height="51" viewBox="0 0 130 51" fill="none" xmlns="http://www.w3.org/2000/svg">
<path d="M129.825 37.6487C129.825 44.7401 124.076 50.4897 116.984 50.4897H66.1642C59.0725 50.4897 53.3226 44.7401 53.3226 37.6487V12.841C53.3226 5.74955 59.0725 0 66.1642 0H116.983C124.074 0 129.824 5.74955 129.824 12.841V37.6487H129.825Z" fill="#EC2027"/>
<path d="M103.176 2.7041C103.176 2.7041 126.533 -0.509356 127.177 9.77413V18.1325L103.176 2.7041Z" fill="url(#paint0_linear)"/>
<path d="M66.0828 40.2693V13.4627H60.7803V8.16043H75.9794V13.4627H70.679V40.2693H66.0828V40.2693ZM90.3512 16.1561V40.2693H86.1392V37.8734C85.251 39.8991 83.9529 40.9113 82.2396 40.9113C79.4808 40.9113 78.1004 38.9724 78.1004 35.0965V16.1561H82.2482V31.912C82.2482 33.2046 82.322 34.1281 82.4708 34.6845C82.7373 35.6433 83.2702 36.1238 84.0674 36.1238C84.93 36.1238 85.5046 35.6037 85.7925 34.5604C85.9498 33.9612 86.0311 32.9628 86.0311 31.5588V16.1561H90.3512ZM94.056 40.2693V8.16043H98.3526V18.1967C99.0718 16.4075 100.287 15.514 101.996 15.514C104.179 15.514 105.609 17.0699 106.282 20.1807C106.627 21.7505 106.797 24.4653 106.797 28.3272C106.797 32.0768 106.61 34.7573 106.236 36.3689C105.531 39.3961 104.087 40.9103 101.908 40.9103C100.089 40.9103 98.8342 39.8562 98.1397 37.746V40.2672L94.056 40.2693V40.2693ZM100.47 20.1978C99.2965 20.1978 98.5752 21.4348 98.3066 23.9078C98.252 24.4085 98.2264 26.1795 98.2264 29.2239C98.2264 31.5717 98.2745 33.0366 98.3719 33.6209C98.6512 35.4122 99.3511 36.31 100.473 36.31C101.518 36.31 102.152 35.2121 102.377 33.0163C102.432 32.5572 102.459 30.9821 102.459 28.2855C102.459 25.4936 102.436 23.9003 102.393 23.5129C102.167 21.3021 101.527 20.1978 100.47 20.1978V20.1978ZM118.198 31.9954H122.237C122.237 32.1067 122.242 32.2629 122.253 32.4641C122.266 32.6653 122.27 32.8226 122.27 32.9328C122.27 35.7118 121.757 37.7343 120.731 39.0066C119.705 40.2757 118.114 40.9113 115.953 40.9113C113.719 40.9113 112.109 40.1398 111.127 38.5989C110.346 37.3747 109.849 35.5909 109.633 33.2453C109.537 32.2169 109.488 30.279 109.488 27.4305C109.488 25.1383 109.537 23.5075 109.633 22.5359C109.827 20.5627 110.247 19.0635 110.901 18.0362C111.971 16.3562 113.69 15.5151 116.064 15.5151C118.352 15.5151 120.023 16.4247 121.081 18.2417C121.937 19.713 122.363 22.6814 122.363 27.1512V28.9821H113.929C113.898 29.2475 113.881 29.7622 113.881 30.5251C113.881 32.3197 113.955 33.5995 114.106 34.3635C114.416 35.9355 115.058 36.7209 116.03 36.7209C117.476 36.7209 118.198 35.1457 118.198 31.9954V31.9954ZM113.894 25.1555H118.054V24.1367C118.054 22.7499 117.957 21.7654 117.764 21.1833C117.465 20.2545 116.861 19.7901 115.953 19.7901C115.194 19.7901 114.653 20.109 114.333 20.7467C113.949 21.5375 113.787 22.6675 113.852 24.1367L113.875 24.4695C113.888 24.705 113.894 24.934 113.894 25.1555V25.1555Z" fill="black"/>
<path d="M6.5139 40.4512V26.7606L0 8.16043H5.12808L8.88531 20.308L12.5933 8.16043H17.5759L11.1786 26.7595V40.4512H6.5139ZM19.1725 28.3379C19.1725 24.1614 19.4893 21.2004 20.1238 19.4519C21.0688 16.8548 22.9383 15.5547 25.7324 15.5547C28.5244 15.5547 30.4014 16.8538 31.357 19.4519C31.9916 21.1844 32.3084 24.1464 32.3084 28.3379C32.3084 32.5273 31.9916 35.4892 31.357 37.2206C30.4014 39.8049 28.5255 41.0975 25.7324 41.0975C22.9383 41.0975 21.0688 39.7985 20.1238 37.2003C19.4893 35.4689 19.1725 32.5134 19.1725 28.3379V28.3379ZM23.6018 28.6514C23.6018 31.6541 23.6178 33.286 23.6499 33.5513C23.8736 35.715 24.5574 36.7969 25.7003 36.7969C26.8443 36.7969 27.5431 35.8691 27.7988 34.0125C27.8523 33.607 27.8791 32.0928 27.8791 29.4679V27.1019C27.8791 24.644 27.847 23.164 27.7839 22.6622C27.5153 20.8195 26.8314 19.8982 25.7324 19.8982C24.6633 19.8982 23.9956 20.7093 23.7281 22.3283C23.6435 22.8441 23.6007 24.2052 23.6007 26.4107L23.6018 28.6514V28.6514ZM47.7943 16.2021V40.4512H43.5587V38.0414C42.6651 40.0788 41.3574 41.0965 39.6377 41.0965C36.8618 41.0965 35.4738 39.1479 35.4738 35.2506V16.2021H39.6452V32.0468C39.6452 33.348 39.7201 34.2758 39.8689 34.8333C40.1364 35.7985 40.6725 36.2822 41.4741 36.2822C42.3409 36.2822 42.9198 35.7578 43.2087 34.7102C43.3671 34.1078 43.4495 33.103 43.4495 31.6926V16.2021H47.7943V16.2021Z" fill="white"/>
<defs>
<linearGradient id="paint0_linear" x1="119.817" y1="2.382" x2="114.837" y2="11.0071" gradientUnits="userSpaceOnUse">
<stop stop-color="white"/>
<stop offset="0.093" stop-color="#FEF5F5"/>
<stop offset="0.252" stop-color="#FCDADB"/>
<stop offset="0.457" stop-color="#F9AEB1"/>
<stop offset="0.7" stop-color="#F47176"/>
<stop offset="0.973" stop-color="#EE242C"/>
<stop offset="1" stop-color="#ED1C24"/>
</linearGradient>
</defs>
</svg>
