<?xml version="1.0" standalone="no"?>
<!DOCTYPE svg PUBLIC "-//W3C//DTD SVG 1.1//EN" "http://www.w3.org/Graphics/SVG/1.1/DTD/svg11.dtd" >
<svg xmlns="http://www.w3.org/2000/svg" xmlns:xlink="http://www.w3.org/1999/xlink" version="1.1">
<metadata>
Created by FontForge 20170731 at Mon Apr  7 20:55:42 2014
 By ,,,
Copyright (c) 2013 by Anton Koovit.
</metadata>
<defs>
<font id="ArvoBold" horiz-adv-x="1386" >
  <font-face 
    font-family="ArvoBold"
    font-weight="700"
    font-stretch="normal"
    units-per-em="2048"
    panose-1="2 6 9 3 4 2 2 2 3 4"
    ascent="1638"
    descent="-410"
    x-height="1036"
    cap-height="1516"
    bbox="-61 -512 2583 1999"
    underline-thickness="50"
    underline-position="-150"
    unicode-range="U+000D-25FC"
  />
<missing-glyph horiz-adv-x="748" 
d="M68 0v1365h544v-1365h-544zM136 68h408v1229h-408v-1229z" />
    <glyph glyph-name=".notdef" horiz-adv-x="748" 
d="M68 0v1365h544v-1365h-544zM136 68h408v1229h-408v-1229z" />
    <glyph glyph-name="glyph1" horiz-adv-x="2048" 
 />
    <glyph glyph-name="glyph1" horiz-adv-x="2048" 
 />
    <glyph glyph-name="uni000D" unicode="&#xd;" horiz-adv-x="0" 
 />
    <glyph glyph-name="space" unicode=" " horiz-adv-x="410" 
 />
    <glyph glyph-name="exclam" unicode="!" horiz-adv-x="696" 
d="M139 145q0 37 13.5 69.5t37.5 57t56.5 38.5t70.5 14q36 0 68.5 -14t56.5 -38.5t38 -57t14 -69.5t-14 -69.5t-38 -56.5t-56.5 -38t-68.5 -14q-38 0 -70.5 14t-56.5 38t-37.5 56.5t-13.5 69.5zM139 1577h369l-41 -1067h-287z" />
    <glyph glyph-name="quotedbl" unicode="&#x22;" horiz-adv-x="651" 
d="M41 1577h266l-18 -518h-207zM375 1577h260l-47 -518h-199z" />
    <glyph glyph-name="numbersign" unicode="#" horiz-adv-x="1538" 
d="M8 281l64 280h149l70 354h-189l64 283h181l63 318h331l-62 -318h326l62 318h332l-62 -318h160l-63 -283h-152l-69 -354h188l-64 -280h-179l-54 -281h-334l55 281h-322l-54 -281h-338l55 281h-158zM557 561h323l69 354h-324z" />
    <glyph glyph-name="dollar" unicode="$" horiz-adv-x="1245" 
d="M102 240v301h342q0 -36 12 -65.5t35 -51t56.5 -33.5t77.5 -12q52 0 79 21t27 55q0 16 -10 29.5t-26 24.5t-36.5 19.5t-40.5 14.5l-186 57q-56 17 -105.5 43.5t-86.5 65.5t-58.5 92.5t-21.5 124.5q0 70 22 125.5t62 96.5t95.5 67.5t121.5 39.5v324h332v-341q42 -14 77 -32
t62 -39h180v-301h-342q-1 37 -12 63.5t-32 45.5t-51 30t-69 11q-49 0 -75.5 -18t-26.5 -50q0 -18 11 -31.5t30 -25t45 -21t55 -18.5l178 -57q134 -42 198 -117.5t64 -196.5q0 -64 -20.5 -119t-58.5 -100t-92 -77.5t-121 -51.5v-321h-332v322q-54 16 -100.5 42t-82.5 64h-176
z" />
    <glyph glyph-name="percent" unicode="%" horiz-adv-x="1833" 
d="M211 1167q0 75 28 142t78.5 117.5t120 80t152.5 29.5t152.5 -29.5t120 -80t78.5 -117.5t28 -142q0 -74 -27.5 -140.5t-77 -117t-119.5 -80.5t-155 -30q-86 0 -155.5 29.5t-119.5 80t-77 117.5t-27 141zM345 0l1025 1540h266l-1025 -1540h-266zM451 1167q0 -28 10.5 -53.5
t29.5 -44.5t44.5 -30t54.5 -11t54.5 11t44 29.5t29.5 44t11 54.5q0 31 -11 56.5t-29.5 43.5t-44 28t-54.5 10t-54.5 -10t-44.5 -28t-29.5 -43.5t-10.5 -56.5zM1024 379q0 75 28 142t78.5 117.5t120 80t152.5 29.5t152.5 -29.5t120 -80t78.5 -117.5t28 -142q0 -74 -27.5 -141
t-77 -117.5t-119.5 -80.5t-155 -30t-155 29.5t-119.5 80t-77 117.5t-27.5 142zM1264 379q0 -29 10.5 -54t29.5 -44t44.5 -30t54.5 -11t54.5 10.5t44 29.5t29.5 44.5t11 54.5q0 31 -11 56t-29.5 43t-44 28t-54.5 10t-54.5 -10t-44.5 -28t-29.5 -43t-10.5 -56z" />
    <glyph glyph-name="ampersand" unicode="&#x26;" horiz-adv-x="1337" 
d="M90 455q0 127 59 225t164 172q1 0 3 2l-19 20q-62 66 -95.5 143t-33.5 173q0 82 33 156t91.5 130.5t137 89.5t170.5 33q97 0 176 -34t135 -90.5t86.5 -130t30.5 -152.5q0 -56 -14.5 -108t-40 -97t-59.5 -82.5t-72 -64.5q-17 -12 -33 -23.5t-33 -22.5l164 -162
q14 45 23.5 86.5t15.5 78.5h299q-7 -97 -33.5 -197.5t-72.5 -195.5l255 -250l-231 -203l-201 206q-82 -78 -185.5 -124.5t-231.5 -46.5q-102 0 -191 36t-155 99t-104 149t-38 185zM406 461q0 -33 13 -63.5t36.5 -54.5t56.5 -38t74 -14q63 0 112.5 21.5t89.5 57.5l-262 268
q-27 -17 -49.5 -35t-38 -39t-24 -46.5t-8.5 -56.5zM457 1192q0 -40 14.5 -77.5t40.5 -61.5l56 -55q31 17 58 33t48 32q32 23 45.5 54.5t13.5 74.5q0 27 -10.5 51t-29 42.5t-42.5 29t-51 10.5q-32 0 -58 -10t-45 -28t-29.5 -42.5t-10.5 -52.5z" />
    <glyph glyph-name="quotesingle" unicode="'" horiz-adv-x="340" 
d="M37 1059v518l287 16l-68 -534h-219z" />
    <glyph glyph-name="parenleft" unicode="(" horiz-adv-x="721" 
d="M109 647q0 308 103 594t302 528l246 -172q-77 -101 -137.5 -214t-102.5 -234.5t-64 -248t-22 -253.5q0 -128 22 -255t64 -248.5t102 -235.5t136 -215l-248 -160q-98 120 -172.5 252t-125.5 273t-77 289t-26 300z" />
    <glyph glyph-name="parenright" unicode=")" horiz-adv-x="721" 
d="M6 -295q77 100 137.5 213.5t102.5 235t64 248t22 253.5t-22 254.5t-64 249t-102 235.5t-136 216l248 159q196 -241 298.5 -524.5t102.5 -589.5q0 -307 -103 -593t-302 -529z" />
    <glyph glyph-name="asterisk" unicode="*" horiz-adv-x="1008" 
d="M61 1204l78 238l240 -78v252h250v-252l239 78l78 -238l-241 -77l149 -205l-203 -148l-148 206l-147 -206l-202 148l148 205z" />
    <glyph glyph-name="plus" unicode="+" horiz-adv-x="1229" 
d="M102 436v297h363v363h297v-363h364v-297h-364v-364h-297v364h-363z" />
    <glyph glyph-name="comma" unicode="," horiz-adv-x="532" 
d="M20 -287l185 570l305 -107l-285 -541z" />
    <glyph glyph-name="hyphen" unicode="-" horiz-adv-x="770" 
d="M61 449v274h627v-274h-627z" />
    <glyph glyph-name="period" unicode="." horiz-adv-x="529" 
d="M70 162q0 40 14.5 75t41 62t62.5 42.5t77 15.5q39 0 74.5 -15.5t62 -42t41.5 -62.5t15 -75q0 -40 -15.5 -76t-41.5 -62t-61 -41.5t-75 -15.5q-42 0 -77.5 15.5t-62 41.5t-41 61.5t-14.5 76.5z" />
    <glyph glyph-name="slash" unicode="/" horiz-adv-x="807" 
d="M49 0l584 1556h256l-578 -1556h-262z" />
    <glyph glyph-name="zero" unicode="0" horiz-adv-x="1296" 
d="M82 754q0 160 31 301.5t101 248t183 168.5t277 62q162 0 274.5 -61t182.5 -166t101.5 -245.5t31.5 -299.5q0 -161 -32.5 -302.5t-103 -246.5t-183.5 -166t-273 -61t-272 59t-182.5 162.5t-103 244t-32.5 302.5zM406 762q0 -101 8.5 -187t36 -148.5t80 -98t141.5 -35.5
t141.5 35.5t80.5 98t36 148.5t8 187q0 99 -8 184.5t-35.5 149t-80 99.5t-140.5 36q-89 0 -142 -36t-81 -99.5t-36.5 -149t-8.5 -184.5z" />
    <glyph glyph-name="one" unicode="1" horiz-adv-x="815" 
d="M41 926v348l418 246l145 -2v-1244h160v-274h-649v274h159v791z" />
    <glyph glyph-name="two" unicode="2" horiz-adv-x="1178" 
d="M119 1044q0 118 39 210.5t107.5 156t160.5 96.5t197 33q99 0 188.5 -30t158 -88t108.5 -143t40 -196q0 -89 -36.5 -164.5t-98.5 -144.5l-432 -467h565v-307h-989v260l524 557q68 66 105 132t37 134q0 29 -12 57.5t-34.5 51t-55 36t-73.5 13.5q-49 0 -85.5 -15.5
t-61 -42.5t-37.5 -63t-14 -76h-301z" />
    <glyph glyph-name="three" unicode="3" horiz-adv-x="1087" 
d="M16 487h314q6 -105 60.5 -154.5t150.5 -49.5q43 0 80.5 14.5t65.5 39t44.5 57.5t16.5 71q0 40 -14.5 74.5t-41.5 59t-66 38.5t-87 14h-140v273h142q44 0 78.5 12t58.5 33t36.5 50t12.5 64q0 30 -13.5 60t-39 54t-61 39t-78.5 15q-37 0 -70.5 -12.5t-59 -33.5t-40.5 -48.5
t-15 -93.5l-311 2q1 97 37 185t100.5 155t155.5 106t203 39q106 0 198 -36.5t160 -98.5t106.5 -143t38.5 -170q0 -97 -40 -176.5t-109 -128.5q36 -20 67 -53t54.5 -76t37 -94t13.5 -107q0 -98 -40 -186t-110.5 -154.5t-166.5 -105.5t-207 -39q-105 0 -195.5 33t-158.5 91.5
t-109.5 138t-49 132.5t-8.5 110z" />
    <glyph glyph-name="four" unicode="4" horiz-adv-x="1231" 
d="M10 414v256l539 846h334l-531 -848h320v293l313 4v-297h211v-254h-211v-140h193v-274h-650v274h144v140h-662z" />
    <glyph glyph-name="five" unicode="5" horiz-adv-x="1206" 
d="M111 377l309 84q6 -47 25 -84t47.5 -63t66 -40t80.5 -14q48 0 88 18t68 49.5t43.5 73.5t15.5 91q0 41 -16 80t-46 69t-72 48t-93 18q-65 0 -112.5 -12.5t-96.5 -35.5l-271 50v807h963v-306h-674v-284q48 18 103.5 30.5t119.5 12.5q102 0 193.5 -31.5t161 -93
t110.5 -151.5t41 -208q0 -127 -45 -223.5t-119 -161.5t-168.5 -98t-193.5 -33q-98 0 -185.5 25.5t-157.5 76.5t-118.5 127.5t-66.5 178.5z" />
    <glyph glyph-name="six" unicode="6" horiz-adv-x="1163" 
d="M66 485q0 50 10 95.5t27 89t39 85.5t46 85l375 678h350l-309 -541q27 2 52.5 -0.5t50.5 -7.5q85 -16 159 -58.5t128.5 -105t86 -141.5t31.5 -168q0 -109 -41.5 -202t-113.5 -161t-167.5 -106.5t-203.5 -38.5q-106 0 -200.5 38.5t-165.5 105t-112.5 157.5t-41.5 196z
M360 489q0 -35 13.5 -71.5t41.5 -67t71 -50t102 -19.5q40 0 81 14t73 40t52.5 64.5t20.5 87.5q0 47 -18.5 85t-50.5 65t-74 42t-90 15q-61 0 -110.5 -22.5t-81.5 -64.5q-13 -25 -21.5 -54t-8.5 -64z" />
    <glyph glyph-name="seven" unicode="7" horiz-adv-x="1190" 
d="M41 1032v484h1108v-226q-118 -242 -240.5 -499.5t-237.5 -516.5h99v-274h-541v274h106q51 118 105 240t107.5 241t105 232.5t98.5 216.5h-423v-172h-287z" />
    <glyph glyph-name="eight" unicode="8" horiz-adv-x="1180" 
d="M113 457q0 106 50 193.5t135 147.5q-69 58 -108.5 134t-39.5 160q0 93 38.5 175t105 143.5t155.5 97.5t190 36q102 0 192 -36t157 -97t106 -142t39 -171q0 -88 -40.5 -166t-109.5 -137q84 -60 133 -145.5t49 -188.5q0 -98 -40.5 -186t-111 -155.5t-167 -107t-207.5 -39.5
q-74 0 -142 18.5t-126.5 51.5t-106 79t-81 99.5t-52 113.5t-18.5 122zM403 465q0 -41 18 -78t50 -64.5t75 -44t93 -16.5q49 0 91.5 16.5t74 44t49.5 64.5t18 78q0 40 -18 75.5t-49.5 62.5t-74 43t-91.5 16q-50 0 -93 -16t-75 -43t-50 -62.5t-18 -75.5zM440 1081
q0 -34 15 -64.5t42 -53.5t63.5 -36.5t78.5 -13.5t78.5 13.5t63.5 36.5t43 53.5t16 64.5q0 35 -16 66.5t-43 55.5t-63.5 38t-78.5 14t-78.5 -14t-63.5 -38t-42 -55.5t-15 -66.5z" />
    <glyph glyph-name="nine" unicode="9" horiz-adv-x="1151" 
d="M106 1020q0 109 41.5 202t112.5 161t167 106.5t204 38.5q106 0 201 -38.5t166.5 -105.5t113 -158t41.5 -196q0 -50 -10 -95.5t-27.5 -88.5t-39.5 -85t-46 -85l-375 -678h-350l307 540q-27 -2 -52 1t-48 8q-85 16 -159 58.5t-129 105t-86.5 141.5t-31.5 168zM403 1028
q0 -47 18.5 -85t50 -65t74.5 -42t91 -15q58 0 106 20.5t80 61.5q14 26 23.5 56.5t9.5 66.5q0 34 -13.5 71t-41 68t-70 50.5t-100.5 19.5q-42 0 -82.5 -14t-73 -40.5t-52.5 -65t-20 -87.5z" />
    <glyph glyph-name="colon" unicode=":" horiz-adv-x="539" 
d="M72 145q0 37 13.5 69.5t37.5 57t56.5 38.5t70.5 14q36 0 68 -14t56 -38.5t38 -57t14 -69.5t-14 -69.5t-38 -56.5t-56 -38t-68 -14q-38 0 -70.5 14t-56.5 38t-37.5 56.5t-13.5 69.5zM72 907q0 37 13.5 69.5t37.5 56.5t56.5 38t70.5 14q36 0 68 -14t56 -38t38 -56.5
t14 -69.5t-14 -69.5t-38 -56.5t-56 -38t-68 -14q-38 0 -70.5 14t-56.5 38t-37.5 56.5t-13.5 69.5z" />
    <glyph glyph-name="semicolon" unicode=";" horiz-adv-x="539" 
d="M-61 -287l184 570l305 -107l-285 -541zM72 907q0 37 13.5 69.5t37.5 56.5t56.5 38t70.5 14q36 0 68 -14t56 -38t38 -56.5t14 -69.5t-14 -69.5t-38 -56.5t-56 -38t-68 -14q-38 0 -70.5 14t-56.5 38t-37.5 56.5t-13.5 69.5z" />
    <glyph glyph-name="less" unicode="&#x3c;" horiz-adv-x="868" 
d="M31 451v223l755 274v-256l-448 -134l448 -144v-250z" />
    <glyph glyph-name="equal" unicode="=" horiz-adv-x="995" 
d="M61 281v286h873v-286h-873zM61 711v286h873v-286h-873z" />
    <glyph glyph-name="greater" unicode="&#x3e;" horiz-adv-x="827" 
d="M41 164v250l448 144l-448 134v256l756 -274v-223z" />
    <glyph glyph-name="question" unicode="?" horiz-adv-x="1192" 
d="M90 1118q2 110 38.5 191.5t100 135.5t150 80.5t188.5 26.5q95 0 178 -28t144.5 -83t97 -135t35.5 -184q0 -109 -50 -200t-153 -172q-53 -38 -88 -71t-56 -72t-29.5 -90t-8.5 -126h-313q0 70 2 123t8.5 94.5t19 74t33 60.5t50.5 54.5t73 56.5q46 38 76 69.5t47 62.5t24 64
t7 74q0 59 -29.5 96t-79.5 37q-31 0 -57.5 -7t-46.5 -26t-31.5 -52t-11.5 -85zM301 145q0 37 13.5 69.5t37.5 57t56.5 38.5t70.5 14q36 0 68 -14t56 -38.5t38 -57t14 -69.5t-14 -69.5t-38 -56.5t-56 -38t-68 -14q-38 0 -70.5 14t-56.5 38t-37.5 56.5t-13.5 69.5z" />
    <glyph glyph-name="at" unicode="@" horiz-adv-x="2267" 
d="M188 494q0 132 34 254t96.5 228t149.5 193t193.5 149t229 96t254.5 34q133 0 256 -33t229.5 -92.5t193.5 -143t149 -184t96 -215t34 -237.5q0 -102 -30 -202t-88.5 -180t-145 -129.5t-199.5 -49.5q-80 0 -140 28t-101 79q-57 -49 -129 -77t-140 -28q-110 0 -203 40
t-160.5 108t-105.5 157.5t-38 189.5q0 97 36 186t100.5 156.5t154 107.5t196.5 40q59 0 111 -12t100 -32v31h287v-647q0 -43 16.5 -70.5t50.5 -27.5q49 0 81 30t50.5 78t25.5 106.5t7 115.5q0 86 -24.5 167t-69.5 152.5t-108 131t-140 102.5t-166 66.5t-186 23.5
q-96 0 -184 -24.5t-165 -69.5t-139.5 -108.5t-107.5 -140t-69.5 -164.5t-24.5 -183q0 -144 54 -270t147.5 -220t219 -148.5t269.5 -54.5q99 0 197 31.5t192 87.5l137 -227q-124 -75 -258 -115.5t-268 -40.5q-132 0 -254.5 34t-229 96t-193.5 149.5t-149.5 193.5t-96.5 228.5
t-34 255.5zM926 479q0 -45 16 -82.5t44 -64.5t65 -41.5t79 -14.5q60 0 110.5 31.5t80.5 88.5v159q-13 29 -32.5 53t-44 41.5t-53 27t-58.5 9.5q-42 0 -80 -16t-66 -44t-44.5 -66t-16.5 -81z" />
    <glyph glyph-name="A" unicode="A" horiz-adv-x="1491" 
d="M27 0v274h113l413 1242h401l404 -1242h110v-274h-575v274h151l-68 218h-466l-68 -218h160v-274h-575zM589 748h306l-154 493z" />
    <glyph glyph-name="B" unicode="B" 
d="M113 0v274h155v967h-155v277l739 -2q103 0 188.5 -36.5t147.5 -99t96.5 -146t34.5 -177.5q0 -110 -38.5 -182t-109.5 -116q75 -48 118.5 -118.5t43.5 -171.5q0 -103 -35.5 -189t-97 -148.5t-145.5 -97t-181 -34.5h-761zM600 274h252q29 0 54.5 15t44 39.5t29.5 57
t11 67.5q0 37 -11 68.5t-30 55t-44.5 37t-53.5 13.5h-252v-353zM600 901h238q28 0 53 14t43.5 37.5t29.5 53t11 61.5q0 31 -11 62t-29.5 56t-43.5 40.5t-53 15.5h-238v-340z" />
    <glyph glyph-name="C" unicode="C" horiz-adv-x="1554" 
d="M66 760q0 163 57 305.5t156 249t232.5 168t287.5 61.5q123 0 207 -30.5t185 -120.5h224v-338h-309q-56 80 -101 113.5t-97 48t-109 14.5q-84 0 -156 -37.5t-124.5 -102t-82.5 -150t-30 -181.5q0 -97 29.5 -182.5t81.5 -149.5t124 -101.5t158 -37.5q60 0 112 19.5
t94.5 51.5t74.5 73.5t50 86.5l322 -90q-31 -98 -91 -181.5t-144.5 -144.5t-190 -96t-227.5 -35q-103 0 -197 28t-175.5 79t-148 123t-113.5 159.5t-73 188t-26 209.5z" />
    <glyph glyph-name="D" unicode="D" horiz-adv-x="1468" 
d="M82 0v274h121v967h-121v275h582q104 0 199.5 -27t178 -76t150 -117.5t115.5 -152.5t74 -181t26 -202t-26 -202t-74 -181.5t-115.5 -154t-150 -119t-178 -76.5t-199.5 -27h-582zM535 274h127q81 0 153 38t125 103.5t84 154t31 190.5q0 101 -31 189t-84 153t-125 102
t-153 37h-127v-967z" />
    <glyph glyph-name="E" unicode="E" horiz-adv-x="1380" 
d="M113 0v274h159v940h-159v302h1206v-517h-326v215h-389v-299h301v-290h-301v-351h389v269h326v-543h-1206z" />
    <glyph glyph-name="F" unicode="F" horiz-adv-x="1286" 
d="M113 0v274h157v938h-157v304h1173v-517h-325v213h-359v-319h311v-291h-311v-328h160v-274h-649z" />
    <glyph glyph-name="G" unicode="G" horiz-adv-x="1636" 
d="M66 760q0 107 26 207t73 187t113.5 158.5t148 122.5t175.5 79t197 28q118 0 205 -31.5t187 -117.5h224v-338h-309q-46 71 -86.5 103t-88 53t-132.5 21q-84 0 -156 -38t-124.5 -102.5t-82.5 -152t-30 -179.5q0 -91 27 -173t82 -147.5t128 -100.5t156 -35q106 0 185 62
t114 169h-289v274h702v-809h-299v260q-62 -109 -121 -160t-133 -82q-73 -30 -192 -30h-8q-62 1 -124 14.5t-120 38t-113.5 59t-100.5 79.5q-111 112 -172.5 259.5t-61.5 321.5z" />
    <glyph glyph-name="H" unicode="H" horiz-adv-x="1890" 
d="M113 0v274h157v967h-157v275h649v-275h-160v-315h684v315h-158v275h650v-275h-160v-967h160v-274h-650v274h158v388h-684v-388h160v-274h-649z" />
    <glyph glyph-name="I" unicode="I" horiz-adv-x="874" 
d="M113 0v274h157v968h-157v274h649v-274h-160v-968h160v-274h-649z" />
    <glyph glyph-name="J" unicode="J" horiz-adv-x="686" 
d="M10 -223q59 90 92.5 148.5t67.5 129t53 150.5v1007h-141v304h573v-304h-106v-1040q-22 -81 -64 -148.5t-82.5 -122.5t-113.5 -139z" />
    <glyph glyph-name="K" unicode="K" horiz-adv-x="1655" 
d="M113 0v274h157v967h-157v275h649v-275h-160v-441l485 423v293h517v-295h-113l-505 -434l484 -490h123v-297h-503v297l-488 488v-511h160v-274h-649z" />
    <glyph glyph-name="L" unicode="L" horiz-adv-x="1346" 
d="M113 0v274h157v967h-157v275h649v-275h-160v-967h330q13 0 25.5 7.5t22 19.5t15.5 26t6 27v203h324v-557h-1212z" />
    <glyph glyph-name="M" unicode="M" horiz-adv-x="2345" 
d="M113 0v274h141v967h-141v275h624l447 -1094l415 1094h633v-275h-141v-967h139v-274h-567v274h104v872l-454 -1128h-281l-462 1098v-842h113v-274h-570z" />
    <glyph glyph-name="N" unicode="N" horiz-adv-x="1698" 
d="M113 0v274h125v967h-123v275h458l627 -993v718h-129v275h576v-275h-123v-1241h-332l-631 980v-706h127v-274h-575z" />
    <glyph glyph-name="O" unicode="O" horiz-adv-x="1620" 
d="M66 758q0 109 26 209.5t73 188t113.5 159t148 122.5t175.5 79t197 28t197.5 -28t176 -79t148 -122.5t114 -159t73.5 -188t26 -209.5q0 -108 -26 -208.5t-73.5 -188t-114 -159t-148 -122.5t-176 -79t-197.5 -28t-197 28t-175.5 79t-148 122.5t-113.5 159t-73 187.5
t-26 209zM406 758q0 -96 29.5 -181.5t81.5 -150t124 -102t158 -37.5q87 0 159.5 37.5t124.5 102t80.5 150t28.5 181.5q0 97 -29 183t-81.5 150.5t-124.5 102t-158 37.5t-158 -37.5t-124 -102t-81.5 -150.5t-29.5 -183z" />
    <glyph glyph-name="P" unicode="P" horiz-adv-x="1400" 
d="M113 0v274h157v967h-157v275h700q117 0 215 -36.5t169 -98.5t111 -143t40 -169q0 -106 -31.5 -198.5t-97.5 -160.5t-167 -107.5t-239 -39.5h-211v-289h139v-274h-628zM602 834h137q114 0 181 48t67 152q0 97 -63 152t-185 55h-137v-407z" />
    <glyph glyph-name="Q" unicode="Q" horiz-adv-x="1634" 
d="M66 758q0 109 26 209.5t73 188t113.5 159t148 122.5t175.5 79t197 28t197.5 -28t176 -79t148 -122.5t114 -159t73.5 -188t26 -209.5q0 -146 -46 -276t-127.5 -233t-193.5 -172t-243 -92q31 -13 61.5 -28.5t61.5 -29t61.5 -23t62.5 -10.5q31 0 60.5 8t53.5 25t41.5 44
t23.5 66l223 -111q-9 -73 -41.5 -132t-83.5 -101t-116 -65t-138 -23q-59 0 -118.5 22.5t-115 49t-104.5 49t-86 22.5q-16 0 -28.5 0.5t-24.5 0t-26.5 -3t-33.5 -9.5l2 252q-128 26 -236.5 95.5t-188 171.5t-124 230.5t-44.5 272.5zM406 758q0 -96 29.5 -181.5t81.5 -150
t124 -102t158 -37.5q87 0 159.5 37.5t124.5 102t80.5 150t28.5 181.5q0 97 -29 183t-81.5 150.5t-124.5 102t-158 37.5t-158 -37.5t-124 -102t-81.5 -150.5t-29.5 -183z" />
    <glyph glyph-name="R" unicode="R" horiz-adv-x="1530" 
d="M113 0v274h157v967h-157v275h802q117 0 209 -35t155 -93.5t96.5 -136t33.5 -161.5q0 -77 -16.5 -135t-48 -103t-77.5 -79.5t-105 -62.5q51 -26 90 -79.5t59 -138.5l51 -197h125l2 -295h-440l-60 360q-9 64 -27.5 110.5t-49.5 76t-75.5 43.5t-105.5 14h-129v-330h139v-274
h-628zM602 874h199q57 0 102.5 10.5t78 33t50 56.5t17.5 81q0 88 -63 137t-185 49h-199v-367z" />
    <glyph glyph-name="S" unicode="S" horiz-adv-x="1245" 
d="M41 250v301h362v-62q0 -45 14.5 -83t43.5 -66t73 -43.5t103 -15.5q90 0 137 41.5t47 115.5q0 38 -16.5 63.5t-42.5 43t-58 29.5t-63 22l-229 74q-65 20 -125.5 56t-107 90t-74 126.5t-27.5 165.5q0 108 40 192.5t112 142.5t171 88t217 30q93 0 172 -21.5t141.5 -57.5
t106 -82.5t66.5 -96.5h100v-302h-362v88q-5 35 -24.5 66t-50 53.5t-69 35.5t-80.5 13q-38 0 -71 -8t-57.5 -24.5t-39 -42.5t-14.5 -62q0 -45 19.5 -71.5t50 -43.5t67.5 -27t72 -22l275 -92q57 -20 107 -55t86.5 -85t57.5 -115t21 -146q0 -110 -40.5 -201t-113.5 -156
t-175 -101t-226 -36q-87 0 -164.5 19.5t-141.5 56.5t-112 88.5t-75 116.5h-103z" />
    <glyph glyph-name="T" unicode="T" horiz-adv-x="1419" 
d="M20 1055v461h1379v-461h-328v196h-209v-977h160v-274h-649v274h157v977h-184v-196h-326z" />
    <glyph glyph-name="U" unicode="U" horiz-adv-x="1561" 
d="M51 1241v275h608v-275h-139v-629q0 -86 19.5 -146t54.5 -98t83 -55.5t105 -17.5q59 0 107.5 15t83 51.5t53 97.5t18.5 153v629h-161v275h608v-275h-121v-590q0 -160 -46 -284.5t-126.5 -210.5t-189 -131t-232.5 -45q-123 0 -230 44.5t-186.5 129t-125.5 205.5t-46 274
v608h-137z" />
    <glyph glyph-name="V" unicode="V" horiz-adv-x="1530" 
d="M20 1241v275h650v-275h-162l264 -860l263 860h-175v275h649v-275h-135l-405 -1241h-410l-393 1241h-146z" />
    <glyph glyph-name="W" unicode="W" horiz-adv-x="2357" 
d="M20 1241v275h650v-275h-158l223 -817l269 1089h372l264 -1089l224 817h-176v275h649v-275h-137l-349 -1241h-432l-229 946l-234 -946h-428l-355 1241h-153z" />
    <glyph glyph-name="X" unicode="X" horiz-adv-x="1577" 
d="M53 0v274h81l449 480l-455 487h-71v275h643v-275h-158l249 -265l245 265h-158v275h643v-275h-65l-456 -487l454 -480h63v-274h-643v274h158l-240 258l-242 -258h146v-274h-643z" />
    <glyph glyph-name="Y" unicode="Y" horiz-adv-x="1536" 
d="M47 1241v275h649v-275h-127l203 -348l215 348h-145v275h649v-275h-112l-451 -612v-355h184v-274h-676v274h168v359l-424 608h-133z" />
    <glyph glyph-name="Z" unicode="Z" horiz-adv-x="1290" 
d="M61 0v313l737 906h-409v-240h-326v537h1151v-314l-755 -905h428v235h325v-532h-1151z" />
    <glyph glyph-name="bracketleft" unicode="[" horiz-adv-x="670" 
d="M82 -512v2124h547v-246h-223v-1630h223v-248h-547z" />
    <glyph glyph-name="backslash" unicode="\" horiz-adv-x="778" 
d="M6 1384h236l571 -1677h-242z" />
    <glyph glyph-name="bracketright" unicode="]" horiz-adv-x="670" 
d="M43 -264h223v1630h-223v246h547v-2124h-547v248z" />
    <glyph glyph-name="asciicircum" unicode="^" horiz-adv-x="1229" 
d="M52 723l416 790h303l404 -790h-296l-263 528l-274 -528h-290z" />
    <glyph glyph-name="underscore" unicode="_" horiz-adv-x="1024" 
d="M0 -90h1024v-256h-1024v256z" />
    <glyph glyph-name="grave" unicode="`" horiz-adv-x="774" 
d="M168 1464v25h326l196 -311h-229z" />
    <glyph glyph-name="a" unicode="a" horiz-adv-x="1280" 
d="M72 307q0 72 27.5 133t79.5 104.5t127.5 68t172.5 24.5q71 0 129.5 -7.5t108.5 -18.5v32q0 39 -15 67.5t-42 47t-65 27t-83 8.5q-94 0 -165.5 -18.5t-137.5 -53.5l-96 194q102 70 213.5 107t236.5 37q97 0 179.5 -21.5t141.5 -70t92.5 -126.5t33.5 -190v-377h139v-274
h-432v56q-35 -22 -64 -37.5t-58 -25t-60 -14t-68 -4.5q-93 0 -166.5 25.5t-124 70t-77.5 105t-27 131.5zM354 319q0 -46 33.5 -77t101.5 -31q71 0 129 23t99 56v132h-240q-23 0 -45 -7t-39.5 -20t-28 -32t-10.5 -44z" />
    <glyph glyph-name="b" unicode="b" horiz-adv-x="1305" 
d="M29 1282v274h452v-543q54 26 111 40t117 14q115 0 213 -43t169 -117t111.5 -173t40.5 -210q0 -112 -39.5 -211t-110.5 -172.5t-169 -116t-215 -42.5q-63 0 -120 12t-108 34v-28h-307v1282h-145zM481 365q32 -48 85.5 -77.5t119.5 -29.5q51 0 97 18.5t80.5 53t54.5 83
t20 109.5q0 62 -20 112t-54 85t-79.5 53.5t-96.5 18.5q-66 0 -118.5 -30t-88.5 -86v-310z" />
    <glyph glyph-name="c" unicode="c" horiz-adv-x="1180" 
d="M72 530q0 115 41.5 213.5t114.5 172.5q74 73 174 114q92 37 197 38q10 0 21 -1q12 1 25 1q71 0 138 -20q79 -23 150 -69h199v-301h-276q-43 54 -96 82q-46 24 -107 24q-9 0 -18 -1q-10 1 -19 1q-46 0 -86 -17q-48 -20 -82.5 -56t-53.5 -85.5t-19 -111.5q0 -55 20 -104
t54.5 -84.5t82 -55.5t103.5 -24q47 4 85.5 19.5t68.5 40t51.5 55t33.5 57.5l275 -76q-17 -60 -58.5 -125t-108 -118.5t-158 -88.5t-208.5 -35q-119 0 -219 43.5t-172 118.5t-112.5 176t-40.5 217z" />
    <glyph glyph-name="d" unicode="d" horiz-adv-x="1400" 
d="M72 526q0 114 39.5 212.5t110 171.5t169 115t216.5 42q65 0 122 -12.5t109 -35.5v263h-145v274h453v-1282h202v-274h-510v40q-54 -28 -110.5 -44t-114.5 -16q-119 0 -218.5 42.5t-171 116.5t-111.5 173.5t-40 213.5zM378 523q0 -61 20 -110.5t54.5 -84t80 -52.5t97.5 -20
q66 2 119.5 34t88.5 84v305q-34 53 -90 83q-54 29 -114 28h-4h-5q-49 0 -93 -18q-46 -19 -80 -54t-54 -84t-20 -111z" />
    <glyph glyph-name="e" unicode="e" horiz-adv-x="1186" 
d="M51 532q0 114 39.5 214t111.5 174.5t172 117.5t222 43t216.5 -40.5t159.5 -112t100 -168t38 -207.5q4 -25 4 -49v-10q0 -20 -2 -41h-763l3 -31q11 -45 37.5 -79t62.5 -57t80 -34.5t89 -11.5t85.5 5.5t78.5 15t74 22t73 26.5l110 -205q-57 -35 -104.5 -59.5t-95.5 -40.5
t-102 -23.5t-126 -7.5q-135 0 -240 44.5t-176.5 120.5t-109 178t-37.5 216zM358 664h433q-7 34 -20 64t-36 53t-58.5 36.5t-88.5 13.5q-56 0 -95.5 -13.5t-66.5 -37t-43 -53.5t-25 -63z" />
    <glyph glyph-name="f" unicode="f" horiz-adv-x="815" 
d="M76 774v262h157v172q0 91 32 160t85.5 116t123.5 71t147 24q57 0 102 -8.5t79 -21.5t57.5 -28t37.5 -28l-115 -211q-23 17 -52 27t-71 10q-27 0 -50.5 -9t-41 -26t-27.5 -42.5t-10 -59.5v-146h189v-262h-189v-500h191v-274h-643v274h155v500h-157z" />
    <glyph glyph-name="g" unicode="g" horiz-adv-x="1295" 
d="M72 535q0 109 39.5 205.5t110.5 169t170 114.5t215 43q71 -1 130.5 -15t111.5 -38v22h303v-993q0 -131 -45 -226.5t-120.5 -158t-175.5 -93t-210 -30.5q-136 0 -251.5 37t-205.5 100l125 222q69 -44 150 -69.5t180 -25.5q54 0 99.5 12t79 40.5t52.5 76.5t19 121v5
q-56 -32 -112 -46t-114 -14q-120 0 -221 41t-174.5 113.5t-114.5 171.5t-41 215zM378 534q0 -60 20 -109t54 -83t80.5 -52.5t100.5 -18.5q70 0 126.5 35.5t89.5 93.5l2 252q-34 63 -93 100t-128 38q-49 -1 -96 -19.5t-81.5 -52.5t-54.5 -80.5t-20 -103.5z" />
    <glyph glyph-name="h" unicode="h" 
d="M57 0v274h160v1008h-160v274h467v-616q59 54 129.5 84.5t155.5 30.5q187 0 286 -104.5t99 -305.5v-371h152v-274h-463v575q0 87 -43 137t-111 50q-45 0 -98 -25t-107 -73v-390h152v-274h-619z" />
    <glyph glyph-name="i" unicode="i" horiz-adv-x="790" 
d="M80 0v274h156v488h-156v274h465v-762h144v-274h-609zM220 1370q0 37 13.5 69.5t37.5 56.5t56.5 38t70.5 14q36 0 68 -14t56 -38t38 -56.5t14 -69.5t-14 -69.5t-38 -56.5t-56 -38t-68 -14q-38 0 -70.5 14t-56.5 38t-37.5 56.5t-13.5 69.5z" />
    <glyph glyph-name="j" unicode="j" horiz-adv-x="621" 
d="M51 762v274h455v-1054q0 -119 -29.5 -204t-86 -140t-139.5 -81t-190 -26l-4 227q72 3 107 57.5t35 145.5v801h-148zM182 1370q0 37 13.5 69.5t37.5 56.5t56.5 38t70.5 14q36 0 68.5 -14t57 -38t39 -56.5t14.5 -69.5t-14.5 -69.5t-39 -56.5t-57 -38t-68.5 -14
q-38 0 -70.5 14t-56.5 38t-37.5 56.5t-13.5 69.5z" />
    <glyph glyph-name="k" unicode="k" horiz-adv-x="1450" 
d="M57 0v274h160v1008h-160v274h467v-897h175l72 103v274h536v-274h-186l-193 -223l197 -238h172v-301h-281l-336 444h-156v-170h106v-274h-573z" />
    <glyph glyph-name="l" unicode="l" horiz-adv-x="780" 
d="M59 0v274h160v1008h-160v274h467v-1282h160v-274h-627z" />
    <glyph glyph-name="m" unicode="m" horiz-adv-x="2156" 
d="M80 0v274h154v488h-152v274h474v-90q64 51 144 81t165 30q118 0 202.5 -41.5t132.5 -126.5q33 37 74.5 67.5t88.5 53t98.5 35t105.5 12.5q190 0 292 -105t102 -307v-371h147v-274h-473v594q0 88 -45.5 138t-126.5 50q-56 0 -105.5 -26.5t-98.5 -91.5q1 -11 1 -22.5v-23.5
v-344h150v-274h-473v596q0 42 -13 76t-36 58t-54.5 37.5t-69.5 14.5h-4q-48 0 -100 -22q-54 -23 -102 -85v-401h166v-274h-644z" />
    <glyph glyph-name="n" unicode="n" horiz-adv-x="1460" 
d="M80 0v274h152v488h-150v274h472v-91q65 51 145.5 80.5t169.5 29.5q187 0 288 -104.5t101 -305.5v-371h147v-274h-473v596q0 87 -46 136.5t-122 49.5q-52 0 -105 -23t-103 -86v-399h168v-274h-644z" />
    <glyph glyph-name="o" unicode="o" horiz-adv-x="1245" 
d="M72 522q0 113 41 212t114 173t174 117t222 43t222.5 -43t174.5 -117t113.5 -173t40.5 -212t-39.5 -212.5t-112 -174t-174 -117.5t-225.5 -43q-125 0 -226.5 43t-173.5 117t-111.5 173.5t-39.5 213.5zM371 522q0 -59 20 -108.5t54.5 -85.5t80 -56t97.5 -20q53 0 98.5 19.5
t79 55.5t52.5 85.5t19 109.5q0 62 -19 112t-53 85q-32 35 -78 53q-43 18 -94 18h-5.5h-4.5q-48 0 -92 -18q-46 -18 -80.5 -53t-54.5 -85t-20 -112z" />
    <glyph glyph-name="p" unicode="p" horiz-adv-x="1368" 
d="M61 -197h170v959h-112v274h452v-15q48 21 98 33.5t103 12.5q114 0 212 -43t170 -117t112.5 -173t40.5 -210q0 -112 -39.5 -211t-110.5 -172.5t-169.5 -116t-215.5 -42.5q-66 0 -123 12.5t-110 35.5v-227h198v-274h-676v274zM539 373q32 -51 87 -83t124 -32q51 0 97 19.5
t80 55t54 84t20 105.5q0 63 -19.5 113t-53.5 84.5t-80 53t-98 18.5q-63 0 -118 -33t-93 -93v-292z" />
    <glyph glyph-name="q" unicode="q" horiz-adv-x="1333" 
d="M61 528q0 111 39.5 209t110 171.5t169 116t216.5 42.5q63 0 118.5 -12t106.5 -34v46h307v-1264h154v-274h-676v274h215v234q-53 -26 -107.5 -41.5t-111.5 -15.5q-119 0 -218.5 42.5t-171 117t-111.5 174.5t-40 214zM367 524q0 -62 20 -111.5t54.5 -84t80.5 -52.5t99 -18
q62 0 113.5 28.5t86.5 78.5v321q-35 49 -89 77t-114 28q-51 0 -97 -19t-80 -54t-54 -84t-20 -110z" />
    <glyph glyph-name="r" unicode="r" horiz-adv-x="1110" 
d="M72 0v274h155v488h-153v274h461v-73q44 35 99 54t120 19q66 0 136 -1t130 -1v-375h-281v107q-41 0 -75 -5.5t-59.5 -18.5t-43 -36t-24.5 -57v-375h211v-274h-676z" />
    <glyph glyph-name="s" unicode="s" horiz-adv-x="1102" 
d="M55 66v278h283v-6q1 -29 18 -50.5t44.5 -36.5t62.5 -22.5t74 -7.5q90 0 131 23.5t41 60.5q0 29 -20 49.5t-71 32.5l-192 41q-181 35 -273 116.5t-92 209.5q0 75 35 136.5t95 105t140.5 67.5t172.5 24q63 0 112 -7.5t88 -19.5t68.5 -28.5t52.5 -34.5h174v-278h-258
q0 24 -15.5 46t-45.5 38.5t-73.5 26.5t-98.5 10q-21 0 -45 -3.5t-44.5 -12.5t-34 -24.5t-13.5 -39.5q0 -12 3.5 -23t13.5 -21t27.5 -18.5t45.5 -13.5l188 -37q102 -20 171 -50t111 -70t60.5 -89t18.5 -106q0 -89 -41.5 -156t-109 -111.5t-152 -67t-170.5 -22.5
q-56 0 -101.5 7t-82 19t-65 28.5t-52.5 36.5h-181z" />
    <glyph glyph-name="t" unicode="t" horiz-adv-x="800" 
d="M10 774v262h150l2 248l311 148l-2 -396h207v-262h-209l-2 -438q0 -38 6 -61.5t17.5 -37.5t27.5 -19t37 -5q38 0 67 7.5t58 17.5l43 -193q-51 -32 -113.5 -51t-148.5 -19q-61 0 -116.5 21t-97.5 63.5t-67 106.5q-24 62 -24 142v7l3 459h-149z" />
    <glyph glyph-name="u" unicode="u" horiz-adv-x="1410" 
d="M60 762v274h458v-610q0 -104 53 -155.5t138 -51.5q60 0 109 37t71 100v406h-166v274h490v-762h125v-274h-439v88q-53 -48 -124 -74t-164 -26q-86 0 -162 27t-132.5 81.5t-89 136.5t-32.5 193v336h-135z" />
    <glyph glyph-name="v" unicode="v" horiz-adv-x="1257" 
d="M41 762v274h541v-274h-126l169 -445l163 445h-112v274h541v-274h-138l-309 -766h-305l-309 766h-115z" />
    <glyph glyph-name="w" unicode="w" horiz-adv-x="1898" 
d="M41 762v274h541v-274h-117l110 -369l213 643h293l215 -676l132 402h-111v274h541v-274h-139l-277 -766h-299l-217 661l-221 -661h-291l-257 766h-116z" />
    <glyph glyph-name="x" unicode="x" horiz-adv-x="1235" 
d="M61 0v274h103l257 252l-238 236h-122v274h488v-274h-47l121 -107l116 107h-55v274h487v-274h-114l-239 -237l253 -251h103v-274h-488v274h59l-129 123l-134 -123h67v-274h-488z" />
    <glyph glyph-name="y" unicode="y" horiz-adv-x="1241" 
d="M51 762v274h508v-274h-80l149 -388l153 388h-89v274h508v-274h-113l-401 -959h178v-274h-643v274h181l78 197l-324 762h-105z" />
    <glyph glyph-name="z" unicode="z" horiz-adv-x="1140" 
d="M61 614v422h908v-180l-451 -588h230v199h262v-467h-916v164l429 606h-201v-156h-261z" />
    <glyph glyph-name="braceleft" unicode="{" horiz-adv-x="897" 
d="M102 606v191q35 6 66.5 7t58 5t47.5 14t35.5 33.5t22.5 63t8 102.5v401q0 97 19 164t57 108t94 59t131 18q47 0 83 -1.5t61 -3.5q29 -2 51 -4v-307q-47 -2 -75.5 -9.5t-44.5 -24.5t-21 -46t-5 -73v-410q0 -33 -4.5 -60.5t-16.5 -50.5t-34 -42.5t-57 -35.5
q36 -15 58 -36.5t34 -47.5t16 -55.5t4 -60.5v-371q0 -51 5 -82.5t21 -48.5t44.5 -24t75.5 -9v-327q-22 -3 -51 -5q-25 -2 -61 -3t-83 -1q-75 0 -131 18t-94 59t-57 107.5t-19 164.5v475q-7 62 -28 90.5t-53 39.5t-72 11.5t-85 7.5z" />
    <glyph glyph-name="bar" unicode="|" horiz-adv-x="594" 
d="M123 -270v1999h252v-1999h-252z" />
    <glyph glyph-name="braceright" unicode="}" horiz-adv-x="897" 
d="M61 -31q47 2 75.5 9t44.5 24t21 48.5t5 82.5v371q0 31 4 60.5t16 55.5t34 47.5t58 36.5q-35 16 -57 35.5t-34 42.5t-16.5 50.5t-4.5 60.5v410q0 44 -5 73t-21 46t-44.5 24.5t-75.5 9.5v307q22 2 51 4q25 2 60.5 3.5t83.5 1.5q62 0 111.5 -12.5t86.5 -40t60.5 -71.5
t34.5 -108q5 -26 6.5 -55.5t1.5 -61.5v-321q0 -86 6 -140t18.5 -85.5t31.5 -45.5t45.5 -19.5t60.5 -7t76 -7.5v-191q-45 -7 -85 -7.5t-72 -11.5t-53 -39.5t-28 -90.5v-475q0 -32 -1.5 -61.5t-6.5 -55.5q-11 -64 -34.5 -108t-60.5 -71.5t-86.5 -40t-111.5 -12.5
q-48 0 -83.5 1t-60.5 3q-29 2 -51 5v327z" />
    <glyph glyph-name="asciitilde" unicode="~" horiz-adv-x="905" 
d="M-8 512q0 30 5 66t16.5 72.5t31.5 70.5t50 60.5t72 42.5t97 16q24 0 55.5 -11t66.5 -27t72 -35t71.5 -35t64 -26t51.5 -10q47 0 69.5 27.5t30.5 87.5l185 -41q0 -45 -12.5 -100.5t-45.5 -104.5t-90 -84t-147 -35q-55 0 -108 23.5t-101.5 50t-90.5 48.5t-75 22
q-19 0 -36 -5.5t-30 -19t-21 -35.5t-9 -55z" />
    <glyph glyph-name="uni00A0" unicode="&#xa0;" horiz-adv-x="410" 
 />
    <glyph glyph-name="cent" unicode="&#xa2;" horiz-adv-x="1245" 
d="M72 694q0 97 28 183t79.5 155t123 118.5t158.5 73.5v355h332v-361q35 -11 69.5 -26t66.5 -35h199v-301h-276q-43 50 -96 77.5t-125 27.5q-58 0 -105.5 -20t-82 -56t-53.5 -85.5t-19 -107.5q0 -59 20 -108t54.5 -84.5t82 -55.5t103.5 -20q47 0 85.5 15.5t68.5 40t51.5 55
t33.5 61.5l275 -80q-14 -48 -42.5 -100.5t-72.5 -100.5t-103.5 -87.5t-133.5 -62.5v-353h-332v348q-88 24 -159.5 74.5t-122.5 120.5t-79 156.5t-28 182.5z" />
    <glyph glyph-name="sterling" unicode="&#xa3;" horiz-adv-x="1065" 
d="M41 584v245h100q-9 43 -14.5 90.5t-5.5 104.5q0 100 34.5 180t94.5 136.5t140.5 87t172.5 30.5q209 0 326.5 -111t134.5 -329l-336 -12q-3 80 -35.5 119.5t-83.5 39.5q-46 0 -79 -33t-33 -106q0 -31 5.5 -65t16 -64.5t24.5 -67.5h269v-245h-173q7 -39 7.5 -81.5t-4 -83.5
t-14.5 -78.5t-23 -66.5h420v-274h-899v274h160q15 54 17.5 118t-8.5 100t-17 54.5t-14 37.5h-183z" />
    <glyph glyph-name="yen" unicode="&#xa5;" horiz-adv-x="1536" 
d="M47 1241v275h649v-275h-125l201 -307l214 307h-144v275h649v-275h-113l-246 -313h160v-258h-362l-2 -3v-57h364v-258h-364v-78h184v-274h-676v274h168v78h-360v258h360v60h-360v258h169l-232 313h-134z" />
    <glyph glyph-name="dieresis" unicode="&#xa8;" horiz-adv-x="940" 
d="M47 1343q0 37 13.5 69.5t37.5 57t56.5 38.5t70.5 14q36 0 68 -14t56 -38.5t38 -57t14 -69.5t-14 -69.5t-38 -56.5t-56 -38t-68 -14q-38 0 -70.5 14t-56.5 38t-37.5 56.5t-13.5 69.5zM526 1343q0 37 14 69.5t38 57t56.5 38.5t70.5 14q36 0 68 -14t56 -38.5t38 -57
t14 -69.5t-14 -69.5t-38 -56.5t-56 -38t-68 -14q-38 0 -70.5 14t-56.5 38t-38 56.5t-14 69.5z" />
    <glyph glyph-name="copyright" unicode="&#xa9;" horiz-adv-x="1919" 
d="M102 831q0 118 30.5 227.5t86 204.5t133.5 173t173 133.5t204.5 86t228.5 30.5q118 0 228 -30.5t205.5 -86t174 -133.5t134.5 -173t86.5 -204.5t30.5 -227.5q0 -119 -30.5 -228.5t-86.5 -204.5t-134.5 -173t-174 -133.5t-205.5 -86t-228 -30.5q-119 0 -228.5 30.5
t-204.5 86t-173 133.5t-133.5 173t-86 204.5t-30.5 228.5zM330 831q0 -88 22 -169t62.5 -151t97.5 -127.5t127 -98t150.5 -62.5t168.5 -22t169 22t150.5 62.5t126.5 98t97.5 127.5t62.5 151t22 169t-22 169t-62.5 150.5t-97.5 127t-126.5 98t-150.5 62.5t-169 22
q-87 0 -168 -22t-151 -62.5t-127 -98t-97.5 -127t-62.5 -150.5t-22 -169zM472 831q0 104 39 194.5t106.5 157.5t158 106t193.5 39q112 0 207.5 -43t164.5 -117l-193 -195q-32 42 -78.5 64.5t-100.5 22.5q-49 0 -90 -17.5t-71.5 -49t-48.5 -73.5t-18 -89t18 -89t48.5 -73
t71.5 -48.5t90 -17.5q53 0 99 20.5t81 62.5l190 -191q-70 -74 -164.5 -117.5t-205.5 -43.5q-103 0 -193.5 39t-158 106.5t-106.5 157.5t-39 194z" />
    <glyph glyph-name="guillemotleft" unicode="&#xab;" horiz-adv-x="1038" 
d="M82 593v74l260 369h223l-211 -406l213 -407h-229zM522 593v74l260 369h224l-211 -406l213 -407h-230z" />
    <glyph glyph-name="uni00AD" unicode="&#xad;" horiz-adv-x="770" 
d="M61 449v274h627v-274h-627z" />
    <glyph glyph-name="registered" unicode="&#xae;" horiz-adv-x="1919" 
d="M102 831q0 118 30.5 227.5t86 204.5t133.5 173t173 133.5t204.5 86t228.5 30.5q118 0 228 -30.5t205.5 -86t174 -133.5t134.5 -173t86.5 -204.5t30.5 -227.5q0 -119 -30.5 -228.5t-86.5 -204.5t-134.5 -173t-174 -133.5t-205.5 -86t-228 -30.5q-119 0 -228.5 30.5
t-204.5 86t-173 133.5t-133.5 173t-86 204.5t-30.5 228.5zM317 831q0 -90 22.5 -172.5t64 -154t99.5 -130t129.5 -100t153.5 -64t172 -22.5t172.5 22.5t153.5 64t129 100t99.5 130t64 154t22.5 172.5t-22.5 172.5t-64 153.5t-99.5 129.5t-129 100t-153.5 64t-172.5 22.5
q-89 0 -171.5 -22.5t-154 -64t-129.5 -100t-99.5 -129.5t-64 -153.5t-22.5 -172.5zM528 373v212h95v497h-91v211h532q79 0 138 -25t98.5 -64.5t59.5 -87.5t20 -93q0 -52 -17.5 -96t-55.5 -79t-86 -54q35 -14 56 -41t33 -88l15 -80h78v-212h-328l-15 194q-5 63 -14.5 85
t-29.5 34t-69 12h-66v-113h79v-212h-432zM881 900h66q69 0 109 19.5t40 69.5q0 44 -38 68.5t-102 24.5h-75v-182z" />
    <glyph glyph-name="acute" unicode="&#xb4;" horiz-adv-x="680" 
d="M41 1178l215 311h326v-25l-306 -286h-235z" />
    <glyph glyph-name="cedilla" unicode="&#xb8;" horiz-adv-x="926" 
d="M182 -293q41 3 77.5 19.5t66 46.5t51 73.5t31.5 100.5l243 -86q-23 -79 -65 -138t-100 -98t-128.5 -59t-150.5 -21z" />
    <glyph glyph-name="guillemotright" unicode="&#xbb;" horiz-adv-x="1100" 
d="M31 223l213 407l-211 406h223l260 -369v-74l-256 -370h-229zM471 223l213 407l-211 406h223l260 -369v-74l-256 -370h-229z" />
    <glyph glyph-name="circumflex" unicode="&#x2c6;" horiz-adv-x="827" 
d="M86 1176l272 325h240l274 -325h-245l-148 153l-145 -153h-248z" />
    <glyph glyph-name="ring" unicode="&#x2da;" horiz-adv-x="1200" 
d="M289 1419q0 65 25 123t68 101t101 68t123 25t123 -25t101.5 -68t68.5 -101t25 -123t-25 -123t-68.5 -101.5t-101.5 -68.5t-123 -25t-123 25t-101 68.5t-68 101.5t-25 123zM481 1419q0 -26 10 -49t27 -40t39.5 -26.5t48.5 -9.5t48.5 9.5t39 26.5t26 40t9.5 49t-9.5 48.5
t-26 39t-39 26t-48.5 9.5t-48.5 -9.5t-39.5 -26t-27 -39t-10 -48.5z" />
    <glyph glyph-name="tilde" unicode="&#x2dc;" horiz-adv-x="903" 
d="M10 1264q14 54 47.5 94t74.5 67t84.5 40.5t78.5 13.5q42 0 81 -14.5t76.5 -32t73 -32t70.5 -14.5q42 0 74.5 15t58.5 53l158 -70q-15 -45 -42.5 -84t-63.5 -68.5t-79 -46t-90 -16.5q-52 0 -94 13.5t-79.5 30t-73.5 30.5t-76 14q-45 0 -76 -18.5t-51 -44.5z" />
    <glyph glyph-name="uni0400" unicode="&#x400;" horiz-adv-x="1380" 
d="M113 0v274h159v940h-159v302h1206v-517h-326v215h-389v-299h301v-290h-301v-351h389v269h326v-543h-1206zM367 1943v25h326l196 -311h-229z" />
    <glyph glyph-name="afii10023" unicode="&#x401;" horiz-adv-x="1380" 
d="M113 0v274h159v940h-159v302h1206v-517h-326v215h-389v-299h301v-290h-301v-351h389v269h326v-543h-1206zM325 1821q0 37 13.5 69.5t37.5 56.5t56.5 38t70.5 14q36 0 68 -14t56 -38t38 -56.5t14 -69.5t-14 -69.5t-38 -56.5t-56 -38t-68 -14q-38 0 -70.5 14t-56.5 38
t-37.5 56.5t-13.5 69.5zM805 1821q0 37 13.5 69.5t37.5 56.5t56.5 38t70.5 14q36 0 68 -14t56 -38t38 -56.5t14 -69.5t-14 -69.5t-38 -56.5t-56 -38t-68 -14q-38 0 -70.5 14t-56.5 38t-37.5 56.5t-13.5 69.5z" />
    <glyph glyph-name="afii10051" unicode="&#x402;" horiz-adv-x="1784" 
d="M41 1055v461h1391v-461h-328v196h-197v-403q76 24 159 40.5t165 16.5q123 0 219 -39t160.5 -102.5t98.5 -147.5t34 -172q0 -116 -41 -203t-105.5 -144.5t-144.5 -86t-160 -28.5h-32.5t-30.5 2v288h14h14q31 0 64 7.5t60.5 26t46 51t18.5 85.5q0 52 -21.5 87.5t-56.5 58
t-77 32t-81 9.5q-80 0 -159.5 -20.5t-143.5 -47.5v-287h158v-274h-649v274h159v977h-208v-196h-326z" />
    <glyph glyph-name="afii10052" unicode="&#x403;" horiz-adv-x="1305" 
d="M113 0v274h157v977h-157v265h1185v-461h-327v196h-369v-977h160v-274h-649zM498 1575l215 311h326v-25l-306 -286h-235z" />
    <glyph glyph-name="afii10053" unicode="&#x404;" horiz-adv-x="1554" 
d="M66 760q0 162 57 305t155.5 249.5t232.5 168t288 61.5q59 0 120.5 -11t118 -31.5t108.5 -48.5t93 -60h176v-338h-309q-41 71 -122 123.5t-185 52.5q-66 0 -124.5 -22.5t-105.5 -63.5t-82.5 -97.5t-56.5 -121.5h635v-264h-651q12 -80 46 -149t85 -118t115.5 -77.5
t138.5 -28.5q59 0 111.5 19.5t95.5 51t74.5 73.5t49.5 87l322 -90q-31 -98 -91.5 -181t-144 -144.5t-189 -96.5t-228.5 -35q-154 0 -288 61.5t-232.5 168t-155.5 250t-57 307.5z" />
    <glyph glyph-name="afii10054" unicode="&#x405;" horiz-adv-x="1245" 
d="M41 250v301h362v-62q0 -45 14.5 -83t43.5 -66t73 -43.5t103 -15.5q90 0 137 41.5t47 115.5q0 38 -16.5 63.5t-42.5 43t-58 29.5t-63 22l-229 74q-65 20 -125.5 56t-107 90t-74 126.5t-27.5 165.5q0 108 40 192.5t112 142.5t171 88t217 30q93 0 172 -21.5t141.5 -57.5
t106 -82.5t66.5 -96.5h100v-302h-362v88q-5 35 -24.5 66t-50 53.5t-69 35.5t-80.5 13q-38 0 -71 -8t-57.5 -24.5t-39 -42.5t-14.5 -62q0 -45 19.5 -71.5t50 -43.5t67.5 -27t72 -22l275 -92q57 -20 107 -55t86.5 -85t57.5 -115t21 -146q0 -110 -40.5 -201t-113.5 -156
t-175 -101t-226 -36q-87 0 -164.5 19.5t-141.5 56.5t-112 88.5t-75 116.5h-103z" />
    <glyph glyph-name="afii10055" unicode="&#x406;" horiz-adv-x="874" 
d="M113 0v274h157v968h-157v274h649v-274h-160v-968h160v-274h-649z" />
    <glyph glyph-name="afii10056" unicode="&#x407;" horiz-adv-x="874" 
d="M83 1820q0 66 46 113t113 47q33 0 62 -12t50.5 -33.5t33.5 -51.5t12 -63q0 -32 -12 -62t-33.5 -51.5t-50.5 -33.5t-62 -12q-67 0 -113 47t-46 112zM113 0v274h157v968h-157v274h649v-274h-160v-968h160v-274h-649zM460 1820q0 66 46 113t113 47q33 0 61.5 -12t50 -33.5
t34 -51.5t12.5 -63q0 -32 -12.5 -62t-34 -51.5t-50 -33.5t-61.5 -12q-67 0 -113 47t-46 112z" />
    <glyph glyph-name="afii10057" unicode="&#x408;" horiz-adv-x="686" 
d="M10 -223q59 90 92.5 148.5t67.5 129t53 150.5v1007h-141v304h573v-304h-106v-1040q-22 -81 -64 -148.5t-82.5 -122.5t-113.5 -139z" />
    <glyph glyph-name="afii10058" unicode="&#x409;" horiz-adv-x="2257" 
d="M72 0v414h278v-152q49 23 81 63t48.5 94t22.5 122.5t6 152.5v549h-205v273h1411v-273h-244v-291h213q138 0 239 -39t166.5 -103.5t97.5 -148t32 -176.5q0 -102 -40 -191t-110.5 -154.5t-169 -102.5t-215.5 -37h-700v274h156v969h-332v-475q0 -137 -21.5 -274.5t-74 -247
t-142.5 -178t-229 -68.5h-268zM1470 274h140q61 0 107 13.5t77 40t47.5 64.5t16.5 87q0 51 -17.5 89t-50.5 62.5t-78 36t-102 11.5h-140v-404z" />
    <glyph glyph-name="afii10059" unicode="&#x40a;" horiz-adv-x="2280" 
d="M111 1241v275h649v-275h-160v-291h549v291h-160v275h676v-275h-184v-289h211q137 0 238.5 -39t167 -103.5t97 -148t31.5 -176.5q0 -102 -40 -191t-110.5 -154.5t-169 -102.5t-214.5 -37h-701v274h158v412h-549v-412h162v-274h-649v274h155v967h-157zM1481 274h137
q123 0 185.5 53.5t62.5 151.5q0 51 -17.5 89t-50.5 62.5t-78 36t-102 11.5h-137v-404z" />
    <glyph glyph-name="afii10060" unicode="&#x40b;" horiz-adv-x="2060" 
d="M41 1055v461h1393v-461h-328v196h-209v-374q76 12 158 20t159 8q125 0 230.5 -21.5t181.5 -78.5t119 -156.5t43 -255.5v-119h160v-274h-650v274h158l2 91q0 77 -19.5 125.5t-56 74t-90 34.5t-121.5 9q-71 0 -138.5 -6t-135.5 -18v-310h160v-274h-649v274h157v977h-198
v-196h-326z" />
    <glyph glyph-name="afii10061" unicode="&#x40c;" horiz-adv-x="1655" 
d="M113 0v274h157v967h-157v275h649v-275h-160v-441l485 423v293h517v-295h-113l-505 -434l484 -490h123v-297h-503v297l-488 488v-511h160v-274h-649zM754 1657l215 311h326v-25l-306 -286h-235z" />
    <glyph glyph-name="uni040D" unicode="&#x40d;" horiz-adv-x="1894" 
d="M113 0v274h157v967h-157v275h613v-275h-123v-769l684 1046h494v-277h-167v-967h167v-274h-624v274h129v755l-684 -1029h-489zM623 1943v25h326l196 -311h-229z" />
    <glyph glyph-name="afii10062" unicode="&#x40e;" horiz-adv-x="1479" 
d="M41 1241v275h643v-275h-125l205 -504l194 504h-133v275h623v-275h-125l-430 -946q-39 -84 -83 -142.5t-95 -95.5t-109.5 -53t-124.5 -16q-45 0 -83 3t-72 9h-209v414h309v-172q33 2 59.5 8t50 20.5t42 35t34.5 48.5l-63 127q-96 193 -189.5 381.5t-189.5 378.5h-129z
M313 1962h252q20 -60 67.5 -91.5t122.5 -31.5q72 0 118 29t71 94h250q-22 -77 -58 -137t-89.5 -101.5t-125.5 -63.5t-166 -22q-95 0 -167 21.5t-125 63t-89.5 101.5t-60.5 138z" />
    <glyph glyph-name="afii10145" unicode="&#x40f;" horiz-adv-x="1829" 
d="M113 0v272h157v969h-157v275h649v-275h-160v-969h623v969h-158v275h649v-275h-160v-969h160v-272h-645v-348h-309v348h-649z" />
    <glyph glyph-name="afii10017" unicode="&#x410;" horiz-adv-x="1491" 
d="M27 0v274h113l413 1242h401l404 -1242h110v-274h-575v274h151l-68 218h-466l-68 -218h160v-274h-575zM589 748h306l-154 493z" />
    <glyph glyph-name="afii10018" unicode="&#x411;" 
d="M113 0v274h155v977h-151v265h1186v-461h-328v196h-375v-299h213q137 0 238.5 -39t167 -103.5t97.5 -148t32 -176.5q0 -102 -40 -191t-111 -154.5t-169 -102.5t-215 -37h-700zM600 274h139q123 0 185.5 53.5t62.5 151.5q0 51 -17.5 89t-50 62.5t-77.5 36t-103 11.5h-139
v-404z" />
    <glyph glyph-name="afii10019" unicode="&#x412;" 
d="M113 0v274h155v967h-155v277l739 -2q103 0 188.5 -36.5t147.5 -99t96.5 -146t34.5 -177.5q0 -110 -38.5 -182t-109.5 -116q75 -48 118.5 -118.5t43.5 -171.5q0 -103 -35.5 -189t-97 -148.5t-145.5 -97t-181 -34.5h-761zM600 274h252q29 0 54.5 15t44 39.5t29.5 57
t11 67.5q0 37 -11 68.5t-30 55t-44.5 37t-53.5 13.5h-252v-353zM600 901h238q28 0 53 14t43.5 37.5t29.5 53t11 61.5q0 31 -11 62t-29.5 56t-43.5 40.5t-53 15.5h-238v-340z" />
    <glyph glyph-name="afii10020" unicode="&#x413;" horiz-adv-x="1305" 
d="M113 0v274h157v977h-157v265h1185v-461h-327v196h-369v-977h160v-274h-649z" />
    <glyph glyph-name="afii10021" unicode="&#x414;" horiz-adv-x="1890" 
d="M164 272h166q55 21 88 58t50 91t22.5 122.5t5.5 150.5l2 549h-195v273h1411v-273h-160v-971h193v-620h-332v348h-919v-348h-332v620zM711 272h512v971h-416v-483q0 -139 -20.5 -264t-75.5 -224z" />
    <glyph glyph-name="afii10022" unicode="&#x415;" horiz-adv-x="1380" 
d="M113 0v274h159v940h-159v302h1206v-517h-326v215h-389v-299h301v-290h-301v-351h389v269h326v-543h-1206z" />
    <glyph glyph-name="afii10024" unicode="&#x416;" horiz-adv-x="2237" 
d="M50 1241v275h514v-273l251 -323h139v321h-158v275h649v-275h-159v-321h137l250 323v273h514v-275h-124l-394 -455l385 -511h123v-275h-504v275l-248 370h-139v-371h159v-274h-649v274h158v371h-142l-248 -370v-275h-504v275h123l384 511l-394 455h-123z" />
    <glyph glyph-name="afii10025" unicode="&#x417;" horiz-adv-x="1167" 
d="M61 262v301h363v-155q22 -66 71.5 -95.5t125.5 -29.5q43 0 80.5 14t65.5 38.5t44 58.5t16 71q0 41 -14 74.5t-42 58.5t-65.5 39t-87.5 14h-139v273h142q45 0 79.5 12t58 33.5t36 50.5t12.5 63q0 31 -13.5 61t-39 53.5t-61.5 38.5t-79 15q-36 0 -70 -12t-58.5 -33.5
t-40 -49.5t-15.5 -58v-97h-362v302h112q60 110 171.5 178.5t262.5 68.5q107 0 199 -36.5t159.5 -98t106.5 -143.5t39 -170q0 -98 -40 -178t-109 -127q71 -41 121.5 -129t50.5 -201q0 -98 -40 -186t-110.5 -155t-167 -105.5t-207.5 -38.5q-79 0 -153 20.5t-136.5 57
t-109.5 88t-74 114.5h-82z" />
    <glyph glyph-name="afii10026" unicode="&#x418;" horiz-adv-x="1894" 
d="M113 0v274h157v967h-157v275h613v-275h-123v-769l684 1046h494v-277h-167v-967h167v-274h-624v274h129v755l-684 -1029h-489z" />
    <glyph glyph-name="afii10027" unicode="&#x419;" horiz-adv-x="1894" 
d="M113 0v274h157v967h-157v275h613v-275h-123v-769l684 1046h494v-277h-167v-967h167v-274h-624v274h129v755l-684 -1029h-489zM536 1960h252q20 -60 67.5 -91.5t122.5 -31.5q72 0 118 29t71 94h250q-22 -77 -58 -137t-89.5 -101.5t-125.5 -63.5t-166 -22q-95 0 -167 21.5
t-125 63t-89.5 101.5t-60.5 138z" />
    <glyph glyph-name="afii10028" unicode="&#x41a;" horiz-adv-x="1655" 
d="M113 0v274h157v967h-157v275h649v-275h-160v-441l485 423v293h517v-295h-113l-505 -434l484 -490h123v-297h-503v297l-488 488v-511h160v-274h-649z" />
    <glyph glyph-name="afii10029" unicode="&#x41b;" horiz-adv-x="1829" 
d="M72 0v414h278v-152q49 23 81 63t48.5 94t22.5 122.5t6 152.5v549h-205v273h1411v-273h-160v-969h162v-274h-649v274h156v969h-416v-475q0 -137 -21.5 -274.5t-74 -247t-142.5 -178t-227 -68.5h-270z" />
    <glyph glyph-name="afii10030" unicode="&#x41c;" horiz-adv-x="2345" 
d="M113 0v274h141v967h-141v275h624l447 -1094l415 1094h633v-275h-141v-967h139v-274h-567v274h104v872l-454 -1128h-281l-462 1098v-842h113v-274h-570z" />
    <glyph glyph-name="afii10031" unicode="&#x41d;" horiz-adv-x="1890" 
d="M113 0v274h157v967h-157v275h649v-275h-160v-315h684v315h-158v275h650v-275h-160v-967h160v-274h-650v274h158v388h-684v-388h160v-274h-649z" />
    <glyph glyph-name="afii10032" unicode="&#x41e;" horiz-adv-x="1599" 
d="M66 758q0 109 26 209.5t73 188t113.5 159t148 122.5t175.5 79t197 28t197.5 -28t176 -79t148 -122.5t114 -159t73.5 -188t26 -209.5q0 -108 -26 -208.5t-73.5 -188t-114 -159t-148 -122.5t-176 -79t-197.5 -28t-197 28t-175.5 79t-148 122.5t-113.5 159t-73 187.5
t-26 209zM406 758q0 -96 29.5 -181.5t81.5 -150t124 -102t158 -37.5q87 0 159.5 37.5t124.5 102t80.5 150t28.5 181.5q0 97 -29 183t-81.5 150.5t-124.5 102t-158 37.5t-158 -37.5t-124 -102t-81.5 -150.5t-29.5 -183z" />
    <glyph glyph-name="afii10033" unicode="&#x41f;" horiz-adv-x="1829" 
d="M113 0v274h157v969h-157v273h1603v-273h-160v-969h160v-274h-649v274h158v969h-623v-969h160v-274h-649z" />
    <glyph glyph-name="afii10034" unicode="&#x420;" horiz-adv-x="1401" 
d="M113 0v274h157v967h-157v275h700q117 0 215 -36.5t169 -98.5t111 -143t40 -169q0 -106 -31.5 -198.5t-97.5 -160.5t-167 -107.5t-239 -39.5h-211v-289h139v-274h-628zM602 834h137q114 0 181 48t67 152q0 97 -63 152t-185 55h-137v-407z" />
    <glyph glyph-name="afii10035" unicode="&#x421;" horiz-adv-x="1554" 
d="M66 760q0 163 57 305.5t156 249t232.5 168t287.5 61.5q123 0 207 -30.5t185 -120.5h224v-338h-309q-56 80 -101 113.5t-97 48t-109 14.5q-84 0 -156 -37.5t-124.5 -102t-82.5 -150t-30 -181.5q0 -97 29.5 -182.5t81.5 -149.5t124 -101.5t158 -37.5q60 0 112 19.5
t94.5 51.5t74.5 73.5t50 86.5l322 -90q-31 -98 -91 -181.5t-144.5 -144.5t-190 -96t-227.5 -35q-103 0 -197 28t-175.5 79t-148 123t-113.5 159.5t-73 188t-26 209.5z" />
    <glyph glyph-name="afii10036" unicode="&#x422;" horiz-adv-x="1419" 
d="M20 1055v461h1379v-461h-328v196h-209v-977h160v-274h-649v274h157v977h-184v-196h-326z" />
    <glyph glyph-name="afii10037" unicode="&#x423;" horiz-adv-x="1479" 
d="M41 1241v275h643v-275h-125l205 -504l194 504h-133v275h623v-275h-125l-430 -946q-39 -84 -83 -142.5t-95 -95.5t-109.5 -53t-124.5 -16q-45 0 -83 3t-72 9h-209v414h309v-172q33 2 59.5 8t50 20.5t42 35t34.5 48.5l-63 127q-96 193 -189.5 381.5t-189.5 378.5h-129z" />
    <glyph glyph-name="afii10038" unicode="&#x424;" horiz-adv-x="1599" 
d="M49 829q0 117 45 201t123 139.5t185.5 82t230.5 26.5h14v90h-133v219h594v-219h-129v-90h10q127 0 235.5 -26.5t188.5 -81t125 -139.5t45 -202q0 -114 -42 -199t-120 -140.5t-186.5 -83t-241.5 -27.5h-14v-105h170v-274h-676v274h174v105h-10q-127 0 -234.5 27.5
t-186.5 83t-123 140.5t-44 199zM381 829q0 -59 21.5 -101t55.5 -67.5t78 -38t87 -12.5h24v441h-24q-43 0 -87 -11.5t-78 -37t-55.5 -68.5t-21.5 -105zM979 610h27q45 0 89 12.5t78.5 38t55 67.5t20.5 101q0 62 -21.5 105t-56 68.5t-77.5 37t-88 11.5h-27v-441z" />
    <glyph glyph-name="afii10039" unicode="&#x425;" horiz-adv-x="1577" 
d="M53 0v274h81l449 480l-455 487h-71v275h643v-275h-158l249 -265l245 265h-158v275h643v-275h-65l-456 -487l454 -480h63v-274h-643v274h158l-240 258l-242 -258h146v-274h-643z" />
    <glyph glyph-name="afii10040" unicode="&#x426;" horiz-adv-x="1890" 
d="M113 0v274h157v967h-157v275h649v-275h-160v-967h623v967h-158v275h649v-275h-160v-967h304v-622h-310v348h-1437z" />
    <glyph glyph-name="afii10041" unicode="&#x427;" horiz-adv-x="1708" 
d="M41 1241v275h649v-275h-147v-209q0 -78 19.5 -126t56 -74.5t90 -35t120.5 -8.5q72 0 139.5 6.5t135.5 18.5v428h-158v275h649v-275h-159v-967h159v-274h-649v274h158v246q-78 -14 -160 -21t-158 -7q-124 0 -229.5 21.5t-181.5 78.5t-119 156.5t-43 255.5v237h-172z" />
    <glyph glyph-name="afii10042" unicode="&#x428;" horiz-adv-x="2638" 
d="M113 1241v275h643v-275h-162v-967h514v967h-156v275h643v-275h-155v-967h504v967h-152v275h643v-275h-160v-967h162v-274h-2322v274h147v967h-149z" />
    <glyph glyph-name="afii10043" unicode="&#x429;" horiz-adv-x="2605" 
d="M113 0v274h149v967h-149v275h643v-275h-162v-967h514v967h-156v275h643v-275h-155v-967h504v967h-152v275h643v-275h-160v-967h308v-622h-310v348h-2160z" />
    <glyph glyph-name="afii10044" unicode="&#x42a;" horiz-adv-x="1634" 
d="M20 1055v461h1004v-265h-176v-299h213q137 0 238.5 -39t167 -103.5t97 -148t31.5 -176.5q0 -102 -40 -191t-110.5 -154.5t-169 -102.5t-214.5 -37h-701v274h156v977h-168v-196h-328zM848 274h139q123 0 185.5 53.5t62.5 151.5q0 51 -17.5 89t-50.5 62.5t-78 36t-102 11.5
h-139v-404z" />
    <glyph glyph-name="afii10045" unicode="&#x42b;" horiz-adv-x="2130" 
d="M113 0v274h155v967h-153v275h676v-275h-191v-289h213q137 0 238.5 -39t167 -103.5t97.5 -148t32 -176.5q0 -102 -40 -191t-111 -154.5t-169 -102.5t-215 -37h-700zM600 274h139q123 0 185.5 53.5t62.5 151.5q0 51 -17.5 89t-50 62.5t-77.5 36t-103 11.5h-139v-404z
M1356 0v274h157v967h-157v275h649v-275h-160v-967h160v-274h-649z" />
    <glyph glyph-name="afii10046" unicode="&#x42c;" 
d="M113 0v274h155v967h-153v275h676v-275h-191v-289h213q137 0 238.5 -39t167 -103.5t97.5 -148t32 -176.5q0 -102 -40 -191t-111 -154.5t-169 -102.5t-215 -37h-700zM600 274h139q123 0 185.5 53.5t62.5 151.5q0 51 -17.5 89t-50 62.5t-77.5 36t-103 11.5h-139v-404z" />
    <glyph glyph-name="afii10047" unicode="&#x42d;" horiz-adv-x="1599" 
d="M147 430l322 90q18 -45 50 -87t75 -73.5t95 -51t112 -19.5q80 0 146.5 29.5t116.5 78.5t82 112.5t42 131.5h-711v274h705q-15 62 -48.5 119.5t-83 100.5t-113 69.5t-136.5 26.5q-53 0 -99.5 -14.5t-86.5 -39t-70.5 -56t-50.5 -66.5h-310v338h176q41 32 93.5 60
t108.5 48.5t117.5 31.5t121.5 11q155 0 289.5 -61.5t232.5 -167t154.5 -248.5t56.5 -307q0 -166 -56.5 -309.5t-154.5 -249t-232.5 -167t-289.5 -61.5q-123 0 -228.5 35t-189.5 96.5t-144.5 144.5t-91.5 181z" />
    <glyph glyph-name="afii10048" unicode="&#x42e;" horiz-adv-x="2342" 
d="M113 0v274h157v967h-157v275h649v-275h-160v-293h227q29 129 95.5 237.5t160 188.5t210 125t247.5 45q154 0 288 -61.5t233.5 -168t156.5 -249.5t57 -307t-57 -306.5t-156.5 -249t-233.5 -168t-288 -61.5q-143 0 -270 54.5t-223.5 148.5t-159 222t-76.5 276h-211v-400
h160v-274h-649zM1149 758q0 -96 29.5 -181t82 -150t124 -102.5t157.5 -37.5q88 0 160 37.5t124 102.5t80.5 150t28.5 181t-29.5 182t-81.5 150.5t-124 102.5t-158 38t-157.5 -38t-124 -102.5t-82 -150.5t-29.5 -182z" />
    <glyph glyph-name="afii10049" unicode="&#x42f;" horiz-adv-x="1530" 
d="M113 0l2 274h125l51 218q18 86 58 139t89 80q-59 28 -105 62t-77 79t-47 103.5t-16 134.5q0 84 33.5 161.5t96 136t154.5 93.5t209 35h789v-275h-144v-967h139v-274h-628v274h157v330h-153q-117 -4 -173.5 -60.5t-72.5 -183.5l-59 -360h-428zM553 1055q0 -94 66.5 -137.5
t181.5 -43.5h198v367h-198q-123 0 -185.5 -49t-62.5 -137z" />
    <glyph glyph-name="afii10065" unicode="&#x430;" horiz-adv-x="1280" 
d="M72 307q0 72 27.5 133t79.5 104.5t127.5 68t172.5 24.5q71 0 129.5 -7.5t108.5 -18.5v32q0 39 -15 67.5t-42 47t-65 27t-83 8.5q-94 0 -165.5 -18.5t-137.5 -53.5l-96 194q102 70 213.5 107t236.5 37q97 0 179.5 -21.5t141.5 -70t92.5 -126.5t33.5 -190v-377h139v-274
h-432v56q-35 -22 -64 -37.5t-58 -25t-60 -14t-68 -4.5q-93 0 -166.5 25.5t-124 70t-77.5 105t-27 131.5zM354 319q0 -46 33.5 -77t101.5 -31q71 0 129 23t99 56v132h-240q-23 0 -45 -7t-39.5 -20t-28 -32t-10.5 -44z" />
    <glyph glyph-name="afii10066" unicode="&#x431;" horiz-adv-x="1237" 
d="M78 500v183v183q0 156 47 269.5t132 190.5t200.5 119t255.5 52l110 8v49h279v-325l-342 -8q-105 -2 -178.5 -23.5t-119.5 -54.5t-66.5 -75t-20.5 -87v-10q45 39 120.5 65.5t166.5 26.5q112 0 206.5 -38t162 -107.5t105.5 -171t38 -226.5q0 -112 -40 -211.5t-112 -173.5
t-174.5 -117t-226.5 -43q-123 0 -223.5 41t-171 112t-109.5 166t-39 206zM371 522q0 -55 20.5 -104t54 -86t79.5 -58.5t96 -21.5q51 0 97 19.5t79.5 54t53 85t19.5 109.5q0 64 -18 114t-50 85t-77 53.5t-98 18.5q-49 0 -96.5 -21.5t-82 -55.5t-56 -76t-21.5 -85v-31z" />
    <glyph glyph-name="afii10067" unicode="&#x432;" horiz-adv-x="1370" 
d="M113 0v252h137v522h-137v262h708q207 0 327 -82t120 -221q0 -78 -32 -128t-93 -83q65 -30 102 -80.5t37 -126.5q0 -71 -31.5 -129.5t-90 -99.5t-139.5 -63.5t-177 -22.5h-731zM545 252h276q60 0 100 20.5t40 65.5q0 49 -41 66.5t-99 17.5h-276v-170zM545 614h262
q67 0 102 15.5t35 56.5q0 39 -32.5 63.5t-104.5 24.5h-262v-160z" />
    <glyph glyph-name="afii10068" unicode="&#x433;" horiz-adv-x="1214" 
d="M113 0v274h178v498h-178v264h1071v-461h-307v197h-277v-498h162v-274h-649z" />
    <glyph glyph-name="afii10069" unicode="&#x434;" horiz-adv-x="1614" 
d="M92 -307l2 557l82 10q76 16 120 52t68.5 90.5t35 128t16.5 165.5l4 68h-152v272h1200v-272h-153v-492h207v-579h-332v307h-787v-307h-311zM616 272h390v492h-295l-6 -139q-5 -70 -23 -165t-66 -188z" />
    <glyph glyph-name="afii10070" unicode="&#x435;" horiz-adv-x="1206" 
d="M71 532q0 114 39.5 214t111.5 174.5t172 117.5t222 43t216.5 -40.5t159.5 -112t100 -168t38 -207.5q3 -25 3.5 -49.5t-1.5 -50.5h-763l3 -31q11 -45 37.5 -79t62.5 -57t80 -34.5t89 -11.5t85.5 5.5t78.5 15t74 22t73 26.5l110 -205q-57 -35 -104.5 -59.5t-95.5 -40.5
t-102 -23.5t-126 -7.5q-135 0 -240 44.5t-176.5 120.5t-109 178t-37.5 216zM378 664h433q-7 34 -20 64t-36 53t-58.5 36.5t-88.5 13.5q-56 0 -95.5 -13.5t-66.5 -37t-43 -53.5t-25 -63z" />
    <glyph glyph-name="afii10072" unicode="&#x436;" horiz-adv-x="1931" 
d="M70 0v274h149l223 252l-200 236h-172v274h514v-274h-6l94 -131h157v131h-133v274h441v-405h120l91 131v274h514v-274h-176l-199 -236l225 -252h148v-274h-281l-340 401h-102v-127h133v-274h-441v401h-139l-108 -127h2v-274h-514z" />
    <glyph glyph-name="afii10073" unicode="&#x437;" horiz-adv-x="1147" 
d="M51 334l283 47q10 -72 68.5 -117t154.5 -45q33 0 64.5 4t56 15.5t39 30t14.5 48.5q0 29 -10 50.5t-32.5 35t-57.5 20.5t-84 7h-88v193h88q88 0 130 22.5t42 83.5q0 53 -45 75.5t-119 22.5q-41 0 -75 -12t-58.5 -30.5t-42 -41t-25.5 -43.5q-4 0 -5 1t-5 1h-274v302h194
q58 34 134.5 55.5t174.5 21.5q134 0 222 -26.5t141 -70.5t75.5 -100.5t22.5 -113.5q0 -37 -6 -75t-24.5 -70.5t-51 -58t-88.5 -38.5q54 -12 88.5 -38.5t55 -58.5t28.5 -66.5t8 -63.5q0 -72 -29.5 -132t-90 -104.5t-153.5 -70t-220 -25.5q-123 0 -211 29t-147.5 78t-93 115.5
t-48.5 142.5z" />
    <glyph glyph-name="afii10074" unicode="&#x438;" horiz-adv-x="1550" 
d="M92 762v274h561v-274h-123v-366l501 640h404v-276h-123v-486h123v-274h-561v274h129v356l-501 -630h-408v274h127v488h-129z" />
    <glyph glyph-name="afii10075" unicode="&#x439;" horiz-adv-x="1577" 
d="M92 762v274h561v-274h-123v-366l501 640h404v-276h-123v-486h123v-274h-561v274h129v356l-501 -630h-408v274h127v488h-129zM403 1481h252q20 -60 67.5 -91.5t122.5 -31.5q72 0 118 29t71 94h250q-22 -77 -58 -137t-89.5 -101.5t-125.5 -63.5t-166 -22q-95 0 -167 21.5
t-125 63t-89.5 101.5t-60.5 138z" />
    <glyph glyph-name="afii10076" unicode="&#x43a;" horiz-adv-x="1365" 
d="M92 0v274h161v488h-161v274h469v-422h120l105 152v270h500v-274h-170l-203 -254l221 -234h150v-274h-281l-340 399h-102v-125h106v-274h-575z" />
    <glyph glyph-name="afii10077" unicode="&#x43b;" horiz-adv-x="1565" 
d="M51 0v272q111 0 176 28t101 81t44 133t8 182v68h-149v272h1178v-272h-143v-490h186v-274h-649v274h153v490h-270v-70q0 -57 -4 -129.5t-19.5 -149.5t-46 -152t-84 -133t-133.5 -94t-194 -36h-154z" />
    <glyph glyph-name="afii10078" unicode="&#x43c;" horiz-adv-x="1997" 
d="M113 0v274h172v488h-170v274h467l411 -530l410 530h479v-274h-182v-488h182v-274h-602v274h111v309h-2l-396 -498l-397 498h-2v-309h121v-274h-602z" />
    <glyph glyph-name="afii10079" unicode="&#x43d;" horiz-adv-x="1542" 
d="M92 0v274h152v488h-152v274h602v-274h-141v-121h440v121h-145v274h602v-274h-147v-488h147v-274h-602v274h145v156h-440v-156h141v-274h-602z" />
    <glyph glyph-name="afii10080" unicode="&#x43e;" horiz-adv-x="1245" 
d="M72 522q0 113 41 212t114 173t174 117t222 43t222.5 -43t174.5 -117t113.5 -173t40.5 -212t-39.5 -212.5t-112 -174t-174 -117.5t-225.5 -43q-125 0 -226.5 43t-173.5 117t-111.5 173.5t-39.5 213.5zM371 522q0 -59 20 -108.5t54.5 -85.5t80 -56t97.5 -20q53 0 98.5 19.5
t79 55.5t52.5 85.5t19 109.5q0 62 -19 112t-52.5 85t-79 53.5t-98.5 17.5q-52 1 -97.5 -17.5t-80 -53.5t-54.5 -85t-20 -112z" />
    <glyph glyph-name="afii10081" unicode="&#x43f;" horiz-adv-x="1495" 
d="M92 0v274h152v490h-152v272h1311v-272h-154v-490h152v-274h-602v274h141v490h-387v-490h141v-274h-602z" />
    <glyph glyph-name="afii10082" unicode="&#x440;" horiz-adv-x="1368" 
d="M61 -197h170v959h-112v274h452v-15q48 21 98 33.5t103 12.5q114 0 212 -43t170 -117t112.5 -173t40.5 -210q0 -112 -39.5 -211t-110.5 -172.5t-169.5 -116t-215.5 -42.5q-66 0 -123 12.5t-110 35.5v-227h198v-274h-676v274zM539 373q32 -51 87 -83t124 -32q51 0 97 19.5
t80 55t54 84t20 105.5q0 63 -19.5 113t-53.5 84.5t-80 53t-98 18.5q-63 0 -118 -33t-93 -93v-292z" />
    <glyph glyph-name="afii10083" unicode="&#x441;" horiz-adv-x="1180" 
d="M72 530q0 115 41.5 213.5t114.5 172t173.5 114.5t218.5 37q84 4 163 -19t150 -69h199v-301h-276q-43 54 -96 81.5t-125 23.5q-58 4 -105.5 -16t-82 -56t-53.5 -85.5t-19 -111.5q0 -55 20 -104t54.5 -84.5t82 -55.5t103.5 -24q47 4 85.5 19.5t68.5 40t51.5 55t33.5 57.5
l275 -76q-17 -60 -58.5 -125t-108 -118.5t-158 -88.5t-208.5 -35q-119 0 -219 43.5t-172 118.5t-112.5 176t-40.5 217z" />
    <glyph glyph-name="afii10084" unicode="&#x442;" horiz-adv-x="1331" 
d="M41 575v461h1249v-461h-307v197h-168v-498h178v-274h-649v274h162v498h-160v-197h-305z" />
    <glyph glyph-name="afii10085" unicode="&#x443;" horiz-adv-x="1241" 
d="M51 762v274h508v-274h-80l150 -389l139 389h-76v274h508v-274h-125l-278 -780q-41 -113 -83 -198t-98.5 -141.5t-133 -85t-187.5 -28.5h-125v274h98q68 0 126.5 38t86.5 120l6 21l-331 780h-105z" />
    <glyph glyph-name="afii10086" unicode="&#x444;" horiz-adv-x="1896" 
d="M72 526q0 113 36.5 212.5t104.5 172t162 114.5t207 42q59 0 112.5 -8t102.5 -25v248h-146v274h453v-524q49 23 100 34t101 11q112 0 208.5 -43t165 -117.5t107.5 -174t39 -212.5q0 -114 -37 -213.5t-103.5 -173t-160.5 -115.5t-209 -42q-60 0 -112 7t-99 23v-213h190
v-274h-676v274h179v222q-52 -21 -104 -32t-105 -11q-117 0 -212 42t-163 115.5t-104.5 173t-36.5 213.5zM377 524q0 -61 18.5 -111.5t50 -84t73.5 -52t89 -18.5q60 0 108 14.5t81 51.5v399q-33 39 -83 53.5t-106 14.5q-47 0 -89 -18.5t-73.5 -53.5t-50 -84t-18.5 -111z
M1104 319q29 -34 77 -54.5t107 -20.5q47 0 89 22.5t74 61.5t50.5 90t18.5 110q0 60 -18.5 111t-49.5 88t-73 58.5t-89 21.5q-55 0 -103 -21.5t-83 -60.5v-406z" />
    <glyph glyph-name="afii10087" unicode="&#x445;" horiz-adv-x="1235" 
d="M61 0v274h103l257 252l-238 236h-122v274h488v-274h-47l121 -107l116 107h-55v274h487v-274h-114l-239 -237l253 -251h103v-274h-488v274h59l-129 123l-134 -123h67v-274h-488z" />
    <glyph glyph-name="afii10088" unicode="&#x446;" horiz-adv-x="1518" 
d="M92 0v274h152v488h-152v274h602v-274h-141v-488h387v488h-143v274h602v-274h-150v-488h189v-581h-310v307h-1036z" />
    <glyph glyph-name="afii10089" unicode="&#x447;" horiz-adv-x="1413" 
d="M16 762v274h576v-274h-133v-21q0 -39 11 -67.5t34.5 -47t61.5 -27.5t91 -9q41 0 90.5 4t90.5 10v158h-138v274h594v-274h-147v-488h147v-274h-622v274h166v115q-47 -6 -99.5 -10t-117.5 -4q-117 0 -205 17.5t-147.5 59.5t-89 111.5t-29.5 175.5v23h-134z" />
    <glyph glyph-name="afii10090" unicode="&#x448;" horiz-adv-x="2000" 
d="M92 0v274h150v488h-150v274h460v-762h297v488h-142v274h451v-762h290v488h-135v274h593v-274h-148v-488h150v-274h-1816z" />
    <glyph glyph-name="afii10091" unicode="&#x449;" horiz-adv-x="2036" 
d="M92 0v274h150v488h-150v274h460v-762h297v488h-142v274h451v-762h290v488h-135v274h592v-274h-147v-488h198v-581h-309v307h-1555z" />
    <glyph glyph-name="afii10092" unicode="&#x44a;" horiz-adv-x="1479" 
d="M16 578v458h910v-262h-166v-90h188q101 0 189 -16.5t152.5 -56.5t101 -104.5t36.5 -158.5t-37.5 -159.5t-103 -107.5t-152.5 -61.5t-186 -19.5h-659v264h162v510h-175v-196h-260zM760 264h258q47 0 71.5 27.5t24.5 64.5q0 33 -24.5 66t-71.5 33h-258v-191z" />
    <glyph glyph-name="afii10093" unicode="&#x44b;" horiz-adv-x="2058" 
d="M113 0v264h161v498h-137v274h623v-274h-176v-78h188q100 0 188.5 -16.5t153 -56.5t101 -104.5t36.5 -158.5t-37.5 -159.5t-103.5 -107.5t-153 -61.5t-185 -19.5h-659zM584 264h258q47 0 71.5 27.5t24.5 64.5q0 33 -24.5 66t-71.5 33h-258v-191zM1323 0v274h156v488h-156
v274h623v-274h-158v-488h158v-274h-623z" />
    <glyph glyph-name="afii10094" unicode="&#x44c;" horiz-adv-x="1303" 
d="M113 0v264h161v498h-137v274h623v-274h-176v-78h188q100 0 188.5 -16.5t153 -56.5t101 -104.5t36.5 -158.5t-37.5 -159.5t-103.5 -107.5t-153 -61.5t-185 -19.5h-659zM584 264h258q47 0 71.5 27.5t24.5 64.5q0 33 -24.5 66t-71.5 33h-258v-191z" />
    <glyph glyph-name="afii10095" unicode="&#x44d;" horiz-adv-x="1180" 
d="M86 328l246 69q12 -35 35.5 -66.5t58.5 -56t80 -39t98 -14.5q117 0 193.5 59.5t97.5 153.5h-412v225h406q-15 39 -41.5 72t-62 56.5t-78.5 36t-91 12.5q-92 0 -158.5 -41t-95.5 -103h-247v301h198q72 41 151 64.5t163 23.5q116 0 216.5 -42t173.5 -116.5t113.5 -175
t40.5 -217.5q0 -116 -40.5 -216.5t-112.5 -176.5t-172.5 -119t-218.5 -43q-115 0 -207 32t-161 83t-113 113.5t-60 124.5z" />
    <glyph glyph-name="afii10096" unicode="&#x44e;" horiz-adv-x="1843" 
d="M92 0v274h156v488h-156v274h576v-274h-111v-121h172q19 94 64 172t113.5 134.5t157.5 88t198 31.5q112 0 209.5 -43t169 -116.5t111.5 -173t40 -212.5q0 -112 -39 -211.5t-109.5 -174.5t-169 -118t-217.5 -43q-114 0 -206 34t-161.5 97t-107.5 146t-53 178h-172v-156h111
v-274h-576zM995 522q0 -59 19.5 -108t53.5 -85t79 -56.5t94 -20.5q53 0 98 19.5t79 55t53.5 86t19.5 109.5q0 62 -19.5 112t-53.5 85t-79 53.5t-98 18.5q-49 0 -94 -18.5t-79 -53.5t-53.5 -85t-19.5 -112z" />
    <glyph glyph-name="afii10097" unicode="&#x44f;" horiz-adv-x="1247" 
d="M27 0v274h118l19 64q14 47 37.5 83t56.5 56q-39 21 -67.5 45.5t-47 54t-28 66.5t-9.5 80q0 68 25 126t74 100t120.5 66.5t166.5 24.5h663v-270h-127v-496h127v-274h-541v274h117v117h-100q-78 -4 -119 -36.5t-57 -106.5l-54 -248h-374zM397 682q0 -45 45 -63.5t115 -18.5
h174v170h-174q-76 0 -118 -17.5t-42 -70.5z" />
    <glyph glyph-name="uni0450" unicode="&#x450;" horiz-adv-x="1186" 
d="M51 532q0 114 39.5 214t111.5 174.5t172 117.5t222 43t216.5 -40.5t159.5 -112t100 -168t38 -207.5q3 -25 3.5 -49.5t-1.5 -50.5h-763l3 -31q11 -45 37.5 -79t62.5 -57t80 -34.5t89 -11.5t85.5 5.5t78.5 15t74 22t73 26.5l110 -205q-57 -35 -104.5 -59.5t-95.5 -40.5
t-102 -23.5t-126 -7.5q-135 0 -240 44.5t-176.5 120.5t-109 178t-37.5 216zM207 1464v25h326l196 -311h-229zM358 664h433q-7 34 -20 64t-36 53t-58.5 36.5t-88.5 13.5q-56 0 -95.5 -13.5t-66.5 -37t-43 -53.5t-25 -63z" />
    <glyph glyph-name="afii10071" unicode="&#x451;" horiz-adv-x="1186" 
d="M51 532q0 114 39.5 214t111.5 174.5t172 117.5t222 43t216.5 -40.5t159.5 -112t100 -168t38 -207.5q3 -25 3.5 -49.5t-1.5 -50.5h-763l3 -31q11 -45 37.5 -79t62.5 -57t80 -34.5t89 -11.5t85.5 5.5t78.5 15t74 22t73 26.5l110 -205q-57 -35 -104.5 -59.5t-95.5 -40.5
t-102 -23.5t-126 -7.5q-135 0 -240 44.5t-176.5 120.5t-109 178t-37.5 216zM166 1342q0 37 13.5 69.5t37.5 56.5t56.5 38t70.5 14q36 0 68 -14t56 -38t38 -56.5t14 -69.5t-14 -69.5t-38 -56.5t-56 -38t-68 -14q-38 0 -70.5 14t-56.5 38t-37.5 56.5t-13.5 69.5zM358 664h433
q-7 34 -20 64t-36 53t-58.5 36.5t-88.5 13.5q-56 0 -95.5 -13.5t-66.5 -37t-43 -53.5t-25 -63zM645 1342q0 37 13.5 69.5t37.5 56.5t56.5 38t70.5 14q36 0 68 -14t56 -38t38 -56.5t14 -69.5t-14 -69.5t-38 -56.5t-56 -38t-68 -14q-38 0 -70.5 14t-56.5 38t-37.5 56.5
t-13.5 69.5z" />
    <glyph glyph-name="afii10099" unicode="&#x452;" 
d="M51 1096v168h166v59h-166v233h473v-272h507v-168h-507v-214q60 53 134.5 83.5t179.5 30.5q186 0 286.5 -104.5t100.5 -304.5v-625q0 -238 -122 -344.5t-335 -106.5l-8 227q71 4 106 57.5t35 145.5v584q0 89 -46 139t-122 50q-47 0 -98 -21.5t-111 -83.5v-355h181v-274
h-644v274h156v822h-166z" />
    <glyph glyph-name="afii10100" unicode="&#x453;" horiz-adv-x="1214" 
d="M113 0v274h178v498h-178v264h1071v-461h-307v197h-277v-498h162v-274h-649zM596 1178l215 311h326v-25l-306 -286h-235z" />
    <glyph glyph-name="afii10101" unicode="&#x454;" horiz-adv-x="1180" 
d="M72 530q0 117 41 217.5t113.5 175t173 116.5t216.5 42q84 0 162 -23.5t150 -64.5h200v-301h-139h-68.5h-68.5q-43 49 -96.5 77t-124.5 28q-80 0 -140.5 -38t-91.5 -102h314v-262h-312q17 -30 40.5 -56t53 -43t64.5 -26.5t72 -9.5q47 0 86 15.5t68.5 40t51 55t33.5 61.5
l275 -80q-17 -61 -59 -127.5t-108.5 -122t-156.5 -91.5t-205 -36q-118 0 -218.5 43t-172 119t-112.5 176.5t-41 216.5z" />
    <glyph glyph-name="afii10102" unicode="&#x455;" horiz-adv-x="1102" 
d="M55 66v278h283v-6q1 -29 18 -50.5t44.5 -36.5t62.5 -22.5t74 -7.5q90 0 131 23.5t41 60.5q0 29 -20 49.5t-71 32.5l-192 41q-181 35 -273 116.5t-92 209.5q0 75 35 136.5t95 105t140.5 67.5t172.5 24q63 0 112 -7.5t88 -19.5t68.5 -28.5t52.5 -34.5h174v-278h-258
q0 24 -15.5 46t-45.5 38.5t-73.5 26.5t-98.5 10q-21 0 -45 -3.5t-44.5 -12.5t-34 -24.5t-13.5 -39.5q0 -12 3.5 -23t13.5 -21t27.5 -18.5t45.5 -13.5l188 -37q102 -20 171 -50t111 -70t60.5 -89t18.5 -106q0 -89 -41.5 -156t-109 -111.5t-152 -67t-170.5 -22.5
q-56 0 -101.5 7t-82 19t-65 28.5t-52.5 36.5h-181z" />
    <glyph glyph-name="afii10103" unicode="&#x456;" horiz-adv-x="791" 
d="M80 0v274h156v488h-156v274h465v-762h144v-274h-609zM220 1370q0 37 13.5 69.5t37.5 56.5t56.5 38t70.5 14q36 0 68 -14t56 -38t38 -56.5t14 -69.5t-14 -69.5t-38 -56.5t-56 -38t-68 -14q-38 0 -70.5 14t-56.5 38t-37.5 56.5t-13.5 69.5z" />
    <glyph glyph-name="afii10104" unicode="&#x457;" horiz-adv-x="791" 
d="M28 1342q0 66 46 113t113 47q33 0 62 -12t50.5 -33.5t33.5 -51.5t12 -63q0 -32 -12 -62t-33.5 -51.5t-50.5 -33.5t-62 -12q-67 0 -113 47t-46 112zM80 762v275l467 -1v-762h142v-274h-608v274h156v488h-157zM405 1342q0 66 46 113t113 47q33 0 61.5 -12t50 -33.5
t34 -51.5t12.5 -63q0 -32 -12.5 -62t-34 -51.5t-50 -33.5t-61.5 -12q-67 0 -113 47t-46 112z" />
    <glyph glyph-name="afii10105" unicode="&#x458;" horiz-adv-x="621" 
d="M51 762v274h455v-1054q0 -119 -29.5 -204t-86 -140t-139.5 -81t-190 -26l-4 227q72 3 107 57.5t35 145.5v801h-148zM182 1370q0 37 13.5 69.5t37.5 56.5t56.5 38t70.5 14q36 0 68.5 -14t57 -38t39 -56.5t14.5 -69.5t-14.5 -69.5t-39 -56.5t-57 -38t-68.5 -14
q-38 0 -70.5 14t-56.5 38t-37.5 56.5t-13.5 69.5z" />
    <glyph glyph-name="afii10106" unicode="&#x459;" horiz-adv-x="1931" 
d="M51 0v272h21.5h22.5t21.5 1t18.5 3q72 9 115 36.5t66.5 84t30.5 145.5t7 222h-123v272h1178v-272h-197v-80h189q100 0 188 -16.5t152.5 -56.5t101.5 -104.5t37 -158.5t-38 -159.5t-103.5 -107.5t-152.5 -61.5t-185 -19.5h-660v264h162v500h-217v-70q0 -57 -4 -131
t-19.5 -150.5t-46 -150.5t-84 -132t-133.5 -94t-194 -36h-77h-77zM1212 264h207q72 0 110 17.5t38 74.5q0 33 -24.5 66t-72.5 33h-258v-191z" />
    <glyph glyph-name="afii10107" unicode="&#x45a;" horiz-adv-x="2040" 
d="M92 0v274h152v488h-152v274h602v-274h-141v-82h459v82h-162v274h602v-274h-131v-78h188q101 0 189 -16.5t152.5 -56.5t101.5 -104.5t37 -158.5t-38 -159.5t-103.5 -107.5t-152.5 -61.5t-186 -19.5h-659v264h162v191h-459v-181h141v-274h-602zM1321 264h258
q47 0 71.5 27.5t24.5 64.5q0 33 -24.5 66t-71.5 33h-258v-191z" />
    <glyph glyph-name="afii10108" unicode="&#x45b;" 
d="M51 1096v168h166v59h-166v233h473v-272h497v-168h-497v-216q60 53 129.5 84t155.5 31q174 0 279.5 -104.5t105.5 -305.5v-331h152v-274h-462v274v10l-1 251q0 87 -43 137t-111 50q-45 0 -98 -25.5t-107 -72.5v-350h152v-274h-608v274h149v822h-166z" />
    <glyph glyph-name="afii10109" unicode="&#x45c;" horiz-adv-x="1365" 
d="M92 0v274h161v488h-161v274h469v-422h120l105 152v270h500v-274h-170l-203 -254l221 -234h150v-274h-281l-340 399h-102v-125h106v-274h-575zM531 1178l215 311h326v-25l-306 -286h-235z" />
    <glyph glyph-name="uni045D" unicode="&#x45d;" horiz-adv-x="1577" 
d="M92 762v274h561v-274h-123v-366l501 640h404v-276h-123v-486h123v-274h-561v274h129v356l-501 -630h-408v274h127v488h-129zM467 1464v25h326l196 -311h-229z" />
    <glyph glyph-name="afii10110" unicode="&#x45e;" horiz-adv-x="1241" 
d="M51 762v274h508v-274h-80l150 -389l139 389h-76v274h508v-274h-125l-278 -780q-41 -113 -83 -198t-98.5 -141.5t-133 -85t-187.5 -28.5h-125v274h98q68 0 126.5 38t86.5 120l6 21l-331 780h-105zM180 1481h252q20 -60 67.5 -91.5t122.5 -31.5q72 0 118 29t71 94h250
q-22 -77 -58 -137t-89.5 -101.5t-125.5 -63.5t-166 -22q-95 0 -167 21.5t-125 63t-89.5 101.5t-60.5 138z" />
    <glyph glyph-name="afii10193" unicode="&#x45f;" horiz-adv-x="1491" 
d="M92 0v272h152v490h-152v274h602v-274h-141v-490h387v490h-143v274h602v-274h-150v-490h150v-272h-498v-348h-309v348h-500z" />
    <glyph glyph-name="afii10050" unicode="&#x490;" horiz-adv-x="1305" 
d="M113 0v274h157v977h-157v265h833v296h307v-561h-651v-977h160v-274h-649z" />
    <glyph glyph-name="afii10098" unicode="&#x491;" horiz-adv-x="1235" 
d="M113 0v274h178v498h-178v264h721v307h307v-571h-541v-498h162v-274h-649z" />
    <glyph glyph-name="uni04B0" unicode="&#x4b0;" horiz-adv-x="1536" 
d="M47 1241v275h649v-275h-127l203 -348l215 348h-145v275h649v-275h-113l-450 -612v-4h422v-265h-422v-86h184v-274h-676v274h168v86h-397v265h397v8l-424 608h-133z" />
    <glyph glyph-name="uni04B1" unicode="&#x4b1;" horiz-adv-x="1257" 
d="M41 762v274h541v-274h-125l168 -445l163 445h-112v274h541v-274h-138l-307 -758h383v-234h-385v-241h-305v241h-363v234h359l-305 758h-115z" />
    <glyph glyph-name="uni2000" unicode="&#x2000;" horiz-adv-x="999" 
 />
    <glyph glyph-name="uni2001" unicode="&#x2001;" horiz-adv-x="1999" 
 />
    <glyph glyph-name="uni2002" unicode="&#x2002;" horiz-adv-x="999" 
 />
    <glyph glyph-name="uni2003" unicode="&#x2003;" horiz-adv-x="1999" 
 />
    <glyph glyph-name="uni2004" unicode="&#x2004;" horiz-adv-x="666" 
 />
    <glyph glyph-name="uni2005" unicode="&#x2005;" horiz-adv-x="499" 
 />
    <glyph glyph-name="uni2006" unicode="&#x2006;" horiz-adv-x="333" 
 />
    <glyph glyph-name="uni2007" unicode="&#x2007;" horiz-adv-x="333" 
 />
    <glyph glyph-name="uni2008" unicode="&#x2008;" horiz-adv-x="249" 
 />
    <glyph glyph-name="uni2009" unicode="&#x2009;" horiz-adv-x="399" 
 />
    <glyph glyph-name="uni200A" unicode="&#x200a;" horiz-adv-x="111" 
 />
    <glyph glyph-name="uni2010" unicode="&#x2010;" horiz-adv-x="770" 
d="M61 449v274h627v-274h-627z" />
    <glyph glyph-name="uni2011" unicode="&#x2011;" horiz-adv-x="770" 
d="M61 449v274h627v-274h-627z" />
    <glyph glyph-name="figuredash" unicode="&#x2012;" horiz-adv-x="770" 
d="M61 449v274h627v-274h-627z" />
    <glyph glyph-name="endash" unicode="&#x2013;" horiz-adv-x="1229" 
d="M102 459v274h1024v-274h-1024z" />
    <glyph glyph-name="emdash" unicode="&#x2014;" horiz-adv-x="1843" 
d="M0 459v274h1843v-274h-1843z" />
    <glyph glyph-name="quoteleft" unicode="&#x2018;" horiz-adv-x="530" 
d="M20 1110l285 541l205 -78l-184 -569z" />
    <glyph glyph-name="quoteright" unicode="&#x2019;" horiz-adv-x="532" 
d="M20 1065l185 569l305 -106l-285 -541z" />
    <glyph glyph-name="quotesinglbase" unicode="&#x201a;" horiz-adv-x="532" 
d="M20 -287l185 570l305 -107l-285 -541z" />
    <glyph glyph-name="quotedblleft" unicode="&#x201c;" horiz-adv-x="938" 
d="M-31 1106l305 557l222 -92l-242 -572zM459 1096l278 561l221 -84l-215 -584z" />
    <glyph glyph-name="quotedblright" unicode="&#x201d;" horiz-adv-x="981" 
d="M-6 1079l215 584l285 -107l-279 -561zM457 1081l241 572l285 -107l-305 -557z" />
    <glyph glyph-name="quotedblbase" unicode="&#x201e;" horiz-adv-x="981" 
d="M-6 -308l215 584l285 -107l-279 -561zM457 -306l241 572l285 -107l-305 -557z" />
    <glyph glyph-name="bullet" unicode="&#x2022;" horiz-adv-x="1024" 
d="M180 778q0 69 26.5 129t71.5 104.5t105.5 70.5t128.5 26t128 -26t105 -70.5t71 -104.5t26 -129q0 -68 -26 -128.5t-71 -105.5t-105 -71.5t-128 -26.5t-128.5 26.5t-105.5 71.5t-71.5 105.5t-26.5 128.5z" />
    <glyph glyph-name="ellipsis" unicode="&#x2026;" horiz-adv-x="1315" 
d="M31 143q0 37 14.5 69t40 55t59.5 36.5t72 13.5q37 0 72 -13.5t61 -36.5t42 -55t16 -69q0 -35 -16 -66.5t-42 -55.5t-61 -38t-72 -14q-38 0 -72 14t-59.5 38t-40 55.5t-14.5 66.5zM469 143q0 37 14.5 69t40 55t59.5 36.5t72 13.5t72.5 -13.5t61 -36.5t42 -55t15.5 -69
q0 -35 -15.5 -66.5t-42 -55.5t-61 -38t-72.5 -14t-72 14t-59.5 38t-40 55.5t-14.5 66.5zM907 143q0 37 14.5 69t40 55t59.5 36.5t73 13.5q37 0 71.5 -13.5t61 -36.5t42 -55t15.5 -69q0 -35 -15.5 -66.5t-42 -55.5t-61 -38t-71.5 -14q-39 0 -73 14t-59.5 38t-40 55.5
t-14.5 66.5z" />
    <glyph glyph-name="uni202F" unicode="&#x202f;" horiz-adv-x="399" 
 />
    <glyph glyph-name="guilsinglleft" unicode="&#x2039;" horiz-adv-x="598" 
d="M82 593v74l260 369h223l-211 -406l213 -407h-229z" />
    <glyph glyph-name="guilsinglright" unicode="&#x203a;" horiz-adv-x="594" 
d="M31 223l213 407l-211 406h223l260 -369v-74l-256 -370h-229z" />
    <glyph glyph-name="uni205F" unicode="&#x205f;" horiz-adv-x="499" 
 />
    <glyph glyph-name="Euro" unicode="&#x20ac;" horiz-adv-x="1554" 
d="M66 760q0 162 57 305t155.5 249.5t232.5 168t288 61.5q59 0 120.5 -11t118 -31.5t108.5 -48.5t93 -60h176v-338h-309q-41 71 -122 123.5t-185 52.5q-49 0 -94.5 -13.5t-85 -38t-74.5 -58.5t-62 -77h471l-147 -284h-401v-31t2 -31h493l-147 -284h-226q52 -60 120.5 -92.5
t150.5 -32.5q59 0 111.5 19.5t95.5 51t74.5 73.5t49.5 87l322 -90q-31 -98 -91.5 -181t-144 -144.5t-189 -96.5t-228.5 -35q-154 0 -288 61.5t-232.5 168t-155.5 250t-57 307.5z" />
    <glyph glyph-name="trademark" unicode="&#x2122;" horiz-adv-x="2165" 
d="M10 1272v284h795v-284h-197v92h-82v-330h86v-194h-460v194h135v330h-82v-92h-195zM805 840v194h113v318h-66v204h383l197 -241l233 241h360v-204h-106v-318h106v-194h-440v194h94v248l-194 -238h-133l-195 228l-2 -238h90v-194h-440z" />
    <glyph glyph-name="uni25FC" unicode="&#x25fc;" horiz-adv-x="1035" 
d="M0 0v1035h1035v-1035h-1035z" />
    </font>
</defs>
</svg>
