<?xml version="1.0" standalone="no"?>
<!DOCTYPE svg PUBLIC "-//W3C//DTD SVG 1.1//EN" "http://www.w3.org/Graphics/SVG/1.1/DTD/svg11.dtd" >
<svg xmlns="http://www.w3.org/2000/svg" xmlns:xlink="http://www.w3.org/1999/xlink" version="1.1">
<metadata>
Created by FontForge 20170731 at Mon Apr  7 20:55:40 2014
 By ,,,
Copyright (c) 2013 Anton Koovit.
</metadata>
<defs>
<font id="ArvoRegular" horiz-adv-x="721" >
  <font-face 
    font-family="ArvoRegular"
    font-weight="400"
    font-stretch="normal"
    units-per-em="2048"
    panose-1="2 6 6 3 4 2 2 9 3 4"
    ascent="1638"
    descent="-410"
    x-height="1036"
    cap-height="1516"
    bbox="-20 -506 2550 1974"
    underline-thickness="50"
    underline-position="-150"
    unicode-range="U+000D-25FC"
  />
<missing-glyph horiz-adv-x="748" 
d="M68 0v1365h544v-1365h-544zM136 68h408v1229h-408v-1229z" />
    <glyph glyph-name=".notdef" horiz-adv-x="748" 
d="M68 0v1365h544v-1365h-544zM136 68h408v1229h-408v-1229z" />
    <glyph glyph-name="glyph1" horiz-adv-x="2048" 
 />
    <glyph glyph-name="glyph1" horiz-adv-x="2048" 
 />
    <glyph glyph-name="uni000D" unicode="&#xd;" horiz-adv-x="0" 
 />
    <glyph glyph-name="space" unicode=" " horiz-adv-x="449" 
 />
    <glyph glyph-name="exclam" unicode="!" horiz-adv-x="682" 
d="M211 121q0 26 10.5 49.5t28 41t41.5 28t51 10.5q26 0 49.5 -10.5t41 -28t28 -41t10.5 -49.5q0 -27 -10.5 -51t-28 -42.5t-41 -29t-49.5 -10.5q-27 0 -51 10.5t-41.5 29t-28 42.5t-10.5 51zM211 1577h260l-41 -1167h-178z" />
    <glyph glyph-name="quotedbl" unicode="&#x22;" horiz-adv-x="651" 
d="M41 1577h228l-18 -518h-169zM405 1577h230l-47 -518h-169z" />
    <glyph glyph-name="numbersign" unicode="#" horiz-adv-x="1423" 
d="M20 389l41 195h239l82 415h-253l41 199h252l63 318h191l-62 -318h351l63 318h191l-62 -318h225l-39 -199h-225l-81 -415h239l-37 -195h-240l-75 -389h-193l76 389h-351l-75 -389h-197l77 389h-241zM494 584h351l81 415h-351z" />
    <glyph glyph-name="dollar" unicode="$" horiz-adv-x="1210" 
d="M150 303v172h251v-11l2 1q0 -81 56 -123.5t166 -42.5q100 0 158.5 39t58.5 111q0 37 -19.5 62t-49 41.5t-65.5 26.5t-69 19l-176 47q-57 15 -105 39.5t-82.5 60.5t-53.5 85t-19 114q0 58 21 107.5t61 87.5t98.5 63t132.5 36v341h197v-342q85 -15 147 -54t100 -93h101
v-172h-209l-23 -3v3h-2v22q-10 65 -65 105t-146 40q-109 0 -166 -35.5t-57 -97.5q0 -42 18.5 -67t46.5 -40.5t61.5 -24t64.5 -17.5l174 -53q66 -20 118.5 -45.5t88.5 -59.5t55.5 -79.5t19.5 -106.5q0 -62 -23.5 -115.5t-66.5 -95.5t-103.5 -71t-133.5 -41v-322h-197v322
q-99 16 -156.5 61t-90.5 106h-119z" />
    <glyph glyph-name="percent" unicode="%" horiz-adv-x="1731" 
d="M75 1167q0 67 25 127.5t70.5 106t108.5 72t138 26.5t138 -26.5t108 -72t70.5 -106t25.5 -127.5q0 -68 -24.5 -128t-69.5 -106t-108 -72.5t-140 -26.5q-78 0 -141 26.5t-107.5 72.5t-69 106t-24.5 128zM212 -16l1040 1556h195l-1041 -1556h-194zM244 1167
q0 -35 13.5 -66.5t37 -55t55 -37t67.5 -13.5q35 0 66 13.5t54 36.5t36.5 54.5t13.5 67.5t-13.5 67t-36.5 53.5t-54 35t-66 12.5q-36 0 -67.5 -12.5t-55 -35t-37 -53.5t-13.5 -67zM941 323q0 67 25 127t70.5 105.5t108.5 72.5t138 27t138 -27t108.5 -72.5t70.5 -105.5
t25 -127q0 -68 -24.5 -128.5t-69 -106t-107.5 -72.5t-141 -27t-141 27t-107.5 72.5t-69 106t-24.5 128.5zM1111 323q0 -35 13.5 -66.5t37 -55t55 -37t66.5 -13.5t66 13.5t54 36.5t36.5 54.5t13.5 67.5t-13.5 66.5t-36.5 53t-54 35.5t-66 13t-66.5 -13t-55 -35.5t-37 -53
t-13.5 -66.5z" />
    <glyph glyph-name="ampersand" unicode="&#x26;" horiz-adv-x="1468" 
d="M143 426q0 61 18.5 118.5t51 107.5t76 90t135.5 87l-66 64q-26 24 -50.5 55t-43 67t-30 75t-11.5 77q0 80 31 149t84.5 120t125.5 80.5t154 29.5q87 0 161.5 -31t128.5 -83t85 -121t31 -144q0 -60 -12 -105.5t-34 -81.5t-52.5 -65.5t-65 -54.5t-70.5 -45.5t-74 -39.5
l306 -285q32 73 51.5 144.5t30.5 129.5h188q-17 -94 -52 -195t-89 -198l276 -256l-139 -121l-236 228q-42 -52 -91 -95t-104.5 -74.5t-118 -49t-132.5 -17.5q-97 0 -181.5 34t-147 93t-98.5 139.5t-36 173.5zM322 430q0 -58 22.5 -107.5t62 -85.5t93 -56.5t114.5 -20.5
q52 0 98 13t86 36.5t73.5 56t62.5 70.5l-380 367l-81 -37q-34 -14 -61.5 -38.5t-47.5 -56t-31 -68t-11 -73.5zM397 1169q0 -42 20.5 -88.5t74.5 -97.5l89 -83q59 26 111 56t92 70q26 28 44 64.5t18 76.5q0 42 -18.5 81t-49.5 69t-72.5 47.5t-87.5 17.5q-50 0 -90.5 -16.5
t-69.5 -45.5t-45 -67.5t-16 -83.5z" />
    <glyph glyph-name="quotesingle" unicode="'" horiz-adv-x="340" 
d="M37 1059v518l197 16l-48 -534h-149z" />
    <glyph glyph-name="parenleft" unicode="(" 
d="M141 590q0 142 27 280.5t77.5 269.5t122.5 254.5t162 235.5l138 -110q-79 -100 -140.5 -211t-103.5 -229t-64 -241.5t-22 -248.5t22 -248.5t64 -242t103.5 -229t140.5 -210.5l-138 -111q-90 112 -162 235.5t-122.5 255t-77.5 270t-27 280.5z" />
    <glyph glyph-name="parenright" unicode=")" 
d="M53 -340q79 100 140.5 210.5t103.5 229t64 242t22 248.5t-22 248.5t-64 241.5t-103.5 229t-140.5 211l137 110q90 -112 162 -235.5t123 -254.5t78 -269.5t27 -280.5t-27 -280.5t-78 -270t-123 -255t-162 -235.5z" />
    <glyph glyph-name="asterisk" unicode="*" horiz-adv-x="836" 
d="M59 1257l39 125l252 -82v246h133v-251l248 81l37 -119l-249 -80l157 -214l-109 -72l-149 206l-148 -204l-108 70l155 212z" />
    <glyph glyph-name="plus" unicode="+" horiz-adv-x="1311" 
d="M143 608v183h420v419h182v-419h422v-183h-422v-422h-182v422h-420z" />
    <glyph glyph-name="comma" unicode="," horiz-adv-x="569" 
d="M20 -287l185 570l219 -86l-260 -537z" />
    <glyph glyph-name="hyphen" unicode="-" horiz-adv-x="737" 
d="M94 496v172h551v-172h-551z" />
    <glyph glyph-name="period" unicode="." horiz-adv-x="457" 
d="M96 121q0 26 10.5 49.5t28.5 41t41.5 28t50.5 10.5q26 0 49.5 -10.5t41 -28t28 -41t10.5 -49.5q0 -27 -10.5 -51t-28 -42.5t-41 -29t-49.5 -10.5q-27 0 -50.5 10.5t-41.5 29t-28.5 42.5t-10.5 51z" />
    <glyph glyph-name="slash" unicode="/" horiz-adv-x="848" 
d="M37 -29l600 1598h174l-600 -1598h-174z" />
    <glyph glyph-name="zero" unicode="0" horiz-adv-x="1329" 
d="M88 756q0 173 38 323.5t102 241.5t161.5 155t267.5 64q161 0 268 -51t176.5 -156.5t97.5 -254.5t28 -316q0 -163 -28 -305t-94.5 -247.5t-176.5 -166.5t-273 -61q-162 0 -271 60t-174.5 165t-93.5 246t-28 303zM293 762q0 -124 12.5 -233.5t51 -191.5t110 -129.5
t188.5 -47.5t188.5 47.5t108 129.5t54.5 191.5t18 233.5q0 119 -14 228.5t-54 193.5t-112 134t-187 50q-119 0 -188 -50t-103 -120.5t-53.5 -193.5t-19.5 -242z" />
    <glyph glyph-name="one" unicode="1" horiz-adv-x="858" 
d="M82 1114v209l422 236h80v-1387h149v-172h-491v172h147v1109z" />
    <glyph glyph-name="two" unicode="2" horiz-adv-x="1100" 
d="M86 1104q1 95 37 175.5t96.5 139t140.5 91t168 32.5q102 0 185 -32.5t142 -89.5t91.5 -135t32.5 -169q0 -36 -8.5 -76.5t-29 -87t-54 -99.5t-84.5 -114l-473 -563h647v-176h-889v147l533 644q27 32 56.5 69t55 78t42 85.5t16.5 92.5q0 50 -20 94t-55 77t-83.5 52
t-106.5 19q-52 0 -98.5 -16.5t-81.5 -48.5t-56.5 -79.5t-23.5 -109.5h-180z" />
    <glyph glyph-name="three" unicode="3" horiz-adv-x="1110" 
d="M41 365h192q29 -93 103.5 -146t189.5 -53q52 0 101.5 21t87.5 58.5t61 88t23 110.5q0 63 -23 114t-62 86.5t-90.5 55t-109.5 19.5h-86v151h70q66 0 118.5 19.5t88.5 53.5t55.5 79.5t19.5 97.5q0 39 -16.5 83.5t-51 82t-87 62t-123.5 24.5q-59 0 -107.5 -20.5t-96.5 -76.5
t-52 -124h-190q5 87 43.5 157t97.5 123t138 84t165 31q107 0 194 -35.5t148.5 -94t95 -133.5t33.5 -153q0 -48 -12 -96t-37.5 -91.5t-65.5 -80.5t-97 -65q47 -18 88.5 -50.5t72.5 -77.5t49 -102t18 -125q0 -98 -38 -181.5t-103 -144.5t-152.5 -95.5t-187.5 -34.5
q-92 0 -182.5 32.5t-153.5 92.5t-93 125t-36 129z" />
    <glyph glyph-name="four" unicode="4" horiz-adv-x="1251" 
d="M90 438l2 158l539 920h213l-513 -906h388v250l196 14v-264h226v-172h-226v-266h150v-172h-492v172h146v266h-629z" />
    <glyph glyph-name="five" unicode="5" horiz-adv-x="1139" 
d="M74 289l164 82q16 -51 47 -94.5t73 -75t93 -49t108 -17.5q72 0 133.5 26.5t107 72.5t71.5 107.5t26 131.5q0 71 -26 131.5t-72 105t-107.5 70t-132.5 25.5q-80 0 -147.5 -28.5t-112.5 -76.5l-147 23v793h854v-166h-689v-456q56 38 115 57.5t135 19.5q112 0 206 -40
t161.5 -108t105 -158.5t37.5 -191.5q0 -102 -37 -193.5t-105 -160.5t-163.5 -109.5t-212.5 -40.5q-89 0 -166 23.5t-139 66t-107.5 101.5t-72.5 129z" />
    <glyph glyph-name="six" unicode="6" horiz-adv-x="1249" 
d="M94 488q0 88 33.5 174t83.5 180l371 674h233l-340 -567q61 26 110.5 30t88.5 4q92 0 178 -34.5t152.5 -97t106.5 -149t40 -190.5q0 -127 -43 -226t-116 -167t-169.5 -103.5t-204.5 -35.5q-102 0 -196.5 37t-167.5 103.5t-116.5 160t-43.5 207.5zM281 486q0 -78 26 -140
t72 -104.5t108.5 -65t135.5 -22.5q68 0 130 24t109 68t75 105t28 135q0 82 -30 144.5t-80.5 104.5t-117.5 63t-141 21q-72 0 -122.5 -22.5t-95.5 -63t-71 -103t-26 -144.5z" />
    <glyph glyph-name="seven" unicode="7" horiz-adv-x="1077" 
d="M41 1206v310h995v-150q-66 -130 -138 -275.5t-142.5 -298.5t-136.5 -310t-120 -310h126v-172h-443v172h117q54 154 119 312.5t132 308.5t132 285.5t119 244.5h-568v-117h-192z" />
    <glyph glyph-name="eight" unicode="8" horiz-adv-x="1276" 
d="M139 442q0 61 16.5 118.5t47 107t73 91t94.5 71.5q-76 55 -120.5 137.5t-44.5 179.5q0 82 33 154.5t90.5 126.5t135.5 85t167 31q86 0 162.5 -31t134.5 -85t91.5 -126.5t33.5 -154.5q0 -98 -46 -181t-123 -137q51 -30 93 -71.5t72 -91t46.5 -106.5t16.5 -118
q0 -95 -38.5 -178t-104.5 -145.5t-154 -98.5t-188 -36q-101 0 -190 36t-155 98.5t-104.5 145.5t-38.5 178zM322 446q0 -59 24 -111.5t65.5 -91.5t97 -62t118.5 -23q62 0 117 23t96.5 62t65.5 91.5t24 111.5q0 58 -24 110t-65.5 91t-96.5 61.5t-117 22.5q-63 0 -118.5 -22.5
t-97 -61.5t-65.5 -91t-24 -110zM377 1143q0 -50 19 -93.5t53 -76t80.5 -51.5t101.5 -19q51 0 96 19t79.5 51.5t54.5 76t20 93.5q0 49 -20 92.5t-54.5 76t-79.5 51.5t-96 19q-55 0 -101.5 -19t-80.5 -51.5t-53 -76t-19 -92.5z" />
    <glyph glyph-name="nine" unicode="9" horiz-adv-x="1270" 
d="M103 1009q0 127 43 226t116 167t169.5 103.5t204.5 35.5t201.5 -36t166.5 -103.5t114.5 -161t41.5 -207.5q0 -88 -33.5 -174t-83.5 -180l-380 -679h-233l349 572q-50 -20 -91 -27t-88 -7q-88 0 -182.5 34.5t-161 97t-110 154t-43.5 185.5zM289 1035q0 -82 30 -144.5
t80.5 -104.5t113 -63t125.5 -21q92 0 142.5 22.5t95.5 63t71 103t26 144.5q0 78 -26 140t-72 104.5t-108.5 65t-135.5 22.5q-68 0 -130 -24t-109 -68t-75 -105t-28 -135z" />
    <glyph glyph-name="colon" unicode=":" horiz-adv-x="524" 
d="M96 121q0 26 10.5 49.5t28.5 41t41.5 28t50.5 10.5q26 0 49.5 -10.5t41 -28t28 -41t10.5 -49.5q0 -27 -10.5 -51t-28 -42.5t-41 -29t-49.5 -10.5q-27 0 -50.5 10.5t-41.5 29t-28.5 42.5t-10.5 51zM96 907q0 26 10.5 49.5t28.5 41t41.5 28t50.5 10.5q26 0 49.5 -10.5
t41 -28t28 -41t10.5 -49.5q0 -27 -10.5 -51t-28 -42t-41 -29t-49.5 -11q-27 0 -50.5 11t-41.5 29t-28.5 42t-10.5 51z" />
    <glyph glyph-name="semicolon" unicode=";" horiz-adv-x="524" 
d="M-20 -287l184 570l219 -86l-260 -537zM96 907q0 26 10.5 49.5t28.5 41t41.5 28t50.5 10.5q26 0 49.5 -10.5t41 -28t28 -41t10.5 -49.5q0 -27 -10.5 -51t-28 -42t-41 -29t-49.5 -11q-27 0 -50.5 11t-41.5 29t-28.5 42t-10.5 51z" />
    <glyph glyph-name="less" unicode="&#x3c;" horiz-adv-x="1001" 
d="M10 605v156l843 423v-185l-678 -315l678 -315v-185z" />
    <glyph glyph-name="equal" unicode="=" horiz-adv-x="922" 
d="M86 305v141h750v-141h-750zM86 643v141h750v-141h-750z" />
    <glyph glyph-name="greater" unicode="&#x3e;" horiz-adv-x="1147" 
d="M164 184v185l678 315l-678 315v185l843 -423v-156z" />
    <glyph glyph-name="question" unicode="?" horiz-adv-x="1065" 
d="M121 1137q5 84 40.5 159t95.5 131.5t142 90t181 33.5q100 0 177.5 -33t130.5 -88t80 -127.5t27 -151.5q0 -102 -52 -188t-155 -158q-47 -33 -107.5 -85t-86 -128.5t-29.5 -128t-4 -127.5h-180q0 104 7.5 176.5t28.5 133t58 105.5t96 95q53 45 96.5 78t74.5 64.5t48 68
t17 88.5q0 45 -18 87t-48.5 74.5t-72 52.5t-88.5 20q-81 0 -135 -28t-87 -67.5t-47 -83.5t-14 -75zM338 121q0 26 10.5 49.5t28 41t41.5 28t51 10.5q26 0 49.5 -10.5t41 -28t28 -41t10.5 -49.5q0 -27 -10.5 -51t-28 -42.5t-41 -29t-49.5 -10.5q-27 0 -51 10.5t-41.5 29
t-28 42.5t-10.5 51z" />
    <glyph glyph-name="at" unicode="@" horiz-adv-x="2310" 
d="M145 494q0 137 35.5 264.5t100.5 238.5t156.5 202t202.5 156t239 100.5t266 35.5q140 0 268.5 -34.5t239.5 -96.5t202 -149t155.5 -192t100 -224.5t35.5 -247.5q0 -68 -13 -137t-39 -132t-63.5 -118t-87 -95.5t-109.5 -64t-130 -23.5q-92 0 -154 40t-97 103
q-63 -52 -142 -81t-170 -29q-105 0 -192.5 36.5t-151.5 100.5t-99.5 149t-35.5 183q0 97 37 182.5t101.5 149.5t152 101.5t188.5 37.5q73 0 140 -20t124 -57v83h184v-663q0 -61 17.5 -92t41.5 -45.5t61 -14.5q74 0 123 40.5t78 97.5t40.5 117.5t11.5 150.5q0 102 -29 197.5
t-81.5 180t-126.5 155t-165 121t-196 78.5t-219 28q-113 0 -217.5 -29t-195 -82t-165 -127t-127 -164.5t-81.5 -194.5t-29 -216q0 -113 29 -217.5t81.5 -195.5t127 -165t165 -127t195 -82t217.5 -29q115 0 222 30.5t200 86.5l94 -157q-113 -69 -243.5 -106.5t-272.5 -37.5
q-138 0 -266 35.5t-239 100.5t-202.5 156.5t-156.5 202.5t-100.5 239t-35.5 266zM846 479q0 -59 21 -110.5t59.5 -90t93 -61t121.5 -22.5q94 0 162 43.5t102 112.5v253q-17 35 -43.5 65t-60.5 51.5t-74.5 33.5t-85.5 12q-64 0 -118 -23t-93.5 -62t-61.5 -91.5t-22 -110.5z
" />
    <glyph glyph-name="A" unicode="A" horiz-adv-x="1542" 
d="M10 0v172h132l472 1344h295l471 -1344h152v-172h-492v172h126l-120 344h-583l-117 -344h156v-172h-492zM520 682h468l-236 678z" />
    <glyph glyph-name="B" unicode="B" horiz-adv-x="1352" 
d="M143 0v172h144v1171h-144v175l682 -2q92 0 173 -34.5t141 -94t94.5 -140.5t34.5 -174q0 -97 -54 -177t-154 -128q49 -26 89 -60.5t68 -75.5t43.5 -87t15.5 -94q0 -95 -34.5 -177t-94.5 -143t-140.5 -96t-172.5 -35h-691zM483 172h353q48 0 89 24t72 62.5t48.5 87.5
t17.5 100q0 44 -18 85t-48.5 73t-72 51t-88.5 19h-353v-502zM483 848h344q48 0 89.5 19t72 51t48.5 74t18 87q0 49 -18 96.5t-49 84.5t-72.5 60t-88.5 23h-344v-495z" />
    <glyph glyph-name="C" unicode="C" horiz-adv-x="1503" 
d="M72 760q0 162 53.5 306t150 250.5t230 168t289.5 61.5q139 0 240 -39.5t171.5 -94t121.5 -118.5h106v-178h-215q-67 114 -177.5 179t-246.5 65q-116 0 -212 -49t-164.5 -131.5t-106.5 -191t-38 -228.5q0 -142 42 -251.5t109.5 -182t160.5 -121t209 -48.5q158 0 275 76.5
t200 251.5l176 -83q-38 -108 -129 -208.5t-224.5 -162t-295.5 -61.5q-155 0 -285 58.5t-231.5 166.5t-155 256t-53.5 309z" />
    <glyph glyph-name="D" unicode="D" horiz-adv-x="1520" 
d="M143 0v172h144v1171h-144v173h564q104 0 198 -27t175 -76t147 -117.5t112.5 -152.5t71.5 -180.5t25 -200.5q0 -106 -25 -203t-71.5 -182t-112.5 -154.5t-147 -119t-175 -76.5t-198 -27h-564zM483 172h236q105 0 197.5 46t161.5 125.5t109 187t40 231.5q0 122 -40 228
t-109 184.5t-161.5 123.5t-197.5 45h-236v-1171z" />
    <glyph glyph-name="E" unicode="E" horiz-adv-x="1286" 
d="M143 0v172h144v1171h-144v173h1086v-429h-205v256h-541v-485h455v-172h-455v-514h541v256h205v-428h-1086z" />
    <glyph glyph-name="F" unicode="F" horiz-adv-x="1247" 
d="M143 0v172h144v1171h-144v173h1086v-429h-205v256h-541v-487h521v-168h-521v-516h152v-172h-492z" />
    <glyph glyph-name="G" unicode="G" horiz-adv-x="1677" 
d="M72 760q0 162 53.5 306t150 251t230 168t289.5 61q144 0 247.5 -41t177 -99.5t117.5 -111.5h97v-178h-215q-67 114 -177 180q-108 64 -240 64h-8q-115 0 -211 -49t-164.5 -132t-106.5 -191t-38 -228q0 -133 42 -247t107 -185t160.5 -117.5t211.5 -46.5q192 0 315 93.5
t172 291.5h-424v172h641v-727h-186v304q-38 -79 -95 -137.5t-127 -96.5t-149.5 -57t-161.5 -19q-148 0 -273 49.5t-226.5 157.5t-155 256t-53.5 309z" />
    <glyph glyph-name="H" unicode="H" horiz-adv-x="1843" 
d="M143 0v172h144v1172h-144v172h492v-172h-152v-459h877v459h-152v172h492v-172h-144v-1172h144v-172h-492v172h152v545h-877v-545h152v-172h-492z" />
    <glyph glyph-name="I" unicode="I" horiz-adv-x="770" 
d="M143 0v172h144v1171h-144v173h484v-173h-144v-1171h144v-172h-484z" />
    <glyph glyph-name="J" unicode="J" horiz-adv-x="670" 
d="M87 -223q59 90 106 172q20 35 39 71.5t34 70.5t24.5 63.5t9.5 50.5v1138h-165v173h491v-173h-127v-1171q0 -22 -10.5 -51.5t-27 -62.5t-38.5 -67.5t-44 -67.5q-53 -77 -120 -161z" />
    <glyph glyph-name="K" unicode="K" horiz-adv-x="1563" 
d="M143 0v172h144v1171h-142v173h492v-173h-154v-1171h152v-172h-492zM485 774l662 569v173h348v-173h-119l-664 -559l621 -612h162v-172h-408v172z" />
    <glyph glyph-name="L" unicode="L" horiz-adv-x="1296" 
d="M143 0v172h144v1171h-144v173h492v-173h-152v-1171h523q16 0 32 7.5t29 19.5t21 27.5t8 31.5v191h190v-449h-1143z" />
    <glyph glyph-name="M" unicode="M" horiz-adv-x="2175" 
d="M143 0v172h144v1153h-144v191h480l481 -1309l487 1309h455v-191h-143v-1153h143v-172h-492v172h162v1164l-530 -1336h-170l-537 1339v-1167h156v-172h-492z" />
    <glyph glyph-name="N" unicode="N" horiz-adv-x="1624" 
d="M143 1343v175h408l692 -1245l8 48v1022h-170v173h492v-173h-129v-1343h-256l-705 1257v-1085h156v-172h-492v172h140v1171h-144z" />
    <glyph glyph-name="O" unicode="O" horiz-adv-x="1602" 
d="M72 758q0 164 53.5 308t150 250.5t230 168t293.5 61.5q161 0 295 -61.5t230 -168t149 -250.5t53 -308t-53.5 -307.5t-150 -250.5t-230 -168.5t-293.5 -61.5q-157 0 -287 58.5t-232 166.5t-155 256t-53 307zM276 758q0 -140 41 -249.5t108.5 -182t161 -121.5t212.5 -49
t215.5 49t164.5 131.5t105 191.5t37 230q0 124 -40.5 239.5t-113 195.5t-168.5 123.5t-200 43.5q-119 0 -216 -49t-165 -131.5t-105 -192t-37 -229.5z" />
    <glyph glyph-name="P" unicode="P" horiz-adv-x="1272" 
d="M143 0v172h144v1171h-144v173h613q102 0 187.5 -26.5t148 -78t97 -128.5t34.5 -177q0 -83 -34 -156.5t-96 -128.5t-148.5 -87t-192.5 -32h-269v-530h152v-172h-492zM483 866h273q57 0 104.5 15.5t82 45.5t54 75t19.5 104q0 112 -68 174.5t-217 62.5h-248v-477z" />
    <glyph glyph-name="Q" unicode="Q" horiz-adv-x="1597" 
d="M72 758q0 164 53.5 308t150 250.5t230 168t293.5 61.5q161 0 295 -61.5t230 -168t149 -250.5t53 -308q0 -152 -46.5 -286.5t-130.5 -239t-201 -172.5t-258 -85q65 -17 104 -40t98 -52.5t118 -29.5q57 0 101.5 28.5t58.5 87.5l152 -69q-12 -56 -44.5 -98.5t-76 -71
t-93.5 -42.5t-98 -14q-77 0 -144.5 28t-141.5 68t-142 40q-41 0 -84 -13v179q-140 19 -255.5 87t-198 172.5t-127.5 238.5t-45 284zM276 758q0 -137 40.5 -247t107.5 -183.5t166.5 -122.5t208.5 -49q119 0 215.5 49t164.5 131.5t105 191.5t37 230q0 124 -40.5 238.5
t-113.5 195.5t-166 124.5t-202 43.5q-119 0 -216 -49t-165 -131.5t-105 -192t-37 -229.5z" />
    <glyph glyph-name="R" unicode="R" horiz-adv-x="1464" 
d="M143 0v172h144v1171h-144v173h631q101 0 186.5 -26.5t148 -78t97.5 -128.5t35 -177q0 -57 -20.5 -112.5t-57 -103t-86.5 -84.5t-109 -57q25 -11 50.5 -31.5t48 -50t41 -67t29.5 -80.5l84 -330h131l2 -190h-295l-113 461q-31 124 -94.5 182.5t-173.5 58.5h-195v-530h152
v-172h-492zM483 866h291q57 0 104.5 15t82 45t54 74.5t19.5 103.5q0 113 -68 176t-216 63h-267v-477z" />
    <glyph glyph-name="S" unicode="S" horiz-adv-x="1210" 
d="M80 283v172h252q0 -111 23.5 -157t65.5 -76.5t100 -46t128 -15.5q68 0 122.5 16t93 46.5t59 74t20.5 98.5q0 61 -25.5 103.5t-65.5 72.5t-87.5 49t-91.5 33l-219 62q-72 22 -131.5 56t-102 83t-65.5 114.5t-23 151.5q0 87 34 163t100 133t161.5 89.5t218.5 32.5
q81 0 149.5 -19t124 -53.5t98 -83t71.5 -106.5h75v-172h-245q0 88 -32 132t-70.5 67.5t-84.5 36t-92 12.5q-76 0 -133 -17.5t-94.5 -47.5t-56.5 -70t-19 -84q0 -66 23.5 -106.5t59.5 -65t79.5 -38.5t83.5 -28l202 -66q91 -29 160.5 -66t116.5 -87.5t71.5 -116.5t24.5 -153
q0 -94 -38.5 -174t-107.5 -139t-164.5 -92.5t-209.5 -33.5q-117 0 -200 26.5t-139.5 71t-90.5 101.5t-53 117h-76z" />
    <glyph glyph-name="T" unicode="T" horiz-adv-x="1434" 
d="M41 1116v400h1352v-400h-205v236h-400v-1180h156v-172h-491v172h139v1180h-346v-236h-205z" />
    <glyph glyph-name="U" unicode="U" horiz-adv-x="1559" 
d="M63 1343v173h491v-173h-155v-706q0 -127 28.5 -216.5t79 -146t120 -82.5t152.5 -26q86 0 158 23t123.5 77.5t80 145t28.5 225.5v706h-164v173h491v-173h-135v-684q0 -164 -45.5 -291t-124.5 -213t-186 -130.5t-230 -44.5q-120 0 -224.5 44t-182 129t-122 207.5
t-44.5 280.5v702h-139z" />
    <glyph glyph-name="V" unicode="V" horiz-adv-x="1485" 
d="M-10 1343v173h492v-173h-132l389 -1169l417 1169h-143v173h492v-173h-131l-491 -1343h-275l-484 1343h-134z" />
    <glyph glyph-name="W" unicode="W" horiz-adv-x="2560" 
d="M10 1343v173h492v-173h-132l367 -1165l387 1338h299l412 -1338l374 1165h-151v173h492v-173h-132l-433 -1343h-306l-411 1321l-379 -1321h-303l-442 1343h-134z" />
    <glyph glyph-name="X" unicode="X" horiz-adv-x="1552" 
d="M170 0v172h99l432 603l-408 568h-123v173h492v-173h-146l295 -415l298 415h-159v173h492v-173h-112l-410 -569l428 -602h94v-172h-492v172h185l-324 451l-326 -451h177v-172h-492z" />
    <glyph glyph-name="Y" unicode="Y" horiz-adv-x="1354" 
d="M51 1343v173h492v-173h-144l285 -487l305 487h-158v173h492v-173h-129l-426 -646v-525h156v-172h-492v172h139v530l-402 641h-118z" />
    <glyph glyph-name="Z" unicode="Z" horiz-adv-x="1214" 
d="M51 0v227l900 1116h-687v-256h-196v429h1095v-224l-913 -1120h711v252h196v-424h-1106z" />
    <glyph glyph-name="bracketleft" unicode="[" 
d="M238 -377v2083h403v-151h-219v-1780h219v-152h-403z" />
    <glyph glyph-name="backslash" unicode="\" horiz-adv-x="948" 
d="M41 1581h162l704 -1606h-162z" />
    <glyph glyph-name="bracketright" unicode="]" 
d="M80 -225h219v1780h-219v151h403v-2083h-403v152z" />
    <glyph glyph-name="asciicircum" unicode="^" horiz-adv-x="1229" 
d="M156 723l403 790h113l403 -790h-143l-315 626l-320 -626h-141z" />
    <glyph glyph-name="underscore" unicode="_" horiz-adv-x="1024" 
d="M0 -154h1024v-102h-1024v102z" />
    <glyph glyph-name="grave" unicode="`" horiz-adv-x="594" 
d="M100 1460v17h248l184 -299h-145z" />
    <glyph glyph-name="a" unicode="a" horiz-adv-x="1120" 
d="M70 274q0 66 19.5 117t52 88.5t76 63t91 41t97 22t94.5 6.5q72 0 121 -4.5t89 -12.5l1 85q0 55 -16 95.5t-45 67t-69.5 39.5t-90.5 13q-47 0 -90 -6.5t-80.5 -17t-69 -24t-53.5 -28.5l-61 129q37 24 81 44.5t92.5 35t99 23t99.5 8.5q90 0 162 -21.5t122 -66.5t77 -114.5
t27 -166.5l-1 -518h115v-172h-301v96q-59 -55 -130.5 -90t-162.5 -35q-76 0 -139.5 24t-109.5 65.5t-71.5 96.5t-25.5 117zM250 291q0 -41 15 -71.5t42.5 -51t65.5 -31t84 -10.5q37 0 74 9t70 24.5t61 36t47 42.5l1 234h-216q-54 0 -98.5 -12t-77 -35t-50.5 -57t-18 -78z
" />
    <glyph glyph-name="b" unicode="b" horiz-adv-x="1253" 
d="M57 1384v172h336v-606q66 51 144 81t161 30q102 0 187 -38t146.5 -107t95.5 -165.5t34 -213.5q0 -125 -38 -226.5t-105.5 -174.5t-160.5 -112.5t-204 -39.5q-77 0 -144.5 22.5t-115.5 58.5v-65h-186v1384h-150zM393 229q32 -33 94 -58.5t156 -25.5q64 0 123 24t104 72.5
t72 120.5t27 168q0 88 -25.5 156t-69 115t-101.5 71.5t-124 24.5q-73 0 -140 -30t-116 -81v-557z" />
    <glyph glyph-name="c" unicode="c" horiz-adv-x="1116" 
d="M92 520q0 120 39 221t107 173.5t159 113.5t195 41q98 0 185.5 -34t153.5 -103h105v-172h-188q-42 75 -106.5 110t-149.5 35q-65 0 -122 -27t-99.5 -77t-67 -121.5t-24.5 -159.5q0 -87 24.5 -157t67.5 -119.5t99.5 -76t121.5 -26.5q96 0 167 46.5t113 136.5l154 -76
q-30 -64 -74 -115t-99.5 -87t-122 -55.5t-140.5 -19.5q-108 0 -199.5 40.5t-158 113.5t-103.5 174t-37 221z" />
    <glyph glyph-name="d" unicode="d" horiz-adv-x="1268" 
d="M92 528q0 120 36 218.5t102 168t159 108t207 38.5q75 0 137 -16.5t119 -57.5v397h-141v172h327v-1384h152v-172h-338v85q-50 -51 -116 -79.5t-150 -28.5q-105 0 -195.5 36.5t-157 107t-104 173t-37.5 234.5zM285 530q0 -96 24 -169t67 -122.5t103 -74.5t131 -25
q83 0 139 24.5t103 73.5v580q-50 42 -115 61t-133 19q-66 0 -124 -24.5t-101.5 -71.5t-68.5 -115t-25 -156z" />
    <glyph glyph-name="e" unicode="e" horiz-adv-x="1176" 
d="M92 522q0 111 31 209.5t92.5 172t152.5 116.5t212 43q117 0 195.5 -35.5t128 -94t75 -133.5t35.5 -153q5 -38 6.5 -77t1.5 -76h-746q0 -44 6.5 -80.5t18.5 -69.5q37 -100 118.5 -150.5t184.5 -50.5q81 0 157.5 22.5t160.5 70.5l75 -127q-102 -70 -205 -104t-214 -34
q-105 0 -194.5 35t-154 104t-101 172t-36.5 240zM286 639h537q-4 58 -18.5 107t-44.5 85t-77 56t-116 20q-65 0 -113.5 -18.5t-82.5 -53t-54.5 -84.5t-30.5 -112z" />
    <glyph glyph-name="f" unicode="f" horiz-adv-x="745" 
d="M85 885v151h171v162q2 90 26 157t68 112t106 67t138 22q53 0 95 -5t75 -13.5t58.5 -18.5t45.5 -20l-57 -133q-32 17 -83.5 29t-107.5 12q-83 0 -130.5 -51.5t-47.5 -151.5v-168h240v-151h-240v-713h162v-172h-504v172h156v713h-171z" />
    <glyph glyph-name="g" unicode="g" horiz-adv-x="1208" 
d="M92 528q0 120 36 218.5t102 168t159 108t207 38.5q78 0 140.5 -17.5t121.5 -60.5v53h186v-995q0 -246 -116.5 -372t-362.5 -126q-54 0 -113 8t-116.5 25.5t-112 44.5t-100.5 66l100 151q30 -26 68.5 -48t82.5 -37.5t91 -24.5t94 -9q77 0 133.5 16t93 56.5t54.5 109.5
t18 175v15q-51 -54 -118.5 -84t-153.5 -30q-105 0 -195.5 36.5t-157 107t-104 173t-37.5 234.5zM285 530q0 -96 24 -169t67 -122.5t103 -74.5t131 -25q46 0 84 9t69 23.5t54.5 33.5t40.5 40v567q-51 45 -117.5 65t-136.5 20q-66 0 -124 -24.5t-101.5 -71.5t-68.5 -115
t-25 -156z" />
    <glyph glyph-name="h" unicode="h" horiz-adv-x="1354" 
d="M100 0v172h156v1212h-142v172h328v-634h6q28 28 64.5 52.5t76.5 42.5t83 28t90 10q83 0 150 -23t114 -70t72.5 -120.5t25.5 -173.5v-496h156v-172h-492v172h142v473q0 119 -60.5 180.5t-173.5 61.5q-64 0 -130 -30.5t-124 -76.5v-608h150v-172h-492z" />
    <glyph glyph-name="i" unicode="i" horiz-adv-x="657" 
d="M92 864v172h338v-864h156v-172h-492v172h148v692h-150zM207 1403q0 26 10.5 49.5t28 41t41.5 28t51 10.5q26 0 49.5 -10.5t41 -28t28 -41t10.5 -49.5q0 -27 -10.5 -51t-28 -42.5t-41 -29t-49.5 -10.5q-27 0 -51 10.5t-41.5 29t-28 42.5t-10.5 51z" />
    <glyph glyph-name="j" unicode="j" horiz-adv-x="604" 
d="M61 -332q89 13 129.5 84.5t40.5 188.5v923h-147v172h336v-1116q0 -89 -23 -160.5t-66.5 -122t-106.5 -78.5t-144 -30zM207 1403q0 24 9.5 45t25.5 37t37.5 25.5t46.5 9.5q24 0 45.5 -9.5t37.5 -25.5t25.5 -37t9.5 -45q0 -25 -9.5 -47t-25.5 -38.5t-37.5 -26t-45.5 -9.5
q-25 0 -46.5 9.5t-37.5 26t-25.5 38.5t-9.5 47z" />
    <glyph glyph-name="k" unicode="k" horiz-adv-x="1276" 
d="M92 1384v172h365v-172h-2v-774h180l246 254h-62v172h393v-172h-131l-315 -325l344 -367h125v-172h-219l-424 463h-137v-291h86v-172h-443v172h170v1212h-176z" />
    <glyph glyph-name="l" unicode="l" horiz-adv-x="666" 
d="M92 0v172h150v1212h-150v172h336v-1384h156v-172h-492z" />
    <glyph glyph-name="m" unicode="m" horiz-adv-x="2040" 
d="M100 0v172h144v692h-144v172h330v-121h2q34 29 71.5 54.5t78.5 44.5t85.5 30t92.5 11q112 0 193 -41.5t125 -129.5q38 34 80 65.5t87.5 54.5t95.5 37t104 14q84 0 151 -23t114 -70t71.5 -120.5t24.5 -173.5v-496h144v-172h-484v172h146v473q0 119 -60 180.5t-173 61.5
q-67 0 -137 -32t-120 -81v-602h143v-172h-483v172h146v473q0 119 -60.5 180.5t-173.5 61.5q-65 0 -131 -31t-125 -77v-607h146v-172h-484z" />
    <glyph glyph-name="n" unicode="n" horiz-adv-x="1366" 
d="M100 0v172h144v692h-144v172h330v-122h2q33 29 70.5 55t78.5 45t85.5 30t93.5 11q83 0 150 -23t114 -70t72.5 -120.5t25.5 -173.5v-496h144v-172h-484v172h146v473q0 119 -60.5 180.5t-173.5 61.5q-65 0 -131 -31t-125 -77v-607h146v-172h-484z" />
    <glyph glyph-name="o" unicode="o" horiz-adv-x="1219" 
d="M86 518q1 123 39.5 224t107.5 173.5t164 111.5t209 39q115 0 210.5 -39t163.5 -110.5t106 -172.5t38 -224q0 -121 -38 -222.5t-106 -174.5t-163.5 -113.5t-210.5 -40.5q-117 0 -212 40t-163 112.5t-106 173.5t-39 223zM283 518q0 -89 25.5 -161t70 -122.5t103 -78
t124.5 -27.5q69 0 128.5 27t103.5 77.5t69 122.5t25 162q0 94 -25 167t-68.5 122t-103.5 74t-129 25q-66 0 -124.5 -25t-103 -74t-70 -122t-25.5 -167z" />
    <glyph glyph-name="p" unicode="p" horiz-adv-x="1249" 
d="M59 864v172h330v-86q66 51 144 81t161 30q102 0 187 -38t146.5 -107t95.5 -165.5t34 -213.5q0 -125 -38 -228t-105.5 -176.5t-160.5 -114.5t-204 -41q-79 0 -140.5 16.5t-117.5 42.5v-335h162v-172h-492v172h142v1163h-144zM391 227q33 -34 94.5 -61t153.5 -27
q64 0 123 25t104 74.5t72 122.5t27 169q0 88 -25.5 156t-69 115t-101.5 71.5t-124 24.5q-72 0 -138.5 -29t-115.5 -80v-561z" />
    <glyph glyph-name="q" unicode="q" horiz-adv-x="1206" 
d="M92 528q0 120 36 218.5t102 168t159 108t207 38.5q75 0 135 -16.5t117 -54.5v46h186v-1335h156v-172h-492v172h150v380q-50 -49 -115 -76.5t-147 -27.5q-105 0 -195.5 36.5t-157 107t-104 173t-37.5 234.5zM285 530q0 -96 24 -169t67 -122.5t103 -74.5t131 -25
q85 0 144 28t94 66v587q-50 41 -113.5 59t-130.5 18q-66 0 -124 -24.5t-101.5 -72t-68.5 -115.5t-25 -155z" />
    <glyph glyph-name="r" unicode="r" horiz-adv-x="961" 
d="M100 0v172h143l1 692h-144v172h331v-143q18 32 40.5 59.5t50 48t61 32t72.5 11.5h98t92 -2v-225h-190v64q-33 0 -67.5 -12.5t-64.5 -38t-52.5 -65t-32.5 -93.5v-500h176v-172h-514z" />
    <glyph glyph-name="s" unicode="s" horiz-adv-x="993" 
d="M82 111v172h207q0 -43 18.5 -73.5t49 -49.5t69 -28t78.5 -9q39 0 75 9.5t63.5 28t43.5 44.5t16 59q0 50 -32.5 85t-110.5 63l-198 74q-121 43 -179.5 109.5t-58.5 166.5q0 66 24.5 122t71 96.5t113.5 63.5t153 23q111 0 186 -31t135 -106h97v-172h-205q0 42 -19.5 71.5
t-50.5 48t-69 27t-74 8.5q-40 0 -73.5 -9t-57.5 -26t-37.5 -41.5t-13.5 -54.5q0 -52 31.5 -82.5t105.5 -56.5l199 -70q128 -43 187 -117t59 -177q0 -69 -27.5 -126.5t-78 -98t-121.5 -63t-158 -22.5q-121 0 -197 39t-117 103h-104z" />
    <glyph glyph-name="t" unicode="t" horiz-adv-x="762" 
d="M51 885v151h167v248l182 86v-334h243v-151h-245l-3 -598q0 -61 14 -99t45 -52.5t70 -14.5q42 0 74 7.5t70 25.5l43 -125q-48 -25 -101 -39.5t-125 -14.5q-68 0 -118.5 16.5t-85 55.5t-51.5 104.5t-17 163.5l3 570h-165z" />
    <glyph glyph-name="u" unicode="u" horiz-adv-x="1350" 
d="M60 864v172h334v-645q0 -119 55 -180t158 -61q61 0 128.5 22t127.5 61v631h-139v172h334v-864h115v-172h-302v96q-70 -54 -152.5 -84t-176.5 -30q-78 0 -141.5 22.5t-108 70t-68.5 120.5t-24 174v495h-140z" />
    <glyph glyph-name="v" unicode="v" horiz-adv-x="1100" 
d="M20 864v172h358v-172h-97l256 -714l250 714h-63v172h328v-172h-89l-339 -880h-184l-338 880h-82z" />
    <glyph glyph-name="w" unicode="w" horiz-adv-x="1640" 
d="M20 864v172h328v-172h-48l181 -661l248 833h156l237 -831l189 659h-60v172h328v-172h-89l-284 -880h-172l-235 827l-234 -827h-174l-282 880h-89z" />
    <glyph glyph-name="x" unicode="x" horiz-adv-x="1085" 
d="M51 864v172h344v-172h-39l191 -246l193 246h-50v172h344v-172h-89l-293 -338l310 -354h76v-172h-344v172h59l-206 256l-201 -256h51v-172h-344v172h84l315 367l-296 325h-105z" />
    <glyph glyph-name="y" unicode="y" horiz-adv-x="1176" 
d="M31 864v172h393v-172h-123l243 -661l254 661h-122v172h393v-172h-107l-461 -1163h142v-172h-418v172h126l110 285l-346 878h-84z" />
    <glyph glyph-name="z" unicode="z" horiz-adv-x="924" 
d="M76 0v115l525 766h-331v-146h-184v301h741v-118l-524 -762h354v176h193v-332h-774z" />
    <glyph glyph-name="braceleft" unicode="{" 
d="M133 596v127q42 0 73.5 23t52.5 60.5t31.5 85.5t10.5 98v452q0 63 18.5 112t48 83t67.5 51.5t77 17.5h137v-126h-69q-54 0 -74.5 -52.5t-20.5 -146.5v-428q0 -62 -13 -110t-35.5 -84t-53 -60t-66.5 -37v-4q36 -13 66.5 -37t53 -60t35.5 -84.5t13 -109.5v-418
q0 -94 20.5 -146.5t74.5 -52.5h69v-127h-137q-39 0 -77 17.5t-67.5 51.5t-48 83t-18.5 112v443q0 50 -10.5 97.5t-31.5 85t-52.5 60.5t-73.5 23z" />
    <glyph glyph-name="bar" unicode="|" horiz-adv-x="455" 
d="M152 -270v1996h155v-1996h-155z" />
    <glyph glyph-name="braceright" unicode="}" 
d="M72 -250h69q54 0 74.5 52.5t20.5 146.5v418q0 61 13 109.5t35.5 84.5t53 60t65.5 37v4q-35 13 -65.5 37t-53 60t-35.5 84t-13 110v428q0 94 -20.5 146.5t-74.5 52.5h-69v126h137q39 0 77 -17.5t67.5 -51.5t48 -83t18.5 -112v-452q0 -50 10.5 -98t31.5 -85.5t52.5 -60.5
t73.5 -23v-127q-42 0 -73.5 -23t-52.5 -60.5t-31.5 -85t-10.5 -97.5v-443q0 -63 -18.5 -112t-48 -83t-67.5 -51.5t-77 -17.5h-137v127z" />
    <glyph glyph-name="asciitilde" unicode="~" horiz-adv-x="1229" 
d="M141 483q45 84 106 130t150 46q58 0 119.5 -22.5t119.5 -49t109 -49t89 -22.5q43 0 86.5 34.5t93.5 117.5l73 -115q-45 -84 -105.5 -130t-150.5 -46q-39 0 -79 10.5t-80.5 26.5t-79 34.5t-74 34.5t-67 26.5t-56.5 10.5q-43 0 -86.5 -34t-93.5 -117z" />
    <glyph glyph-name="uni00A0" unicode="&#xa0;" horiz-adv-x="449" 
 />
    <glyph glyph-name="cent" unicode="&#xa2;" horiz-adv-x="1210" 
d="M111 684q0 106 31 197t85 161.5t128 117.5t161 64v355h197v-356q68 -14 128 -45t108 -82h106v-172h-183l-4 -2q-1 0 -1 2h-1v1q-43 74 -107 109t-149 35q-65 0 -122 -27t-99.5 -77t-67 -121.5t-24.5 -159.5q0 -87 24.5 -157t67.5 -119.5t99.5 -76t121.5 -26.5
q96 0 167.5 46.5t113.5 135.5l153 -75q-49 -105 -134 -174.5t-197 -92.5v-331h-197v329q-90 16 -164.5 62t-128 116.5t-83 162.5t-29.5 200z" />
    <glyph glyph-name="sterling" unicode="&#xa3;" horiz-adv-x="932" 
d="M33 662v145h195q-26 69 -45 142t-19 155q0 78 27 143t76 112t117 73t151 26q74 0 136 -26.5t106 -73.5t66.5 -112t18.5 -142l-166 -10q-1 38 -11.5 74t-30.5 64t-49.5 45t-67.5 17q-43 0 -76 -12.5t-55.5 -34t-35 -50.5t-14.5 -62q-2 -25 0 -48.5t7 -49t14 -55.5t20 -67
q7 -27 15 -54l16 -54h279v-145h-234q14 -43 24.5 -81.5t18.5 -70.5q9 -38 4.5 -83t-22 -91t-48.5 -88.5t-76 -75.5h486v-168h-799v168h110q61 35 98 83.5t52 106t9.5 123t-29.5 133.5l-16 44h-252z" />
    <glyph glyph-name="yen" unicode="&#xa5;" horiz-adv-x="1354" 
d="M51 1344v172h492v-172h-145l286 -488l305 488h-157v172h492v-172h-129l-328 -496h184v-141h-283v-148h283v-141h-283v-246h156v-172h-492v172h139v246h-270v141h270v148h-270v141h178l-311 496h-117z" />
    <glyph glyph-name="dieresis" unicode="&#xa8;" horiz-adv-x="612" 
d="M39 1360q0 26 10.5 49.5t28 41t41 28t49.5 10.5q25 0 48 -10.5t40 -28t27 -41t10 -49.5q0 -27 -10 -51t-27 -42.5t-40 -29t-48 -10.5q-26 0 -49.5 10.5t-41 29t-28 42.5t-10.5 51zM498 1360q0 26 10.5 49.5t28 41t41 28t49.5 10.5q25 0 47.5 -10.5t40 -28t27.5 -41
t10 -49.5q0 -27 -10 -51t-27.5 -42.5t-40 -29t-47.5 -10.5q-26 0 -49.5 10.5t-41 29t-28 42.5t-10.5 51z" />
    <glyph glyph-name="copyright" unicode="&#xa9;" horiz-adv-x="1919" 
d="M102 831q0 118 30.5 227.5t86 204.5t133.5 173t173 133.5t204.5 86t228.5 30.5q118 0 228 -30.5t205.5 -86t174 -133.5t134.5 -173t86.5 -204.5t30.5 -227.5q0 -119 -30.5 -228.5t-86.5 -204.5t-134.5 -173t-174 -133.5t-205.5 -86t-228 -30.5q-119 0 -228.5 30.5
t-204.5 86t-173 133.5t-133.5 173t-86 204.5t-30.5 228.5zM283 831q0 -142 52.5 -265.5t144 -215t214.5 -144t264 -52.5t263.5 52.5t215 144t145 215t52.5 265.5q0 140 -52.5 269.5t-145 215.5t-215 138.5t-263.5 52.5t-264 -52.5t-214.5 -138.5t-144 -215.5t-52.5 -269.5z
M477 834q0 104 39 195.5t107 160t159.5 108t196.5 39.5q58 0 109.5 -12.5t96 -33t81 -47t65.5 -54.5l-141 -131q-48 46 -100.5 67t-110.5 21q-64 0 -120 -24.5t-97.5 -67.5t-65.5 -100t-24 -121t24 -120t65.5 -98t97.5 -66t120 -24q56 0 108.5 22.5t83.5 57.5l134 -129
q-23 -30 -59 -56.5t-79 -46t-91.5 -31t-96.5 -11.5q-105 0 -196.5 39t-159.5 107t-107 159.5t-39 196.5z" />
    <glyph glyph-name="guillemotleft" unicode="&#xab;" horiz-adv-x="1040" 
d="M102 565l220 393h192l-229 -393l229 -393h-192zM526 565l219 393h193l-229 -393l229 -393h-193z" />
    <glyph glyph-name="uni00AD" unicode="&#xad;" horiz-adv-x="737" 
d="M94 496v172h551v-172h-551z" />
    <glyph glyph-name="registered" unicode="&#xae;" horiz-adv-x="1919" 
d="M102 831q0 118 30.5 227.5t86 204.5t133.5 173t173 133.5t204.5 86t228.5 30.5q118 0 228 -30.5t205.5 -86t174 -133.5t134.5 -173t86.5 -204.5t30.5 -227.5q0 -119 -30.5 -228.5t-86.5 -204.5t-134.5 -173t-174 -133.5t-205.5 -86t-228 -30.5q-119 0 -228.5 30.5
t-204.5 86t-173 133.5t-133.5 173t-86 204.5t-30.5 228.5zM283 831q0 -142 52.5 -265.5t144 -215t214.5 -144t264 -52.5t263.5 52.5t215 144t145 215t52.5 265.5q0 94 -52.5 246.5t-145 238.5t-215 138.5t-263.5 52.5t-264 -52.5t-214.5 -138.5t-144 -215.5t-52.5 -269.5z
M551 1188v158h483q73 0 132 -21t100 -58t63.5 -87.5t22.5 -108.5q0 -49 -10 -87t-30.5 -67.5t-50.5 -51.5t-69 -39q31 -17 55.5 -52.5t36.5 -87.5l41 -168h82l2 -158h-256l-51 254q-14 84 -64 121t-129 37h-67v-254h92v-158h-379v158h98v670h-102zM842 928h143
q74 0 118 30.5t44 98.5q0 62 -41.5 96.5t-128.5 34.5h-135v-260z" />
    <glyph glyph-name="acute" unicode="&#xb4;" horiz-adv-x="645" 
d="M84 1178l213 299h240v-17l-299 -282h-154z" />
    <glyph glyph-name="cedilla" unicode="&#xb8;" horiz-adv-x="940" 
d="M182 -303q55 1 99.5 19.5t78 48.5t55 70.5t29.5 86.5l150 -45q-18 -73 -56 -130.5t-90.5 -97t-117.5 -60.5t-137 -21z" />
    <glyph glyph-name="guillemotright" unicode="&#xbb;" horiz-adv-x="1040" 
d="M102 172l230 393l-230 393h193l219 -393l-219 -393h-193zM526 172l230 393l-230 393h193l219 -393l-219 -393h-193z" />
    <glyph glyph-name="circumflex" unicode="&#x2c6;" horiz-adv-x="860" 
d="M217 1176l250 313h63l252 -313h-149l-133 155l-135 -155h-148z" />
    <glyph glyph-name="ring" unicode="&#x2da;" horiz-adv-x="1200" 
d="M354 1343q0 52 20.5 99t55.5 81.5t81.5 55t98.5 20.5t99 -20.5t81.5 -55t55 -81.5t20.5 -99t-20.5 -98.5t-55 -81.5t-81.5 -55.5t-99 -20.5t-98.5 20.5t-81.5 55.5t-55.5 81.5t-20.5 98.5zM506 1343q0 -21 8.5 -39.5t23 -33t33 -23t39.5 -8.5t40 8.5t33.5 23t23 33
t8.5 39.5t-8.5 40t-23 33.5t-33.5 23t-40 8.5t-39.5 -8.5t-33 -23t-23 -33.5t-8.5 -40z" />
    <glyph glyph-name="tilde" unicode="&#x2dc;" horiz-adv-x="999" 
d="M88 1251q13 47 37 78.5t54 50.5t64.5 27t69.5 8q50 0 86.5 -16.5t68 -36t62.5 -35.5t70 -16q28 0 54.5 19t35.5 61l119 -35q-20 -85 -78 -131.5t-139 -46.5q-56 0 -95 15.5t-71 33.5t-60 33.5t-61 15.5q-15 0 -30.5 -2t-30.5 -9.5t-27.5 -23t-19.5 -43.5z" />
    <glyph glyph-name="uni0400" unicode="&#x400;" horiz-adv-x="1286" 
d="M143 0v172h144v1171h-144v173h1086v-429h-205v256h-541v-485h455v-172h-455v-514h541v256h205v-428h-1086zM364 1939v17h248l184 -299h-145z" />
    <glyph glyph-name="afii10023" unicode="&#x401;" horiz-adv-x="1286" 
d="M143 0v172h144v1171h-144v173h1086v-429h-205v256h-541v-485h455v-172h-455v-514h541v256h205v-428h-1086zM358 1839q0 26 10.5 49.5t28 41t41.5 28t51 10.5q26 0 49.5 -10.5t41 -28t28 -41t10.5 -49.5q0 -27 -10.5 -51t-28 -42.5t-41 -29t-49.5 -10.5q-27 0 -51 10.5
t-41.5 29t-28 42.5t-10.5 51zM817 1839q0 26 10.5 49.5t28 41t41.5 28t51 10.5q26 0 49.5 -10.5t41 -28t28 -41t10.5 -49.5q0 -27 -10.5 -51t-28 -42.5t-41 -29t-49.5 -10.5q-27 0 -51 10.5t-41.5 29t-28 42.5t-10.5 51z" />
    <glyph glyph-name="afii10051" unicode="&#x402;" horiz-adv-x="1761" 
d="M41 1116v400h1223v-400h-205v236h-303v-519q102 37 189 54.5t183 17.5q119 0 217.5 -33.5t169 -94t109.5 -143.5t39 -181q0 -105 -35 -191t-97.5 -145.5t-150.5 -92t-194 -32.5h-21.5h-19.5v158q16 0 30.5 1t28.5 3q58 8 107 28.5t84 56t55 88t20 124.5q0 63 -25.5 117.5
t-71.5 93t-108.5 60t-136.5 21.5q-118 0 -204.5 -24.5t-167.5 -51.5v-495h151v-172h-491v172h143v1180h-313v-236h-205z" />
    <glyph glyph-name="afii10052" unicode="&#x403;" horiz-adv-x="1229" 
d="M143 0v172h140v1180h-138v164h1072v-400h-205v236h-533v-1180h156v-172h-492zM514 1675l213 299h240v-17l-299 -282h-154z" />
    <glyph glyph-name="afii10053" unicode="&#x404;" horiz-adv-x="1503" 
d="M66 760q0 160 53 302t149.5 249.5t228.5 170t291 62.5q95 0 172.5 -17.5t143 -50t121 -78.5t108.5 -104h94v-178h-215q-65 115 -166.5 178.5t-257.5 63.5q-100 0 -186 -37t-151.5 -100.5t-109.5 -150.5t-62 -185h884v-170h-895q8 -113 49 -213.5t109 -175t160 -118.5
t202 -44q86 0 156 20.5t126 62.5t102.5 103.5t84.5 143.5l181 -82q-47 -99 -109.5 -178.5t-144.5 -137t-180.5 -89.5t-215.5 -32q-159 0 -292.5 62.5t-228.5 170t-148 250t-53 302.5z" />
    <glyph glyph-name="afii10054" unicode="&#x405;" horiz-adv-x="1210" 
d="M80 283v172h252q0 -111 23.5 -157t65.5 -76.5t100 -46t128 -15.5q68 0 122.5 16t93 46.5t59 74t20.5 98.5q0 61 -25.5 103.5t-65.5 72.5t-87.5 49t-91.5 33l-219 62q-72 22 -131.5 56t-102 83t-65.5 114.5t-23 151.5q0 87 34 163t100 133t161.5 89.5t218.5 32.5
q81 0 149.5 -19t124 -53.5t98 -83t71.5 -106.5h75v-172h-245q0 88 -32 132t-70.5 67.5t-84.5 36t-92 12.5q-76 0 -133 -17.5t-94.5 -47.5t-56.5 -70t-19 -84q0 -66 23.5 -106.5t59.5 -65t79.5 -38.5t83.5 -28l202 -66q91 -29 160.5 -66t116.5 -87.5t71.5 -116.5t24.5 -153
q0 -94 -38.5 -174t-107.5 -139t-164.5 -92.5t-209.5 -33.5q-117 0 -200 26.5t-139.5 71t-90.5 101.5t-53 117h-76z" />
    <glyph glyph-name="afii10055" unicode="&#x406;" horiz-adv-x="780" 
d="M143 0v172h144v1171h-144v173h484v-173h-144v-1171h144v-172h-484z" />
    <glyph glyph-name="afii10056" unicode="&#x407;" horiz-adv-x="770" 
d="M105 1839q0 53 38 91t91 38q25 0 48.5 -10.5t40 -27.5t26.5 -41t10 -50q0 -27 -10 -51.5t-26.5 -43t-40 -28.5t-48.5 -10q-53 0 -91 40t-38 93zM143 0v172h144v1171h-144v173h484v-173h-144v-1171h144v-172h-484zM420 1839q0 53 38 91t91 38q25 0 48.5 -10.5t40 -27.5
t26.5 -41t10 -50q0 -27 -10 -51.5t-26.5 -43t-40 -28.5t-48.5 -10q-53 0 -91 40t-38 93z" />
    <glyph glyph-name="afii10057" unicode="&#x408;" horiz-adv-x="670" 
d="M87 -223q59 90 106 172q20 35 39 71.5t34 70.5t24.5 63.5t9.5 50.5v1138h-165v173h491v-173h-127v-1171q0 -22 -10.5 -51.5t-27 -62.5t-38.5 -67.5t-44 -67.5q-53 -77 -120 -161z" />
    <glyph glyph-name="afii10058" unicode="&#x409;" horiz-adv-x="2186" 
d="M31 0v311h189v-147q67 22 109 77.5t65.5 131.5t32 169t8.5 193v304.5v303.5h-170v173h1218v-173h-166v-460h322q106 0 193 -33t148.5 -90.5t95.5 -137t34 -171.5q0 -93 -35 -174.5t-98.5 -143t-149.5 -97.5t-190 -36h-658v172h142v1171h-500v-591q0 -164 -27.5 -302.5
t-80 -238.5t-130 -155.5t-178.5 -55.5h-174zM1317 172h209q84 0 153.5 11.5t119 41t77 81.5t27.5 134q0 56 -16.5 105t-51 86t-88 58.5t-125.5 21.5h-305v-539z" />
    <glyph glyph-name="afii10059" unicode="&#x40a;" horiz-adv-x="2198" 
d="M143 0v172h144v1171h-142v173h492v-173h-154v-462h678v462h-145v173h491v-173h-149v-460h293q106 0 193 -33t148.5 -90.5t95.5 -137t34 -171.5q0 -93 -35 -174.5t-98.5 -143t-149.5 -97.5t-190 -36h-658v172h170v539h-678v-539h152v-172h-492zM1358 172h284q125 0 199 75
t74 193q0 56 -16.5 105t-51.5 86t-88 58.5t-125 21.5h-276v-539z" />
    <glyph glyph-name="afii10060" unicode="&#x40b;" horiz-adv-x="1843" 
d="M41 1116v400h1223v-400h-205v236h-303v-521q90 31 182 53.5t197 22.5q106 0 193 -16.5t148.5 -60.5t94.5 -120.5t33 -197.5v-340h163v-172h-491v172h158v322q0 81 -17.5 131.5t-54.5 78t-94.5 37t-134.5 9.5q-113 0 -201 -20.5t-176 -53.5v-504h151v-172h-491v172h143
v1180h-313v-236h-205z" />
    <glyph glyph-name="afii10061" unicode="&#x40c;" horiz-adv-x="1563" 
d="M143 0v172h144v1171h-142v173h492v-173h-154v-1171h152v-172h-492zM485 774l662 569v173h348v-173h-119l-664 -559l621 -612h162v-172h-408v172zM764 1657l213 299h240v-17l-299 -282h-154z" />
    <glyph glyph-name="uni040D" unicode="&#x40d;" horiz-adv-x="1843" 
d="M143 1343v173h502v-173h-160v-1101l839 1274h376v-172h-142v-1172h142v-172h-492v172h153v1098l-843 -1270h-374v172h149v1171h-150zM600 1939v17h248l184 -299h-145z" />
    <glyph glyph-name="afii10062" unicode="&#x40e;" horiz-adv-x="1300" 
d="M24 1343v173h457v-173h-125l328 -776l317 776h-131v173h418v-173h-90l-424 -981q-37 -86 -76 -156.5t-85 -120.5t-102.5 -77.5t-129.5 -27.5q-47 0 -105.5 5t-91.5 15h-4v311h188v-178q25 0 49.5 3t51 20.5t54.5 54.5t58 106l17 39q-113 248 -225.5 494t-225.5 493h-123z
M303 1960h121q1 -43 20 -82t52 -68.5t78 -47t97 -17.5t97 17t78 46.5t52 68.5t21 83h121q-3 -71 -33 -131.5t-79.5 -104.5t-115.5 -69t-141 -25q-76 0 -141.5 25t-115 69t-79 104.5t-32.5 131.5z" />
    <glyph glyph-name="afii10145" unicode="&#x40f;" horiz-adv-x="1782" 
d="M143 0v162h144v1181h-144v173h492v-173h-152v-1181h815v1181h-151v173h491v-173h-143v-1181h143v-162h-641v-348h-188v348h-666z" />
    <glyph glyph-name="afii10017" unicode="&#x410;" horiz-adv-x="1542" 
d="M10 0v172h132l472 1344h295l471 -1344h152v-172h-492v172h126l-120 344h-583l-117 -344h156v-172h-492zM520 682h468l-236 678z" />
    <glyph glyph-name="afii10018" unicode="&#x411;" horiz-adv-x="1352" 
d="M119 0v172h141v1180h-117v164h1067v-400h-204v236h-549v-469h321q107 0 194 -33t148.5 -90.5t95 -137t33.5 -171.5q0 -93 -34.5 -174.5t-98 -143t-149.5 -97.5t-191 -36h-657zM457 172h313q125 0 198.5 75t73.5 193q0 56 -16 105t-51 86t-88 58.5t-125 21.5h-305v-539z
" />
    <glyph glyph-name="afii10019" unicode="&#x412;" horiz-adv-x="1323" 
d="M143 0v172h144v1171h-144v175l682 -2q92 0 173 -34.5t141 -94t94.5 -140.5t34.5 -174q0 -97 -54 -177t-154 -128q49 -26 89 -60.5t68 -75.5t43.5 -87t15.5 -94q0 -95 -34.5 -177t-94.5 -143t-140.5 -96t-172.5 -35h-691zM483 172h353q48 0 89 24t72 62.5t48.5 87.5
t17.5 100q0 44 -18 85t-48.5 73t-72 51t-88.5 19h-353v-502zM483 848h344q48 0 89.5 19t72 51t48.5 74t18 87q0 49 -18 96.5t-49 84.5t-72.5 60t-88.5 23h-344v-495z" />
    <glyph glyph-name="afii10020" unicode="&#x413;" horiz-adv-x="1229" 
d="M143 0v172h140v1180h-138v164h1072v-400h-205v236h-533v-1180h156v-172h-492z" />
    <glyph glyph-name="afii10021" unicode="&#x414;" horiz-adv-x="1620" 
d="M61 172h52q88 8 143 56t88 124t45 174.5t12 208.5v608h-159v173h1235v-173h-146v-1171h146v-520h-197v348h-1024v-348h-195v520zM426 172h709v1171h-541v-622q0 -203 -42 -338t-126 -211z" />
    <glyph glyph-name="afii10022" unicode="&#x415;" horiz-adv-x="1286" 
d="M143 0v172h144v1171h-144v173h1086v-429h-205v256h-541v-485h455v-172h-455v-514h541v256h205v-428h-1086z" />
    <glyph glyph-name="afii10024" unicode="&#x416;" horiz-adv-x="2120" 
d="M80 0v172h172l451 610l-476 561h-118v173h329v-173l392 -479h129v479h-138v173h492v-173h-158v-479h129l402 479v173h325v-173h-119l-485 -563l473 -608h162v-172h-385v172l-389 520h-113v-520h156v-172h-492v172h140v520h-113l-377 -520v-172h-389z" />
    <glyph glyph-name="afii10025" unicode="&#x417;" horiz-adv-x="1210" 
d="M92 326v172h246v-146q31 -88 103.5 -137t185.5 -49q51 0 100 21.5t88 58.5t61.5 88t22.5 110q0 62 -22.5 113t-61.5 87t-91 55.5t-110 19.5h-86v151h70q66 0 118 19.5t89 53.5t56.5 79t19.5 98q0 39 -16.5 83t-51.5 82t-87 62.5t-124 24.5q-53 0 -98 -19.5t-78 -46
t-52.5 -55t-25.5 -49.5v-98h-246v172h84q54 117 164.5 193.5t249.5 76.5q107 0 194 -35.5t148.5 -94t95 -133.5t33.5 -153q0 -100 -49 -188t-164 -145q94 -37 161.5 -127t67.5 -228q0 -98 -37.5 -182t-103 -144.5t-152.5 -95t-188 -34.5q-82 0 -153.5 21.5t-130 64.5
t-102.5 106.5t-70 147.5h-58z" />
    <glyph glyph-name="afii10026" unicode="&#x418;" horiz-adv-x="1843" 
d="M143 1343v173h502v-173h-160v-1101l839 1274h376v-172h-142v-1172h142v-172h-492v172h153v1098l-843 -1270h-374v172h149v1171h-150z" />
    <glyph glyph-name="afii10027" unicode="&#x419;" horiz-adv-x="1843" 
d="M143 1343v173h502v-173h-160v-1101l839 1274h376v-172h-142v-1172h142v-172h-492v172h153v1098l-843 -1270h-374v172h149v1171h-150zM539 1958h121q1 -43 20 -82t52 -68.5t78 -47t97 -17.5t97 17t78 46.5t52 68.5t21 83h121q-3 -71 -33 -131.5t-79.5 -104.5t-115.5 -69
t-141 -25q-76 0 -141.5 25t-115 69t-79 104.5t-32.5 131.5z" />
    <glyph glyph-name="afii10028" unicode="&#x41a;" horiz-adv-x="1563" 
d="M143 0v172h144v1171h-142v173h492v-173h-154v-1171h152v-172h-492zM485 774l662 569v173h348v-173h-119l-664 -559l621 -612h162v-172h-408v172z" />
    <glyph glyph-name="afii10029" unicode="&#x41b;" horiz-adv-x="1647" 
d="M31 0v311h188v-147q68 22 110 77.5t65.5 131.5t31.5 169t8 193v304.5v303.5h-170v173h1239v-173h-145v-1171h145v-172h-491v172h149v1171h-540v-591q0 -164 -28 -302.5t-80 -238.5t-130 -155.5t-178 -55.5h-174z" />
    <glyph glyph-name="afii10030" unicode="&#x41c;" horiz-adv-x="2175" 
d="M143 0v172h144v1153h-144v191h480l481 -1309l487 1309h455v-191h-143v-1153h143v-172h-492v172h162v1164l-530 -1336h-170l-537 1339v-1167h156v-172h-492z" />
    <glyph glyph-name="afii10031" unicode="&#x41d;" horiz-adv-x="1843" 
d="M143 0v172h144v1172h-144v172h492v-172h-152v-459h877v459h-152v172h492v-172h-144v-1172h144v-172h-492v172h152v545h-877v-545h152v-172h-492z" />
    <glyph glyph-name="afii10032" unicode="&#x41e;" horiz-adv-x="1602" 
d="M72 758q0 164 53.5 308t150 250.5t230 168t293.5 61.5q161 0 295 -61.5t230 -168t149 -250.5t53 -308t-53.5 -307.5t-150 -250.5t-230 -168.5t-293.5 -61.5q-157 0 -287 58.5t-232 166.5t-155 256t-53 307zM276 758q0 -140 41 -249.5t108.5 -182t161 -121.5t212.5 -49
t215.5 49t164.5 131.5t105 191.5t37 230q0 124 -40.5 239.5t-113 195.5t-168.5 123.5t-200 43.5q-119 0 -216 -49t-165 -131.5t-105 -192t-37 -229.5z" />
    <glyph glyph-name="afii10033" unicode="&#x41f;" horiz-adv-x="1762" 
d="M143 0v172h144v1171h-142v173h1473v-173h-143v-1171h143v-172h-491v172h151v1171h-795v-1171h152v-172h-492z" />
    <glyph glyph-name="afii10034" unicode="&#x420;" horiz-adv-x="1272" 
d="M143 0v172h144v1171h-144v173h613q102 0 187.5 -26.5t148 -78t97 -128.5t34.5 -177q0 -83 -34 -156.5t-96 -128.5t-148.5 -87t-192.5 -32h-269v-530h152v-172h-492zM483 866h273q57 0 104.5 15.5t82 45.5t54 75t19.5 104q0 112 -68 174.5t-217 62.5h-248v-477z" />
    <glyph glyph-name="afii10035" unicode="&#x421;" horiz-adv-x="1503" 
d="M72 760q0 162 53.5 306t150 250.5t230 168t289.5 61.5q139 0 240 -39.5t171.5 -94t121.5 -118.5h106v-178h-215q-67 114 -177.5 179t-246.5 65q-116 0 -212 -49t-164.5 -131.5t-106.5 -191t-38 -228.5q0 -142 42 -251.5t109.5 -182t160.5 -121t209 -48.5q158 0 275 76.5
t200 251.5l176 -83q-38 -108 -129 -208.5t-224.5 -162t-295.5 -61.5q-155 0 -285 58.5t-231.5 166.5t-155 256t-53.5 309z" />
    <glyph glyph-name="afii10036" unicode="&#x422;" horiz-adv-x="1434" 
d="M41 1116v400h1352v-400h-205v236h-400v-1180h156v-172h-491v172h139v1180h-346v-236h-205z" />
    <glyph glyph-name="afii10037" unicode="&#x423;" horiz-adv-x="1300" 
d="M24 1343v173h457v-173h-125l328 -776l317 776h-131v173h418v-173h-90l-424 -981q-37 -86 -76 -156.5t-85 -120.5t-102.5 -77.5t-129.5 -27.5q-47 0 -105.5 5t-91.5 15h-4v311h188v-178q25 0 49.5 3t51 20.5t54.5 54.5t58 106l17 39q-113 248 -225.5 494t-225.5 493h-123z
" />
    <glyph glyph-name="afii10038" unicode="&#x424;" horiz-adv-x="1540" 
d="M35 809q0 115 43 210t124 162.5t196.5 105.5t258.5 38h15v121h-129v151h450v-151h-125v-121h19q141 0 255.5 -38t195.5 -105.5t126 -162.5t45 -210q0 -113 -45 -208t-127 -163.5t-196.5 -106.5t-253.5 -38h-19v-121h146v-172h-492v172h150v121h-15q-139 0 -253.5 38
t-196.5 106.5t-127 163.5t-45 208zM238 807q0 -78 23.5 -142.5t73.5 -111.5t129 -72.5t191 -25.5h17v710h-17q-112 0 -192 -27.5t-130 -74.5t-72.5 -112.5t-22.5 -143.5zM868 455h21q115 0 194.5 25.5t129 72.5t72 111.5t22.5 142.5q0 76 -21.5 142.5t-71 113.5t-129 74.5
t-196.5 27.5h-21v-710z" />
    <glyph glyph-name="afii10039" unicode="&#x425;" horiz-adv-x="1552" 
d="M170 0v172h99l432 603l-408 568h-123v173h492v-173h-146l295 -415l298 415h-159v173h492v-173h-112l-410 -569l428 -602h94v-172h-492v172h185l-324 451l-326 -451h177v-172h-492z" />
    <glyph glyph-name="afii10040" unicode="&#x426;" horiz-adv-x="1782" 
d="M143 0v162h144v1181h-144v173h492v-173h-152v-1181h815v1181h-151v173h491v-173h-143v-1181h207v-510h-189v348h-1370z" />
    <glyph glyph-name="afii10041" unicode="&#x427;" horiz-adv-x="1577" 
d="M70 1343v173h467v-173h-142v-387q0 -82 14.5 -132t50.5 -77.5t94 -37t144 -9.5q99 0 198 20.5t198 53.5v569h-152v173h492v-173h-144v-1171h144v-172h-492v172h152v422q-97 -31 -197 -51.5t-199 -20.5q-116 0 -208.5 16.5t-157 60.5t-99 121t-34.5 198v425h-129z" />
    <glyph glyph-name="afii10042" unicode="&#x428;" horiz-adv-x="2339" 
d="M143 0v162h146v1181h-144v173h492v-173h-152v-1181h584v1181h-154v173h492v-173h-141v-1181h581v1181h-143v173h491v-173h-151v-1181h147v-162h-2048z" />
    <glyph glyph-name="afii10043" unicode="&#x429;" horiz-adv-x="2339" 
d="M143 0v162h146v1181h-144v173h492v-173h-152v-1181h584v1181h-154v173h492v-173h-141v-1181h581v1181h-143v173h491v-173h-151v-1181h235v-510h-188v348h-1948z" />
    <glyph glyph-name="afii10044" unicode="&#x42a;" horiz-adv-x="1608" 
d="M33 1116v400h870v-164h-164v-469h322q106 0 193 -33t148.5 -90.5t95.5 -137t34 -171.5q0 -93 -35 -174.5t-98.5 -143t-149.5 -97.5t-190 -36h-658v172h142v1180h-305v-236h-205zM739 172h314q125 0 198.5 75t73.5 193q0 56 -16.5 105t-51 86t-88 58.5t-125.5 21.5h-305
v-539z" />
    <glyph glyph-name="afii10045" unicode="&#x42b;" horiz-adv-x="1929" 
d="M117 0v172h141v1171h-139v173h491v-173h-155v-460h321q107 0 194 -33t148.5 -90.5t95 -137t33.5 -171.5q0 -93 -34.5 -174.5t-98 -143t-149.5 -97.5t-191 -36h-657zM455 172h313q125 0 198.5 75t73.5 193q0 56 -16 105t-51 86t-88.5 58.5t-124.5 21.5h-305v-539zM1323 0
v172h139v1171h-137v173h492v-173h-158v-1171h156v-172h-492z" />
    <glyph glyph-name="afii10046" unicode="&#x42c;" horiz-adv-x="1349" 
d="M143 0v172h141v1171h-137v173h491v-173h-157v-460h321q107 0 194 -33t148.5 -90.5t95 -137t33.5 -171.5q0 -93 -34.5 -174.5t-98 -143t-149.5 -97.5t-191 -36h-657zM481 172h313q125 0 198.5 75t73.5 193q0 56 -16 105t-51 86t-88.5 58.5t-124.5 21.5h-305v-539z" />
    <glyph glyph-name="afii10047" unicode="&#x42d;" horiz-adv-x="1602" 
d="M154 412l180 82q39 -80 84 -142.5t99 -105.5t119.5 -64.5t149.5 -21.5q107 0 196 43t153.5 115.5t103.5 166t45 193.5h-786v170h784q-12 104 -52 197.5t-104.5 163t-149.5 109.5t-190 40q-77 0 -137.5 -16.5t-108.5 -47t-86 -75.5t-71 -103h-215v178h94q51 58 104.5 104
t115 78.5t136 50t168.5 17.5q160 0 290 -62.5t222.5 -170t141.5 -249.5t49 -302t-49 -302.5t-140.5 -251t-221.5 -172t-292 -63.5q-116 0 -213.5 32t-175.5 90.5t-138 139t-105 179.5z" />
    <glyph glyph-name="afii10048" unicode="&#x42e;" horiz-adv-x="2255" 
d="M143 0v172h140v1171h-138v173h492v-173h-158v-456h254q21 141 82.5 261t155.5 209t217 139t266 50q162 0 295 -61.5t229.5 -168t149.5 -250.5t53 -308t-53 -307.5t-150.5 -251t-230.5 -169t-293 -61.5q-156 0 -286 58.5t-226 159t-152.5 236.5t-64.5 292h-246v-543h156
v-172h-492zM930 758q0 -121 38 -229.5t106.5 -191.5t164.5 -131t215 -48t215 48t164 131t104.5 191.5t36.5 229.5q0 119 -36.5 228.5t-104.5 192.5t-164 132t-215 49t-216 -49t-165.5 -132t-105.5 -191.5t-37 -229.5z" />
    <glyph glyph-name="afii10049" unicode="&#x42f;" horiz-adv-x="1464" 
d="M143 0l2 190h131l84 330q17 72 55 127t81 84q-60 23 -109 63t-84 90t-55.5 107.5t-20.5 114.5q0 100 38 177t104.5 128t154.5 78t191 27l645 2v-175h-152v-1171h156v-172h-492v172h140v530h-193q-110 0 -173.5 -58t-94.5 -183l-113 -461h-295zM434 1104q0 -117 73 -177.5
t187 -60.5h318v477h-273q-149 0 -227 -62t-78 -177z" />
    <glyph glyph-name="afii10065" unicode="&#x430;" horiz-adv-x="1042" 
d="M70 274q0 66 19.5 117t52 88.5t76 63t91 41t97 22t94.5 6.5q72 0 121 -4.5t89 -12.5l1 85q0 55 -16 95.5t-45 67t-69.5 39.5t-90.5 13q-47 0 -90 -6.5t-80.5 -17t-69 -24t-53.5 -28.5l-61 129q37 24 81 44.5t92.5 35t99 23t99.5 8.5q90 0 162 -21.5t122 -66.5t77 -114.5
t27 -166.5l-1 -518h115v-172h-301v96q-59 -55 -130.5 -90t-162.5 -35q-76 0 -139.5 24t-109.5 65.5t-71.5 96.5t-25.5 117zM250 291q0 -41 15 -71.5t42.5 -51t65.5 -31t84 -10.5q37 0 74 9t70 24.5t61 36t47 42.5l1 234h-216q-54 0 -98.5 -12t-77 -35t-50.5 -57t-18 -78z
" />
    <glyph glyph-name="afii10066" unicode="&#x431;" horiz-adv-x="1225" 
d="M84 528q0 99 1 191t1 168q2 135 45 247.5t121 192.5t185.5 124t236.5 44h178v61h223v-229h-395q-92 0 -167 -35t-127 -89t-79.5 -121.5t-27.5 -131.5v-53q59 82 148 127t212 45q119 0 210 -44t152.5 -119t93 -175t31.5 -211q0 -123 -36.5 -225t-104 -174t-163 -112
t-214.5 -40q-121 0 -218 45t-164.5 122t-104.5 178.5t-37 213.5zM285 535q0 -97 25.5 -171.5t69.5 -126t102.5 -79t125.5 -27.5q68 0 128.5 26.5t105.5 77t71.5 122t26.5 161.5q0 94 -24.5 167t-67.5 122t-102.5 74.5t-129.5 25.5q-65 0 -123.5 -25.5t-104.5 -71.5
t-73.5 -112.5t-29.5 -146.5v-16z" />
    <glyph glyph-name="afii10067" unicode="&#x432;" horiz-adv-x="1253" 
d="M110 0v172h119v692h-119v172h613q186 0 293.5 -85t107.5 -224q0 -68 -40 -120t-116 -85q78 -35 121 -93t43 -134q0 -64 -28.5 -117t-81 -93t-126 -62.5t-165.5 -22.5h-621zM417 172h316q96 0 141 29.5t45 89.5q0 59 -46 107t-140 48h-316v-274zM417 590h308
q96 0 141 34.5t45 92.5q0 63 -46 105t-140 42h-308v-274z" />
    <glyph glyph-name="afii10068" unicode="&#x433;" horiz-adv-x="1058" 
d="M110 0v172h152v700h-152v164h889v-358h-195v194h-354v-700h152v-172h-492z" />
    <glyph glyph-name="afii10069" unicode="&#x434;" horiz-adv-x="1437" 
d="M100 170l31 4q78 12 132 58.5t88 120t49 171t15 211.5v129h-163v172h1054v-172h-163v-690h184v-461h-193v287h-841v-287h-193v457zM414 174h540v690h-360v-194q0 -174 -44.5 -299t-135.5 -197z" />
    <glyph glyph-name="afii10070" unicode="&#x435;" horiz-adv-x="1176" 
d="M92 522q0 111 31 209.5t92.5 172t152.5 116.5t212 43q117 0 195.5 -35.5t128 -94t75 -133.5t35.5 -153q5 -38 6.5 -77t1.5 -76h-746q0 -44 6.5 -80.5t18.5 -69.5q37 -100 118.5 -150.5t184.5 -50.5q81 0 157.5 22.5t160.5 70.5l75 -127q-102 -70 -205 -104t-214 -34
q-105 0 -194.5 35t-154 104t-101 172t-36.5 240zM286 639h537q-4 58 -18.5 107t-44.5 85t-77 56t-116 20q-65 0 -113.5 -18.5t-82.5 -53t-54.5 -84.5t-30.5 -112z" />
    <glyph glyph-name="afii10072" unicode="&#x436;" horiz-adv-x="1827" 
d="M63 0v172h125l324 346l-319 346h-130v172h396v-172h-70l254 -274h176v274h-108v172h295v-446h180l252 274h-68v172h393v-172h-129l-317 -346l323 -346h125v-172h-219l-403 442h-137v-270h108v-172h-295v442h-133l-248 -272v-170h-375z" />
    <glyph glyph-name="afii10073" unicode="&#x437;" horiz-adv-x="975" 
d="M43 279l182 43q19 -93 85.5 -136t170.5 -43q49 0 93 10.5t76 31t50.5 53t18.5 77.5q0 39 -18.5 68t-49 47.5t-70.5 27.5t-83 9h-99v156h68q98 0 169 35.5t71 117.5q0 72 -53.5 114t-168.5 42q-53 0 -94 -14.5t-71.5 -38t-48 -56t-21.5 -69.5h-33h-33h-129v172h74
q53 71 146.5 120.5t209.5 49.5q99 0 174.5 -27t128 -70t79 -99t26.5 -114q0 -28 -6 -63t-24.5 -67.5t-52.5 -61.5t-87 -47q51 -19 86 -46.5t55.5 -59t29.5 -65.5t9 -63q0 -71 -32.5 -131.5t-90 -105.5t-134.5 -70.5t-165 -25.5q-80 0 -153.5 20t-132 59t-99.5 94.5
t-53 125.5z" />
    <glyph glyph-name="afii10074" unicode="&#x438;" horiz-adv-x="1445" 
d="M110 864v172h492v-172h-164v-631l543 803h354v-176h-135v-688h135v-172h-492v172h168v645l-555 -817h-344v172h137v692h-139z" />
    <glyph glyph-name="afii10075" unicode="&#x439;" horiz-adv-x="1445" 
d="M110 864v172h492v-172h-164v-631l543 803h354v-176h-135v-688h135v-172h-492v172h168v645l-555 -817h-344v172h137v692h-139zM379 1479h121q1 -43 20 -82t52 -68.5t78 -47t97 -17.5t97 17t78 46.5t52 68.5t21 83h121q-3 -71 -33 -131.5t-79.5 -104.5t-115.5 -69t-141 -25
q-76 0 -141.5 25t-115 69t-79 104.5t-32.5 131.5z" />
    <glyph glyph-name="afii10076" unicode="&#x43a;" horiz-adv-x="1293" 
d="M110 0v172h158v692h-158v172h443v-172h-99v-254h180l246 254h-61v172h393v-172h-131l-315 -325l323 -367h125v-172h-219l-404 463h-137v-291h99v-172h-443z" />
    <glyph glyph-name="afii10077" unicode="&#x43b;" horiz-adv-x="1300" 
d="M53 -2v168q84 0 140.5 21.5t91 74.5t50 145.5t15.5 233.5l2 223h-137v172h959v-172h-130v-692h146v-172h-492v172h158v692h-326v-248q0 -129 -13 -225t-38.5 -164.5t-63.5 -112.5t-87 -70t-108.5 -36t-129.5 -10h-37z" />
    <glyph glyph-name="afii10078" unicode="&#x43c;" horiz-adv-x="1713" 
d="M110 0v172h156v690h-156v174h357l395 -704l383 704h360v-174h-157v-690h155v-172h-491v172h151v526h-4l-395 -708l-414 708h-2v-526h154v-172h-492z" />
    <glyph glyph-name="afii10079" unicode="&#x43d;" horiz-adv-x="1438" 
d="M110 0v172h146v692h-144v172h472v-172h-140v-221h546v221h-134v172h472v-172h-150v-692h150v-172h-472v172h134v305h-546v-305h138v-172h-472z" />
    <glyph glyph-name="afii10080" unicode="&#x43e;" horiz-adv-x="1219" 
d="M86 518q1 123 39.5 224t107.5 173.5t164 111.5t209 39q115 0 210.5 -39t163.5 -110.5t106 -172.5t38 -224q0 -121 -38 -222.5t-106 -174.5t-163.5 -113.5t-210.5 -40.5q-117 0 -212 40t-163 112.5t-106 173.5t-39 223zM283 518q0 -89 25.5 -161t70 -122.5t103 -78
t124.5 -27.5q69 0 128.5 27t103.5 77.5t69 122.5t25 162q0 94 -25 167t-68.5 122t-103.5 74t-129 25q-66 0 -124.5 -25t-103 -74t-70 -122t-25.5 -167z" />
    <glyph glyph-name="afii10081" unicode="&#x43f;" horiz-adv-x="1377" 
d="M110 0v172h146v692h-144v172h1155v-172h-149v-692h149v-172h-491v172h153v692h-485v-692h158v-172h-492z" />
    <glyph glyph-name="afii10082" unicode="&#x440;" horiz-adv-x="1249" 
d="M59 864v172h330v-86q66 51 144 81t161 30q102 0 187 -38t146.5 -107t95.5 -165.5t34 -213.5q0 -125 -38 -228t-105.5 -176.5t-160.5 -114.5t-204 -41q-79 0 -140.5 16.5t-117.5 42.5v-335h162v-172h-492v172h142v1163h-144zM391 227q33 -34 94.5 -61t153.5 -27
q64 0 123 25t104 74.5t72 122.5t27 169q0 88 -25.5 156t-69 115t-101.5 71.5t-124 24.5q-72 0 -138.5 -29t-115.5 -80v-561z" />
    <glyph glyph-name="afii10083" unicode="&#x441;" horiz-adv-x="1116" 
d="M92 520q0 120 39 221t107 173.5t159 113.5t195 41q98 0 185.5 -34t153.5 -103h105v-172h-188q-42 75 -106.5 110t-149.5 35q-65 0 -122 -27t-99.5 -77t-67 -121.5t-24.5 -159.5q0 -87 24.5 -157t67.5 -119.5t99.5 -76t121.5 -26.5q96 0 167 46.5t113 136.5l154 -76
q-30 -64 -74 -115t-99.5 -87t-122 -55.5t-140.5 -19.5q-108 0 -199.5 40.5t-158 113.5t-103.5 174t-37 221z" />
    <glyph glyph-name="afii10084" unicode="&#x442;" horiz-adv-x="1190" 
d="M60 678v358h1069v-358h-195v194h-246v-700h166v-172h-491v172h137v700h-244v-194h-196z" />
    <glyph glyph-name="afii10085" unicode="&#x443;" horiz-adv-x="1084" 
d="M31 864v172h393v-172h-123l244 -661l254 661h-123v172h393v-172h-106l-383 -964q-37 -95 -82 -164.5t-99.5 -115.5t-121 -68.5t-146.5 -22.5h-47v172h51q96 0 176 62.5t138 209.5l8 23l-342 868h-84z" />
    <glyph glyph-name="afii10086" unicode="&#x444;" horiz-adv-x="1837" 
d="M92 528q0 119 35 217.5t98.5 169t152.5 108.5t200 38q71 0 130.5 -8.5t114.5 -36.5v368h-141v172h328v-567q63 41 138 56.5t152 15.5q99 0 181 -38t141 -107.5t92 -166t33 -212.5q0 -125 -34 -226.5t-97.5 -174.5t-154.5 -112.5t-204 -39.5q-71 0 -135.5 13t-111.5 38
v-334h153v-172h-491v172h151v354q-47 -39 -111.5 -58.5t-144.5 -19.5q-104 0 -192 37t-150.5 106.5t-97.5 172t-35 235.5zM285 530q0 -98 22.5 -171.5t64.5 -122t98 -73t124 -24.5q82 0 139.5 22.5t89.5 57.5v617q-47 41 -109.5 51t-125.5 10q-64 0 -119 -24.5t-96 -71.5
t-64.5 -115t-23.5 -156zM1010 207q30 -29 88.5 -45.5t146.5 -16.5q62 0 118 24t98 71t67.5 119.5t25.5 170.5q0 88 -23.5 156t-64.5 115t-96 71.5t-119 24.5q-69 0 -131.5 -21.5t-109.5 -68.5v-600z" />
    <glyph glyph-name="afii10087" unicode="&#x445;" horiz-adv-x="1085" 
d="M51 864v172h344v-172h-39l191 -246l193 246h-50v172h344v-172h-89l-293 -338l310 -354h76v-172h-344v172h59l-206 256l-201 -256h51v-172h-344v172h84l315 367l-296 325h-105z" />
    <glyph glyph-name="afii10088" unicode="&#x446;" horiz-adv-x="1401" 
d="M110 864v172h492v-172h-158v-702h486v702h-156v172h491v-172h-147v-702h188v-449h-182v287h-1012v162h144v702h-146z" />
    <glyph glyph-name="afii10089" unicode="&#x447;" horiz-adv-x="1224" 
d="M10 864v172h492v-172h-176v-96q0 -82 15 -131t46 -74.5t76 -34t104 -8.5q64 0 115 3t94 12v329h-153v172h491v-172h-149v-692h149v-172h-491v172h153v209q-47 -10 -102.5 -14.5t-116.5 -4.5q-86 0 -162 15.5t-133 57.5t-91 118t-34 197v114h-127z" />
    <glyph glyph-name="afii10090" unicode="&#x448;" horiz-adv-x="1982" 
d="M110 0v162h144v702h-142v172h492v-172h-162v-702h448v702h-151v172h491v-172h-151v-702h440v702h-141v172h491v-172h-161v-702h163v-162h-1761z" />
    <glyph glyph-name="afii10091" unicode="&#x449;" horiz-adv-x="1997" 
d="M110 0v162h144v702h-142v172h492v-172h-162v-702h448v702h-151v172h491v-172h-151v-702h440v702h-141v172h491v-172h-161v-702h194v-449h-182v287h-1610z" />
    <glyph glyph-name="afii10092" unicode="&#x44a;" horiz-adv-x="1308" 
d="M60 721v315h734v-172h-160v-190h215q80 0 148.5 -24.5t118.5 -68.5t79 -106.5t29 -138.5q0 -78 -29 -139.5t-79 -105.5t-117.5 -67.5t-143.5 -23.5h-555v172h145v692h-209v-143h-176zM634 172h229q72 0 122 42t50 122q0 82 -52 124t-126 42h-223v-330z" />
    <glyph glyph-name="afii10093" unicode="&#x44b;" horiz-adv-x="1689" 
d="M110 0v172h145v692h-145v172h500v-172h-166v-190h215q80 0 148.5 -24.5t118.5 -68.5t78.5 -106.5t28.5 -138.5q0 -78 -28.5 -139.5t-78.5 -105.5t-117.5 -67.5t-143.5 -23.5h-555zM444 172h229q72 0 122 42t50 122q0 82 -52 124t-126 42h-223v-330zM1087 0v172h148v692
h-148v172h492v-172h-156v-692h156v-172h-492z" />
    <glyph glyph-name="afii10094" unicode="&#x44c;" horiz-adv-x="1117" 
d="M110 0v172h145v692h-145v172h500v-172h-166v-190h215q80 0 148.5 -24.5t118.5 -68.5t78.5 -106.5t28.5 -138.5q0 -78 -28.5 -139.5t-78.5 -105.5t-117.5 -67.5t-143.5 -23.5h-555zM444 172h229q72 0 122 42t50 122q0 82 -52 124t-126 42h-223v-330z" />
    <glyph glyph-name="afii10095" unicode="&#x44d;" horiz-adv-x="1170" 
d="M121 248l153 76q21 -45 50.5 -79t66.5 -57.5t81 -35t93 -11.5q127 0 220.5 84t103.5 246h-574v154h572q-8 55 -33 106t-63.5 90t-93 61.5t-122.5 22.5q-100 0 -159.5 -41t-96.5 -104h-188v172h105q65 69 153 103t186 34q105 0 196 -41t158.5 -113.5t106.5 -174t39 -220.5
q0 -121 -38 -221t-105.5 -173t-160.5 -114t-204 -41q-75 0 -143 19.5t-125 55.5t-102 87t-76 115z" />
    <glyph glyph-name="afii10096" unicode="&#x44e;" horiz-adv-x="1690" 
d="M43 864v172h467v-172h-113v-272h197q10 106 51 194t106.5 150.5t153.5 96.5t195 34q114 0 209.5 -39t164 -111.5t106.5 -173t38 -223.5t-37 -225t-104.5 -174t-162.5 -112t-214 -40q-107 0 -195 34t-153.5 95.5t-105.5 147.5t-50 192h-199v-266h123v-172h-467v172h156
v692h-166zM776 518q0 -90 25.5 -160.5t69.5 -122t103.5 -78t125.5 -26.5q67 0 126.5 26.5t103.5 77t69.5 122t25.5 161.5q0 94 -24.5 167t-68.5 122t-103.5 74.5t-128.5 25.5q-66 0 -125.5 -25.5t-103.5 -74.5t-69.5 -122t-25.5 -167z" />
    <glyph glyph-name="afii10097" unicode="&#x44f;" horiz-adv-x="1247" 
d="M51 0v172h139l56 182q16 52 48 89.5t66 58.5q-43 14 -75.5 39.5t-56 58.5t-35 67.5t-11.5 69.5q0 115 52.5 176.5t139.5 88t200.5 29.5t236.5 3v2h295v-159h-107v-705h156v-172h-491v172h147v270h-184q-90 0 -141.5 -38.5t-75.5 -124.5l-80 -279h-279zM367 739
q0 -69 58 -108t150 -39h236v285h-236q-104 0 -156 -34t-52 -104z" />
    <glyph glyph-name="uni0450" unicode="&#x450;" horiz-adv-x="1176" 
d="M92 522q0 111 31 209.5t92.5 172t152.5 116.5t212 43q117 0 195.5 -35.5t128 -94t75 -133.5t35.5 -153q5 -38 6.5 -77t1.5 -76h-746q0 -44 6.5 -80.5t18.5 -69.5q37 -100 118.5 -150.5t184.5 -50.5q81 0 157.5 22.5t160.5 70.5l75 -127q-102 -70 -205 -104t-214 -34
q-105 0 -194.5 35t-154 104t-101 172t-36.5 240zM219 1460v17h248l184 -299h-145zM286 639h537q-4 58 -18.5 107t-44.5 85t-77 56t-116 20q-65 0 -113.5 -18.5t-82.5 -53t-54.5 -84.5t-30.5 -112z" />
    <glyph glyph-name="afii10071" unicode="&#x451;" horiz-adv-x="1176" 
d="M92 522q0 111 31 209.5t92.5 172t152.5 116.5t212 43q117 0 195.5 -35.5t128 -94t75 -133.5t35.5 -153q5 -38 6.5 -77t1.5 -76h-746q0 -44 6.5 -80.5t18.5 -69.5q37 -100 118.5 -150.5t184.5 -50.5q81 0 157.5 22.5t160.5 70.5l75 -127q-102 -70 -205 -104t-214 -34
q-105 0 -194.5 35t-154 104t-101 172t-36.5 240zM213 1361q0 26 10.5 49.5t28 41t41.5 28t51 10.5q26 0 49.5 -10.5t41 -28t28 -41t10.5 -49.5q0 -27 -10.5 -51t-28 -42.5t-41 -29t-49.5 -10.5q-27 0 -51 10.5t-41.5 29t-28 42.5t-10.5 51zM286 639h537q-4 58 -18.5 107
t-44.5 85t-77 56t-116 20q-65 0 -113.5 -18.5t-82.5 -53t-54.5 -84.5t-30.5 -112zM672 1361q0 26 10.5 49.5t28 41t41.5 28t51 10.5q26 0 49.5 -10.5t41 -28t28 -41t10.5 -49.5q0 -27 -10.5 -51t-28 -42.5t-41 -29t-49.5 -10.5q-27 0 -51 10.5t-41.5 29t-28 42.5t-10.5 51z
" />
    <glyph glyph-name="afii10099" unicode="&#x452;" horiz-adv-x="1300" 
d="M94 0v172h154v965h-142v151h142v96h-142v172h328v-268h469v-151h-469v-215q68 57 146.5 95t173.5 38q166 0 264 -92.5t98 -294.5v-748q0 -178 -89 -282.5t-251 -108.5l-24 139q90 13 130 84.5t40 188.5v704q0 119 -60.5 180.5t-173.5 61.5q-65 0 -129.5 -31t-124.5 -76
v-608h152v-172h-492z" />
    <glyph glyph-name="afii10100" unicode="&#x453;" horiz-adv-x="1058" 
d="M110 0v172h152v700h-152v164h889v-358h-195v194h-354v-700h152v-172h-492zM424 1178l213 299h240v-17l-299 -282h-154z" />
    <glyph glyph-name="afii10101" unicode="&#x454;" horiz-adv-x="1116" 
d="M90 520q0 119 39 220.5t106.5 174t158.5 113.5t196 41q98 0 186 -34t154 -103h104v-172h-182q-2 0 -2 -1t-2 -1h-2v2q-41 74 -105.5 109.5t-150.5 35.5q-115 0 -200 -80t-107 -219h553v-151h-555q8 -74 35.5 -131.5t69.5 -98.5t93 -62.5t111 -21.5q47 0 89 11.5t78 35
t64.5 57.5t48.5 79l154 -76q-31 -64 -75 -115t-99 -87t-121.5 -55.5t-140.5 -19.5q-109 0 -200 41t-157.5 114t-103.5 173t-37 221z" />
    <glyph glyph-name="afii10102" unicode="&#x455;" horiz-adv-x="993" 
d="M82 111v172h207q0 -43 18.5 -73.5t49 -49.5t69 -28t78.5 -9q39 0 75 9.5t63.5 28t43.5 44.5t16 59q0 50 -32.5 85t-110.5 63l-198 74q-121 43 -179.5 109.5t-58.5 166.5q0 66 24.5 122t71 96.5t113.5 63.5t153 23q111 0 186 -31t135 -106h97v-172h-205q0 42 -19.5 71.5
t-50.5 48t-69 27t-74 8.5q-40 0 -73.5 -9t-57.5 -26t-37.5 -41.5t-13.5 -54.5q0 -52 31.5 -82.5t105.5 -56.5l199 -70q128 -43 187 -117t59 -177q0 -69 -27.5 -126.5t-78 -98t-121.5 -63t-158 -22.5q-121 0 -197 39t-117 103h-104z" />
    <glyph glyph-name="afii10103" unicode="&#x456;" horiz-adv-x="657" 
d="M92 864v172h338v-864h156v-172h-492v172h148v692h-150zM207 1403q0 26 10.5 49.5t28 41t41.5 28t51 10.5q26 0 49.5 -10.5t41 -28t28 -41t10.5 -49.5q0 -27 -10.5 -51t-28 -42.5t-41 -29t-49.5 -10.5q-27 0 -51 10.5t-41.5 29t-28 42.5t-10.5 51z" />
    <glyph glyph-name="afii10104" unicode="&#x457;" horiz-adv-x="657" 
d="M15 1360q0 53 38 91t91 38q25 0 48.5 -10.5t40 -27.5t26.5 -41t10 -50q0 -27 -10 -51.5t-26.5 -43t-40 -28.5t-48.5 -10q-53 0 -91 40t-38 93zM92 864v172h338v-864h156v-172h-492v172h148v692h-150zM330 1360q0 53 38 91t91 38q25 0 48.5 -10.5t40 -27.5t26.5 -41
t10 -50q0 -27 -10 -51.5t-26.5 -43t-40 -28.5t-48.5 -10q-53 0 -91 40t-38 93z" />
    <glyph glyph-name="afii10105" unicode="&#x458;" horiz-adv-x="604" 
d="M61 -332q89 13 129.5 84.5t40.5 188.5v923h-147v172h336v-1116q0 -89 -23 -160.5t-66.5 -122t-106.5 -78.5t-144 -30zM207 1403q0 24 9.5 45t25.5 37t37.5 25.5t46.5 9.5q24 0 45.5 -9.5t37.5 -25.5t25.5 -37t9.5 -45q0 -25 -9.5 -47t-25.5 -38.5t-37.5 -26t-45.5 -9.5
q-25 0 -46.5 9.5t-37.5 26t-25.5 38.5t-9.5 47z" />
    <glyph glyph-name="afii10106" unicode="&#x459;" horiz-adv-x="1686" 
d="M53 -2v168q86 1 143 23t91 76t48 145.5t15 230.5l2 223h-137v172h959v-172h-162v-190h215q81 0 149.5 -24.5t118.5 -68.5t78.5 -106.5t28.5 -138.5q0 -77 -29 -139t-79 -106t-117 -67.5t-144 -23.5h-555v172h145v692h-293v-248q0 -124 -12 -218t-36.5 -162.5t-61.5 -114
t-86 -73t-110 -39t-134 -11.5h-37zM1012 172h229q35 0 66.5 10.5t55 31.5t37 51.5t13.5 70.5t-14 71t-38 52t-56.5 32t-69.5 11h-223v-330z" />
    <glyph glyph-name="afii10107" unicode="&#x45a;" horiz-adv-x="1784" 
d="M92 0v172h146v692h-144v172h492v-172h-160v-190h496v190h-146v172h492v-172h-158v-190h215q80 0 148.5 -24.5t118.5 -68.5t79 -106.5t29 -138.5q0 -78 -29 -139.5t-79 -105.5t-117.5 -67.5t-143.5 -23.5h-555v172h146v330h-496v-330h158v-172h-492zM1110 172h229
q72 0 122 42t50 122q0 82 -52 124t-126 42h-223v-330z" />
    <glyph glyph-name="afii10108" unicode="&#x45b;" horiz-adv-x="1354" 
d="M92 0v172h156v965h-142v151h142v96h-142v172h328v-268h469v-151h-469v-215q68 57 146.5 95t173.5 38q166 0 264 -92.5t98 -294.5v-496h156v-172h-492v172h142v473q0 119 -60.5 180.5t-173.5 61.5q-65 0 -129.5 -31t-124.5 -76v-608h150v-172h-492z" />
    <glyph glyph-name="afii10109" unicode="&#x45c;" horiz-adv-x="1293" 
d="M110 0v172h158v692h-158v172h443v-172h-99v-254h180l246 254h-61v172h393v-172h-131l-315 -325l323 -367h125v-172h-219l-404 463h-137v-291h99v-172h-443zM453 1178l213 299h240v-17l-299 -282h-154z" />
    <glyph glyph-name="uni045D" unicode="&#x45d;" horiz-adv-x="1445" 
d="M110 864v172h492v-172h-164v-631l543 803h354v-176h-135v-688h135v-172h-492v172h168v645l-555 -817h-344v172h137v692h-139zM399 1460v17h248l184 -299h-145z" />
    <glyph glyph-name="afii10110" unicode="&#x45e;" horiz-adv-x="1084" 
d="M31 864v172h393v-172h-123l244 -661l254 661h-123v172h393v-172h-106l-383 -964q-37 -95 -82 -164.5t-99.5 -115.5t-121 -68.5t-146.5 -22.5h-47v172h51q96 0 176 62.5t138 209.5l8 23l-342 868h-84zM199 1479h121q1 -43 20 -82t52 -68.5t78 -47t97 -17.5t97 17t78 46.5
t52 68.5t21 83h121q-3 -71 -33 -131.5t-79.5 -104.5t-115.5 -69t-141 -25q-76 0 -141.5 25t-115 69t-79 104.5t-32.5 131.5z" />
    <glyph glyph-name="afii10193" unicode="&#x45f;" horiz-adv-x="1374" 
d="M110 0v162h145v702h-145v172h491v-172h-158v-702h486v702h-156v172h491v-172h-147v-702h147v-162h-456v-348h-189v348h-509z" />
    <glyph glyph-name="afii10050" unicode="&#x490;" horiz-adv-x="1229" 
d="M143 0v172h140v1180h-138v164h848v266h197v-430h-711v-1180h156v-172h-492z" />
    <glyph glyph-name="afii10098" unicode="&#x491;" horiz-adv-x="1022" 
d="M92 0v172h152v700h-152v164h694v285h189v-449h-543v-700h152v-172h-492z" />
    <glyph glyph-name="uni04B0" unicode="&#x4b0;" horiz-adv-x="1354" 
d="M51 1343v173h492v-173h-146l287 -487l305 487h-158v173h492v-173h-129l-422 -638h356v-173h-360v-360h156v-172h-492v172h139v360h-338v173h336l-401 638h-117z" />
    <glyph glyph-name="uni04B1" unicode="&#x4b1;" horiz-adv-x="1067" 
d="M39 864v172h328v-172h-86l254 -714l249 714h-82v172h328v-172h-69l-336 -880h295v-172h-295v-281h-187v281h-297v172h297l-336 880h-63z" />
    <glyph glyph-name="uni2000" unicode="&#x2000;" horiz-adv-x="987" 
 />
    <glyph glyph-name="uni2001" unicode="&#x2001;" horiz-adv-x="1974" 
 />
    <glyph glyph-name="uni2002" unicode="&#x2002;" horiz-adv-x="987" 
 />
    <glyph glyph-name="uni2003" unicode="&#x2003;" horiz-adv-x="1974" 
 />
    <glyph glyph-name="uni2004" unicode="&#x2004;" horiz-adv-x="658" 
 />
    <glyph glyph-name="uni2005" unicode="&#x2005;" horiz-adv-x="493" 
 />
    <glyph glyph-name="uni2006" unicode="&#x2006;" horiz-adv-x="329" 
 />
    <glyph glyph-name="uni2007" unicode="&#x2007;" horiz-adv-x="329" 
 />
    <glyph glyph-name="uni2008" unicode="&#x2008;" horiz-adv-x="246" 
 />
    <glyph glyph-name="uni2009" unicode="&#x2009;" horiz-adv-x="394" 
 />
    <glyph glyph-name="uni200A" unicode="&#x200a;" horiz-adv-x="109" 
 />
    <glyph glyph-name="uni2010" unicode="&#x2010;" horiz-adv-x="737" 
d="M94 496v172h551v-172h-551z" />
    <glyph glyph-name="uni2011" unicode="&#x2011;" horiz-adv-x="737" 
d="M94 496v172h551v-172h-551z" />
    <glyph glyph-name="figuredash" unicode="&#x2012;" horiz-adv-x="737" 
d="M94 496v172h551v-172h-551z" />
    <glyph glyph-name="endash" unicode="&#x2013;" horiz-adv-x="1024" 
d="M0 485v162h1024v-162h-1024z" />
    <glyph glyph-name="emdash" unicode="&#x2014;" horiz-adv-x="2048" 
d="M0 485v162h2048v-162h-2048z" />
    <glyph glyph-name="quoteleft" unicode="&#x2018;" horiz-adv-x="606" 
d="M113 1057l249 499l132 -63l-191 -514z" />
    <glyph glyph-name="quoteright" unicode="&#x2019;" horiz-adv-x="606" 
d="M92 995l184 570l220 -86l-260 -537z" />
    <glyph glyph-name="quotesinglbase" unicode="&#x201a;" horiz-adv-x="569" 
d="M20 -287l185 570l219 -86l-260 -537z" />
    <glyph glyph-name="quotedblleft" unicode="&#x201c;" horiz-adv-x="1065" 
d="M129 1057l250 499l131 -63l-191 -514zM555 1057l250 499l131 -63l-191 -514z" />
    <glyph glyph-name="quotedblright" unicode="&#x201d;" horiz-adv-x="1028" 
d="M92 1042l191 514l190 -77l-250 -500zM518 1042l191 514l190 -77l-250 -500z" />
    <glyph glyph-name="quotedblbase" unicode="&#x201e;" horiz-adv-x="1006" 
d="M20 -287l185 570l219 -86l-260 -537zM481 -287l185 570l219 -86l-260 -537z" />
    <glyph glyph-name="bullet" unicode="&#x2022;" horiz-adv-x="811" 
d="M154 780q0 52 19.5 98t53.5 80.5t80 54t99 19.5q52 0 98 -19.5t80 -53.5t53.5 -80t19.5 -99t-19.5 -99t-53.5 -80t-80 -53.5t-98 -19.5q-53 0 -99 19.5t-80 53.5t-53.5 80t-19.5 99z" />
    <glyph glyph-name="ellipsis" unicode="&#x2026;" horiz-adv-x="2048" 
d="M205 123q0 30 11.5 56.5t32 47t47 32t56.5 11.5q31 0 58 -11.5t47.5 -32t32.5 -47t12 -56.5t-12 -57t-32.5 -47t-47.5 -32t-58 -12q-30 0 -56.5 12t-47 32t-32 47t-11.5 57zM877 123q0 30 11.5 56.5t32 47t47 32t56.5 11.5q31 0 58 -11.5t47.5 -32t32.5 -47t12 -56.5
t-12 -57t-32.5 -47t-47.5 -32t-58 -12q-30 0 -56.5 12t-47 32t-32 47t-11.5 57zM1548 123q0 30 12 56.5t32 47t47 32t57 11.5q31 0 58 -11.5t47 -32t32 -47t12 -56.5t-12 -57t-32 -47t-47 -32t-58 -12q-30 0 -57 12t-47 32t-32 47t-12 57z" />
    <glyph glyph-name="uni202F" unicode="&#x202f;" horiz-adv-x="394" 
 />
    <glyph glyph-name="guilsinglleft" unicode="&#x2039;" horiz-adv-x="616" 
d="M102 565l220 393h192l-229 -393l229 -393h-192z" />
    <glyph glyph-name="guilsinglright" unicode="&#x203a;" horiz-adv-x="616" 
d="M102 172l230 393l-230 393h193l219 -393l-219 -393h-193z" />
    <glyph glyph-name="uni205F" unicode="&#x205f;" horiz-adv-x="493" 
 />
    <glyph glyph-name="Euro" unicode="&#x20ac;" horiz-adv-x="1503" 
d="M66 760q0 160 53 302t149.5 249.5t228.5 170t291 62.5q95 0 172.5 -17.5t143 -50t121 -78.5t108.5 -104h94v-178h-215q-65 115 -166.5 178.5t-257.5 63.5q-92 0 -172.5 -30t-144 -83t-109 -125.5t-69.5 -158.5h608l-108 -187h-525q0 -31 3 -61.5t8 -59.5h622l-108 -186
h-455q65 -135 181 -219t269 -84q86 0 156 20.5t126 62.5t102.5 103.5t84.5 143.5l181 -82q-47 -99 -109.5 -178.5t-144.5 -137t-180.5 -89.5t-215.5 -32q-159 0 -292.5 62.5t-228.5 170t-148 250t-53 302.5z" />
    <glyph glyph-name="trademark" unicode="&#x2122;" horiz-adv-x="1732" 
d="M10 1384v195h655v-195h-133v74h-139v-506h79v-112h-296v112h81v506h-112v-74h-135zM720 840v112h92v506h-92v121h295l166 -469l176 469h287v-121h-94v-506h94v-112h-297v112h70v385l-154 -385h-164l-153 389v-389h71v-112h-297z" />
    <glyph glyph-name="uni25FC" unicode="&#x25fc;" horiz-adv-x="1035" 
d="M0 0v1035h1035v-1035h-1035z" />
    </font>
</defs>
</svg>
