<!DOCTYPE svg PUBLIC "-//W3C//DTD SVG 20010904//EN" "http://www.w3.org/TR/2001/REC-SVG-20010904/DTD/svg10.dtd">
<svg version="1.0" xmlns="http://www.w3.org/2000/svg" width="631px" height="977px" viewBox="0 0 6310 9770" preserveAspectRatio="xMidYMid meet">
<g id="layer1" fill="#68cd68" stroke="none">
 <path d="M1270 9753 c-38 -13 -94 -64 -346 -317 -344 -344 -349 -351 -348 -481 0 -62 5 -91 24 -130 19 -41 369 -397 1974 -2003 l1951 -1952 -1947 -1948 c-1615 -1616 -1951 -1956 -1974 -2002 -24 -46 -28 -68 -28 -135 -1 -133 7 -144 352 -487 l298 -298 171 0 171 0 49 39 c82 66 4640 4634 4656 4666 24 49 40 145 33 202 -9 78 -28 125 -71 176 -21 25 -1080 1084 -2354 2354 -2198 2191 -2318 2309 -2364 2321 -64 16 -192 14 -247 -5z"/>
 <path d="M426 7102 c-3 -5 3 -17 13 -26 11 -10 22 -13 25 -8 3 5 -3 17 -13 26 -11 10 -22 13 -25 8z"/>
 <path d="M516 7012 c-3 -5 3 -17 13 -26 11 -10 22 -13 25 -8 3 5 -3 17 -13 26 -11 10 -22 13 -25 8z"/>
 <path d="M1016 6222 c-3 -6 1 -15 8 -21 8 -7 17 -8 20 -3 3 6 -1 15 -8 21 -8 7 -17 8 -20 3z"/>
 </g>

</svg>