<!DOCTYPE svg PUBLIC "-//W3C//DTD SVG 20010904//EN" "http://www.w3.org/TR/2001/REC-SVG-20010904/DTD/svg10.dtd">
<svg version="1.0" xmlns="http://www.w3.org/2000/svg" width="573px" height="981px" viewBox="0 0 5730 9810" preserveAspectRatio="xMidYMid meet">
<g id="layer1" fill="#b1daae" stroke="none">
 <path d="M4815 9797 c-27 -7 -61 -19 -75 -26 -29 -15 -4586 -4566 -4661 -4654 -57 -67 -73 -115 -73 -217 0 -100 15 -147 69 -211 24 -30 1085 -1091 2357 -2359 2195 -2188 2315 -2306 2361 -2318 67 -17 184 -15 243 4 43 15 84 51 332 298 156 155 297 300 313 323 58 84 62 266 7 347 -11 17 -894 905 -1962 1973 l-1941 1943 1951 1952 c2181 2182 1989 1977 1989 2133 -1 150 11 133 -338 482 -260 259 -319 313 -352 322 -64 18 -166 22 -220 8z"/>
 <path d="M5336 4372 c-3 -6 4 -23 17 -38 31 -36 42 -18 12 20 -13 16 -25 24 -29 18z"/>
 </g>

</svg>